<svg width="601" height="601" viewBox="0 0 601 601" fill="none" xmlns="http://www.w3.org/2000/svg">
<rect width="601" height="601" fill="white"/>
<path d="M84.2944 466.636C76.3697 414.135 31.4628 398.12 10 396.676C179.02 385.531 364.756 144.075 590.735 230.751C488.704 259.479 465.26 399.978 466.292 466.636C368.223 92.6876 283.445 310.824 253.314 466.636C165.647 269.508 104.106 384.5 84.2944 466.636Z" fill="url(#paint0_linear_36_83)"/>
<circle cx="70.0547" cy="350.073" r="21.6692" fill="url(#paint1_linear_36_83)"/>
<circle cx="238.455" cy="258.443" r="26.6222" fill="url(#paint2_linear_36_83)"/>
<circle cx="459.481" cy="168.671" r="34.6707" fill="url(#paint3_linear_36_83)"/>
<defs>
<linearGradient id="paint0_linear_36_83" x1="300.367" y1="212.009" x2="300.367" y2="780.981" gradientUnits="userSpaceOnUse">
<stop stop-color="#167AC8"/>
<stop offset="1" stop-color="#167AC8" stop-opacity="0"/>
</linearGradient>
<linearGradient id="paint1_linear_36_83" x1="70.0547" y1="328.404" x2="70.0547" y2="371.742" gradientUnits="userSpaceOnUse">
<stop stop-color="#0F76B9"/>
<stop offset="1" stop-color="#0F76B9" stop-opacity="0.64"/>
</linearGradient>
<linearGradient id="paint2_linear_36_83" x1="238.455" y1="231.821" x2="238.455" y2="285.065" gradientUnits="userSpaceOnUse">
<stop stop-color="#0F76B9"/>
<stop offset="1" stop-color="#0F76B9" stop-opacity="0.64"/>
</linearGradient>
<linearGradient id="paint3_linear_36_83" x1="459.481" y1="134" x2="459.481" y2="203.341" gradientUnits="userSpaceOnUse">
<stop stop-color="#0F76B9"/>
<stop offset="1" stop-color="#0F76B9" stop-opacity="0.64"/>
</linearGradient>
</defs>
</svg>
