<svg width="28" height="29" viewBox="0 0 28 29" fill="none" xmlns="http://www.w3.org/2000/svg">
<g clip-path="url(#clip0_7_2133)">
<path d="M7.67205 21.3028C9.12189 22.7459 10.6523 24.0489 12.2632 25.2116C13.8741 26.3742 15.4851 27.2962 17.096 27.9777C18.7069 28.6592 20.2323 29 21.6721 29C22.6486 29 23.5598 28.8246 24.4055 28.4738C25.2513 28.123 26.0165 27.5718 26.7011 26.8201C27.1038 26.3791 27.421 25.9056 27.6527 25.3994C27.8842 24.8933 28 24.3847 28 23.8735C28 23.4926 27.9245 23.1293 27.7734 22.7836C27.6224 22.4378 27.3656 22.1396 27.0031 21.8891L22.3668 18.6116C22.0144 18.3712 21.6871 18.1908 21.385 18.0705C21.0831 17.9502 20.7961 17.8901 20.5243 17.8901C20.182 17.8901 19.8497 17.9828 19.5275 18.1683C19.2054 18.3536 18.8731 18.6167 18.5307 18.9576L17.4585 20.0098C17.3075 20.1702 17.1162 20.2504 16.8846 20.2504C16.7638 20.2504 16.6505 20.2303 16.5447 20.1902C16.439 20.1502 16.3509 20.1151 16.2804 20.085C15.8073 19.8344 15.2032 19.4009 14.4682 18.7845C13.7332 18.1682 12.9931 17.4892 12.2481 16.7475C11.5131 16.0058 10.8335 15.2692 10.2093 14.5376C9.58502 13.8059 9.15209 13.2096 8.91045 12.7486C8.87018 12.6684 8.83243 12.5757 8.79719 12.4705C8.76195 12.3652 8.74433 12.2575 8.74433 12.1472C8.74433 11.9267 8.81984 11.7413 8.97086 11.591L10.0431 10.4935C10.3754 10.1528 10.6372 9.82202 10.8285 9.5013C11.0198 9.18058 11.1154 8.84984 11.1154 8.50906C11.1154 8.23846 11.0525 7.95282 10.9266 7.65214C10.8008 7.35147 10.612 7.02574 10.3603 6.67496L7.11326 2.11975C6.85148 1.75894 6.53936 1.49585 6.1769 1.33048C5.81445 1.16511 5.43185 1.08243 5.02911 1.08243C3.99208 1.08243 3.02049 1.5184 2.11435 2.39035C1.37936 3.09193 0.84322 3.86617 0.505932 4.71306C0.168644 5.55996 0 6.46449 0 7.42665C0 8.86988 0.337288 10.3858 1.01186 11.9743C1.68644 13.5629 2.60265 15.154 3.76051 16.7475C4.91837 18.3411 6.22222 19.8595 7.67205 21.3028Z" fill="white"/>
</g>
<defs>
<clipPath id="clip0_7_2133">
<rect width="28" height="29" fill="white"/>
</clipPath>
</defs>
</svg>
