<svg width="20" height="21" viewBox="0 0 20 21" fill="none" xmlns="http://www.w3.org/2000/svg">
<g clip-path="url(#clip0_7_2915)">
<path d="M5.48004 15.4262C6.51563 16.4713 7.60876 17.4148 8.75943 18.2568C9.91009 19.0986 11.0608 19.7663 12.2114 20.2598C13.3621 20.7533 14.4516 21.0001 15.48 21.0001C16.1776 21.0001 16.8284 20.8731 17.4325 20.6191C18.0367 20.3651 18.5832 19.9659 19.0722 19.4216C19.3599 19.1022 19.5864 18.7593 19.7519 18.3928C19.9173 18.0263 20 17.658 20 17.2878C20 17.012 19.9461 16.7489 19.8382 16.4985C19.7303 16.2482 19.5469 16.0323 19.288 15.8509L15.9763 13.4775C15.7245 13.3034 15.4908 13.1728 15.275 13.0857C15.0593 12.9986 14.8544 12.955 14.6602 12.955C14.4157 12.955 14.1784 13.0222 13.9482 13.1564C13.7181 13.2907 13.4808 13.4812 13.2362 13.728L12.4704 14.4899C12.3625 14.6061 12.2258 14.6642 12.0604 14.6642C11.9741 14.6642 11.8932 14.6497 11.8176 14.6206C11.7421 14.5916 11.6792 14.5662 11.6288 14.5445C11.2909 14.363 10.8594 14.049 10.3344 13.6027C9.80941 13.1564 9.28082 12.6647 8.74864 12.1276C8.22365 11.5905 7.73821 11.0571 7.29233 10.5273C6.84644 9.99751 6.5372 9.56568 6.36461 9.23183C6.33584 9.17377 6.30888 9.10664 6.2837 9.03044C6.25853 8.95423 6.24595 8.87621 6.24595 8.79637C6.24595 8.6367 6.29988 8.50244 6.40775 8.39358L7.17367 7.59887C7.41099 7.35211 7.59798 7.11261 7.73461 6.88036C7.87125 6.64812 7.93958 6.40861 7.93958 6.16184C7.93958 5.96589 7.89463 5.75905 7.80473 5.54132C7.71484 5.32359 7.58 5.08772 7.40021 4.8337L5.0809 1.5351C4.89391 1.27382 4.67097 1.08331 4.41207 0.963562C4.15318 0.843811 3.87989 0.783936 3.59222 0.783936C2.85148 0.783936 2.15749 1.09964 1.51025 1.73105C0.985256 2.23909 0.6023 2.79975 0.36138 3.41301C0.12046 4.02629 0 4.68129 0 5.37803C0 6.42313 0.24092 7.52084 0.722761 8.67118C1.2046 9.82151 1.85904 10.9737 2.68608 12.1276C3.51312 13.2816 4.44444 14.3811 5.48004 15.4262Z" fill="black"/>
</g>
<defs>
<clipPath id="clip0_7_2915">
<rect width="20" height="21" fill="white"/>
</clipPath>
</defs>
</svg>
