<svg width="29" height="29" viewBox="0 0 29 29" fill="none" xmlns="http://www.w3.org/2000/svg">
<path d="M15.0921 12.4119V11.8682H16.7197V19.5073H15.7893C15.6051 19.5076 15.4283 19.4349 15.2976 19.3051C15.167 19.1753 15.093 18.9991 15.0921 18.8149C14.4127 19.3122 13.5923 19.581 12.7503 19.5798C11.6983 19.5798 10.6894 19.162 9.94527 18.4184C9.20116 17.6747 8.78281 16.666 8.78217 15.614C8.78281 14.562 9.20116 13.5533 9.94527 12.8097C10.6894 12.066 11.6983 11.6483 12.7503 11.6483C13.5919 11.6473 14.413 11.9148 15.0921 12.4119ZM8.36046 9.41284V9.66055C8.36046 10.1221 8.29883 10.4991 7.99796 10.9414L7.96171 10.9825C7.86147 11.0949 7.76397 11.2097 7.66929 11.3268L2.44567 17.8833H8.36046V18.8113C8.36046 18.9028 8.34242 18.9934 8.30736 19.0779C8.27231 19.1624 8.22093 19.2392 8.15618 19.3038C8.09142 19.3685 8.01455 19.4197 7.92997 19.4546C7.84539 19.4895 7.75475 19.5074 7.66325 19.5073H0V19.0698C0 18.5345 0.132917 18.2953 0.302083 18.0464L5.86888 11.1528H0.232V9.41284H8.36046ZM18.6929 19.5073C18.5391 19.5073 18.3916 19.4462 18.2828 19.3374C18.174 19.2286 18.1129 19.0811 18.1129 18.9273V9.41284H19.8541V19.5073H18.6929ZM25.004 11.5999C25.5286 11.5998 26.0481 11.7029 26.5329 11.9035C27.0176 12.1042 27.4581 12.3983 27.8291 12.7691C28.2002 13.1399 28.4946 13.5802 28.6955 14.0648C28.8964 14.5494 28.9998 15.0689 29 15.5935C29.0002 16.1181 28.897 16.6376 28.6964 17.1223C28.4958 17.607 28.2017 18.0475 27.8308 18.4185C27.46 18.7896 27.0197 19.084 26.5351 19.2849C26.0505 19.4858 25.5311 19.5893 25.0065 19.5894C23.947 19.5897 22.9308 19.1692 22.1814 18.4202C21.432 17.6713 21.0108 16.6554 21.0105 15.5959C21.0102 14.5364 21.4307 13.5202 22.1797 12.7708C22.9286 12.0214 23.9446 11.6002 25.004 11.5999ZM12.7515 17.9473C13.0625 17.9544 13.3717 17.8992 13.6611 17.7851C13.9504 17.671 14.2141 17.5002 14.4365 17.2828C14.6589 17.0654 14.8357 16.8057 14.9563 16.519C15.077 16.2324 15.1392 15.9244 15.1392 15.6134C15.1392 15.3024 15.077 14.9945 14.9563 14.7078C14.8357 14.4211 14.6589 14.1614 14.4365 13.944C14.2141 13.7266 13.9504 13.5558 13.6611 13.4417C13.3717 13.3276 13.0625 13.2724 12.7515 13.2795C12.1417 13.2934 11.5616 13.5454 11.1352 13.9815C10.7089 14.4177 10.4701 15.0035 10.4701 15.6134C10.4701 16.2234 10.7089 16.8091 11.1352 17.2453C11.5616 17.6814 12.1417 17.9334 12.7515 17.9473ZM25.004 17.9437C25.6274 17.9437 26.2251 17.6961 26.6659 17.2553C27.1066 16.8146 27.3543 16.2168 27.3543 15.5935C27.3543 14.9702 27.1066 14.3724 26.6659 13.9316C26.2251 13.4909 25.6274 13.2433 25.004 13.2433C24.3807 13.2433 23.7829 13.4909 23.3422 13.9316C22.9014 14.3724 22.6538 14.9702 22.6538 15.5935C22.6538 16.2168 22.9014 16.8146 23.3422 17.2553C23.7829 17.6961 24.3807 17.9437 25.004 17.9437Z" fill="black"/>
</svg>
