<svg width="59" height="59" viewBox="0 0 59 59" fill="none" xmlns="http://www.w3.org/2000/svg">
<g clip-path="url(#clip0_19_4915)">
<path d="M29.5 58.9713C33.5298 58.9713 37.3233 58.2004 40.8806 56.6585C44.438 55.1169 47.576 52.9874 50.2945 50.27C53.0132 47.5528 55.1437 44.4164 56.6861 40.8607C58.2287 37.3052 59 33.5135 59 29.4856C59 25.4578 58.2287 21.6661 56.6861 18.1105C55.1437 14.5549 53.0132 11.4184 50.2945 8.70114C47.576 5.98384 44.4332 3.85433 40.866 2.3126C37.2991 0.770866 33.5008 0 29.471 0C25.4413 0 21.6478 0.770866 18.0904 2.3126C14.5331 3.85433 11.3999 5.98384 8.69092 8.70114C5.98194 11.4184 3.8562 14.5549 2.31372 18.1105C0.771241 21.6661 0 25.4578 0 29.4856C0 33.5135 0.771241 37.3052 2.31372 40.8607C3.8562 44.4164 5.98675 47.5528 8.70537 50.27C11.424 52.9874 14.562 55.1169 18.1193 56.6585C21.6767 58.2004 25.4702 58.9713 29.5 58.9713ZM29.5 54.0569C26.0872 54.0569 22.8962 53.421 19.9269 52.1491C16.9577 50.8772 14.3499 49.1187 12.1036 46.8736C9.85742 44.6284 8.10285 42.0219 6.83994 39.0541C5.57703 36.0863 4.94558 32.8968 4.94558 29.4856C4.94558 26.0745 5.57703 22.8851 6.83994 19.9172C8.10285 16.9494 9.8526 14.3381 12.0892 12.0833C14.3258 9.82853 16.9287 8.06999 19.898 6.80769C22.8673 5.54542 26.0583 4.91428 29.471 4.91428C32.8838 4.91428 36.0748 5.54542 39.0441 6.80769C42.0134 8.06999 44.6259 9.82853 46.8819 12.0833C49.1378 14.3381 50.902 16.9494 52.1745 19.9172C53.447 22.8851 54.0832 26.0745 54.0832 29.4856C54.0832 32.8968 53.4518 36.0863 52.189 39.0541C50.926 42.0219 49.1714 44.6284 46.9251 46.8736C44.6789 49.1187 42.0663 50.8772 39.0873 52.1491C36.1086 53.421 32.9128 54.0569 29.5 54.0569ZM22.9059 43.766C23.2915 44.1321 23.7976 44.3055 24.4242 44.2861C25.0509 44.267 25.5666 44.0647 25.9715 43.6793L38.0318 32.3186C38.5716 31.8176 38.9331 31.2201 39.1164 30.5263C39.2996 29.8325 39.2996 29.1387 39.1164 28.445C38.9331 27.7512 38.5716 27.1537 38.0318 26.6527L25.9715 15.3209C25.5281 14.897 25.0123 14.6754 24.4242 14.6561C23.8362 14.6368 23.3397 14.8295 22.9348 15.2342C22.4913 15.6389 22.2599 16.1496 22.2407 16.7663C22.2214 17.383 22.4335 17.9034 22.8769 18.3273L34.7637 29.4856L22.8769 40.6727C22.4528 41.0774 22.2407 41.5882 22.2407 42.2048C22.2407 42.8215 22.4624 43.3419 22.9059 43.766Z" fill="white"/>
</g>
<defs>
<clipPath id="clip0_19_4915">
<rect width="59" height="59" fill="white"/>
</clipPath>
</defs>
</svg>
