<svg width="499" height="349" viewBox="0 0 499 349" fill="none" xmlns="http://www.w3.org/2000/svg">
<ellipse cx="216" cy="303" rx="216" ry="36" fill="url(#paint0_radial_56_707)"/>
<ellipse cx="264" cy="224.5" rx="179" ry="81.5" fill="#D9E6FC"/>
<path d="M433.954 59.1804C433.849 55.4211 435.807 33.1566 444.877 46.7608C453.948 60.3651 434.06 62.9397 433.954 59.1804Z" fill="#BAD4FE"/>
<path d="M426.829 76.3238C429.553 74.5295 446.944 66.6353 441.316 82.3345C435.687 98.0337 424.105 78.1181 426.829 76.3238Z" fill="#BAD4FE"/>
<path d="M417.847 101.682C421.697 99.1461 446.272 87.9909 438.318 110.175C430.364 132.36 413.998 104.217 417.847 101.682Z" fill="#BAD4FE"/>
<path d="M407.835 133.724C413.208 130.186 447.502 114.619 436.402 145.577C425.303 176.536 402.463 137.263 407.835 133.724Z" fill="#BAD4FE"/>
<path d="M403.559 134.493C403.386 127.816 397.038 87.1298 379.712 107.447C362.387 127.764 403.731 141.17 403.559 134.493Z" fill="#BAD4FE"/>
<path d="M395.551 166.468C393.78 159.202 377.129 116.869 362.797 145.523C348.465 174.177 397.323 173.734 395.551 166.468Z" fill="#BAD4FE"/>
<path d="M386.362 210.734C383.891 202.551 362.213 155.458 347.43 189.694C332.647 223.93 388.833 218.917 386.362 210.734Z" fill="#BAD4FE"/>
<path d="M376.031 254.385C373.56 246.201 351.883 199.109 337.1 233.345C322.317 267.581 378.502 262.568 376.031 254.385Z" fill="#BAD4FE"/>
<path d="M380.561 256.318C385.701 249.942 422.928 216.843 427.18 255.63C431.433 294.416 375.421 262.694 380.561 256.318Z" fill="#BAD4FE"/>
<path d="M390.13 212.21C395.197 206.058 431.017 174.462 432.263 213.012C433.509 251.562 385.063 218.361 390.13 212.21Z" fill="#BAD4FE"/>
<path d="M397.504 169.246C402.268 165.215 434.679 146.268 431.566 177.458C428.453 208.648 392.74 173.278 397.504 169.246Z" fill="#BAD4FE"/>
<path d="M419.049 56.8195C421.151 60.2776 431.471 82.3873 416.706 75.3635C401.941 68.3397 416.948 53.3615 419.049 56.8195Z" fill="#BAD4FE"/>
<path d="M407.663 78.4515C410.326 82.8342 423.407 110.856 404.694 101.954C385.981 93.0524 404.999 74.0687 407.663 78.4515Z" fill="#BAD4FE"/>
<path d="M377.71 262.559C405.7 105.895 430.218 59.727 438.978 56.226" stroke="#B7D1FC" stroke-width="3"/>
<path d="M83.7697 111.223C83.3261 108.124 78.3556 90.1933 72.0672 102.837C65.7788 115.48 84.2133 114.322 83.7697 111.223Z" fill="#BAD4FE"/>
<path d="M92.7 124.106C89.9682 123.083 73.0401 119.469 80.4037 131.414C87.7674 143.359 95.4318 125.129 92.7 124.106Z" fill="#BAD4FE"/>
<path d="M104.495 143.418C100.634 141.972 76.7132 136.866 87.1188 153.745C97.5243 170.625 108.355 144.864 104.495 143.418Z" fill="#BAD4FE"/>
<path d="M118.183 168.042C112.796 166.024 79.4145 158.897 93.9355 182.453C108.456 206.008 123.571 170.059 118.183 168.042Z" fill="#BAD4FE"/>
<path d="M122.178 167.969C121.377 162.467 121.309 128.069 139.96 141.878C158.61 155.687 122.979 173.471 122.178 167.969Z" fill="#BAD4FE"/>
<path d="M134.037 192.866C134.604 186.618 143.657 149.178 160.784 170.313C177.911 191.448 133.469 199.113 134.037 192.866Z" fill="#BAD4FE"/>
<path d="M148.732 227.645C149.802 220.53 162.739 178.362 181.077 203.999C199.414 229.636 147.661 234.759 148.732 227.645Z" fill="#BAD4FE"/>
<path d="M164.374 261.731C165.445 254.617 178.382 212.449 196.719 238.086C215.056 263.723 163.303 268.846 164.374 261.731Z" fill="#BAD4FE"/>
<path d="M160.537 264.061C154.954 259.678 116.394 238.662 118.093 271.157C119.793 303.653 166.12 268.443 160.537 264.061Z" fill="#BAD4FE"/>
<path d="M145.52 229.474C140.036 225.263 102.969 205.247 107.365 237.055C111.761 268.862 151.005 233.684 145.52 229.474Z" fill="#BAD4FE"/>
<path d="M132.661 195.464C127.756 192.942 95.5994 182.736 102.9 207.794C110.2 232.852 137.567 197.986 132.661 195.464Z" fill="#BAD4FE"/>
<path d="M96.9697 106.838C95.5568 110.019 89.3529 129.84 101.757 121.656C114.161 113.471 98.3827 103.658 96.9697 106.838Z" fill="#BAD4FE"/>
<path d="M110.414 122.701C108.623 126.732 100.76 151.853 116.481 141.481C132.202 131.108 112.205 118.67 110.414 122.701Z" fill="#BAD4FE"/>
<path d="M164.022 268.709C116.132 144.876 87.242 111.057 78.7831 109.627" stroke="#B7D1FC" stroke-width="3"/>
<path d="M202.967 42.6044C203.672 39.554 205.506 21.0379 195.079 30.5602C184.652 40.0825 202.262 45.6548 202.967 42.6044Z" fill="#A6C5FA"/>
<path d="M206.647 57.842C204.468 55.9019 189.985 46.4231 192.542 60.2206C195.099 74.0181 208.825 59.7821 206.647 57.842Z" fill="#A6C5FA"/>
<path d="M210.678 80.1092C207.6 77.3676 187.133 63.9731 190.747 83.4703C194.36 102.968 213.757 82.8507 210.678 80.1092Z" fill="#A6C5FA"/>
<path d="M214.559 108.013C210.263 104.187 181.702 85.495 186.745 112.703C191.788 139.912 218.855 111.839 214.559 108.013Z" fill="#A6C5FA"/>
<path d="M218.311 109.386C219.55 103.966 231.898 71.8616 244.309 91.4699C256.721 111.078 217.073 114.807 218.311 109.386Z" fill="#A6C5FA"/>
<path d="M220.387 136.885C223.17 131.263 245.124 99.6122 253.47 125.504C261.817 151.395 217.603 142.507 220.387 136.885Z" fill="#A6C5FA"/>
<path d="M221.542 174.624C225.108 168.375 252.389 133.716 260.24 164.242C268.091 194.769 217.976 180.872 221.542 174.624Z" fill="#A6C5FA"/>
<path d="M223.831 212.058C227.397 205.809 254.678 171.15 262.529 201.677C270.38 232.204 220.264 218.307 223.831 212.058Z" fill="#A6C5FA"/>
<path d="M219.411 212.846C215.786 206.744 187.408 173.229 177.267 204.149C167.126 235.068 223.037 218.948 219.411 212.846Z" fill="#A6C5FA"/>
<path d="M217.887 175.17C214.292 169.265 186.945 137.222 179.567 168.473C172.19 199.724 221.483 181.076 217.887 175.17Z" fill="#A6C5FA"/>
<path d="M218.167 138.812C214.502 134.69 188.195 113.568 185.961 139.572C183.728 165.576 221.832 142.934 218.167 138.812Z" fill="#A6C5FA"/>
<path d="M216.86 43.2783C214.395 45.7344 201.456 61.9816 215.978 58.8246C230.499 55.6676 219.325 40.8222 216.86 43.2783Z" fill="#A6C5FA"/>
<path d="M223.674 62.9235C220.55 66.0364 204.152 86.6284 222.556 82.6272C240.961 78.626 226.799 59.8107 223.674 62.9235Z" fill="#A6C5FA"/>
<path d="M220.984 218.438C221.005 85.6683 206.265 43.7027 198.892 39.3161" stroke="#B7D1FC" stroke-width="3"/>
<path d="M68.0742 160.522C72.7165 199.868 87.0324 295.231 170.375 280.346L68.0742 160.522Z" fill="#719FF0"/>
<path d="M170.375 280.346C176.812 250.692 169.516 190.177 68.0742 160.522L170.375 280.346Z" fill="#85B5FA"/>
<path d="M47.8975 225.004C59.5243 250.89 89.7982 312.973 143.545 284.893L47.8975 225.004Z" fill="#719FF0"/>
<path d="M143.545 284.893C141.571 263.248 123.582 223.468 47.8975 225.004L143.545 284.893Z" fill="#85B5FA"/>
<path d="M68.5188 160.684L125.216 227.862M156.889 265.239L143.429 249.355M143.429 249.355L138.806 215.698M143.429 249.355L125.216 227.862M125.216 227.862L87.1308 221.634" stroke="black"/>
<path d="M114.564 280.484C114.056 280.06 110.738 277.945 111.538 280.822C112.338 283.698 115.072 280.909 114.564 280.484Z" fill="#5863FF"/>
<path d="M118.401 282.54C117.784 282.521 114.15 282.954 116.439 284.841C118.728 286.729 119.017 282.558 118.401 282.54Z" fill="#5863FF"/>
<path d="M122.079 285.599C121.208 285.573 116.072 286.184 119.307 288.852C122.541 291.519 122.95 285.625 122.079 285.599Z" fill="#5863FF"/>
<path d="M126.499 289.592C125.283 289.556 118.117 290.409 122.63 294.131C127.144 297.854 127.715 289.628 126.499 289.592Z" fill="#5863FF"/>
<path d="M127.294 289.305C126.758 288.259 124.396 281.38 129.071 282.87C133.746 284.361 127.829 290.351 127.294 289.305Z" fill="#5863FF"/>
<path d="M131.366 293.478C131.053 292.189 130.309 284.079 135.179 287.139C140.049 290.199 131.679 294.767 131.366 293.478Z" fill="#5863FF"/>
<path d="M136.681 299.435C136.409 297.938 136.12 288.616 141.539 292.495C146.959 296.374 136.952 300.932 136.681 299.435Z" fill="#5863FF"/>
<path d="M142.138 305.188C141.866 303.691 141.577 294.37 146.996 298.249C152.416 302.127 142.409 306.685 142.138 305.188Z" fill="#5863FF"/>
<path d="M141.529 305.916C140.112 305.42 130.961 303.847 133.519 310.233C136.078 316.62 142.945 306.412 141.529 305.916Z" fill="#5863FF"/>
<path d="M136.163 300.02C134.778 299.552 125.994 298.076 129.045 304.141C132.096 310.206 137.548 300.488 136.163 300.02Z" fill="#5863FF"/>
<path d="M131.268 294.092C130.114 293.922 122.983 294.074 126.154 298.591C129.325 303.107 132.422 294.262 131.268 294.092Z" fill="#5863FF"/>
<path d="M118.076 278.793C118.011 279.525 118.122 283.915 120.046 281.431C121.969 278.947 118.142 278.06 118.076 278.793Z" fill="#5863FF"/>
<path d="M121.849 281.049C121.766 281.978 121.907 287.542 124.345 284.393C126.783 281.244 121.933 280.12 121.849 281.049Z" fill="#5863FF"/>
<path d="M142.543 306.609C124.507 285.097 116.418 280.301 114.627 280.592" stroke="#3645CF"/>
<path d="M145.656 182.993C147.349 173.502 152.767 154.52 160.894 154.52C165.511 153.736 173.961 156.873 170.821 175.699L145.656 182.993Z" fill="black"/>
<path d="M123.953 259.706L124.876 261.824C144.27 249.823 147.733 244.881 149.35 239.469C150.642 235.139 155.891 225.742 158.354 221.585C165.742 221.962 170.052 224.095 171.283 225.115C173.684 223.797 171.514 240.881 170.129 249.588L172.668 249.903L176.132 250.334L179.595 250.764C181.072 243.046 182.981 229.664 183.751 223.938C185.782 220.55 173.515 212.8 167.127 209.349C160.293 211.984 151.043 210.447 147.272 209.349C146.718 210.102 141.961 225.507 139.653 233.116C139.422 243.234 127.878 251.313 121.875 254.529L122.347 255.706L123.953 259.706Z" fill="#0B004C"/>
<path d="M147.272 209.349C151.043 210.447 160.293 211.984 167.127 209.349C166.573 207.654 169.359 200.171 170.821 196.642C175.993 196.265 175.285 189.425 174.285 186.052C185.921 185.488 195.449 170.914 198.758 163.698L193.909 160.874C184.305 175.746 175.285 177.267 171.976 176.169C171.422 175.793 168.051 175.699 166.435 175.699C165.326 177.393 162.433 176.718 161.124 176.169C148.38 174.287 133.034 196.406 126.954 207.701L132.726 210.055C138.156 199.625 149.818 190.736 151.313 189.482C151.355 189.41 151.393 189.365 151.427 189.347C151.516 189.302 151.471 189.349 151.313 189.482C150.472 190.938 148.299 203.143 147.272 209.349Z" fill="#080FC3"/>
<path d="M170.821 255.706C169.205 258.059 183.058 258.53 183.982 257.353C184.905 256.176 179.133 253.588 178.671 253.823C178.85 254.686 177.723 255.894 171.782 253.823C171.529 254.486 171.212 255.136 170.821 255.706Z" fill="black"/>
<path d="M117.488 258.294C112.178 257.118 116.641 266.138 119.797 271.001C120.951 271.001 121.413 264.177 120.951 265.118C119.916 267.228 117.796 261.04 117.488 258.294Z" fill="black"/>
<path d="M117.488 258.294C117.796 261.04 119.916 267.228 120.951 265.118C120.567 263.942 120.628 261.212 123.953 259.706L122.347 255.706L117.488 258.294Z" fill="#FFE5C7"/>
<path d="M176.132 250.334L172.668 249.903C172.615 250.705 172.366 252.296 171.782 253.823C177.723 255.894 178.85 254.686 178.671 253.823C178.21 254.059 175.901 252.256 176.132 250.334Z" fill="#FFE5C7"/>
<path d="M194.602 161.344C195.449 159.383 197.188 155.461 197.373 155.461C197.603 155.461 198.065 156.403 197.603 157.344C197.234 158.097 200.22 156.246 201.759 155.226C203.299 156.403 204.761 159.65 198.296 163.227L194.602 161.344Z" fill="#FFE5C7"/>
<path d="M161.124 175.934C161.124 174.365 160.57 170.71 158.354 168.639C156.815 168.09 154.567 166.804 157.892 166.051C158.446 166.239 158.739 165.345 158.816 164.874L162.741 158.521C164.511 158.756 168.236 159.98 168.974 162.992C169.898 163.619 171.098 165.109 168.513 166.051C168.897 167.855 168.928 171.557 165.973 171.934L166.435 175.699C164.772 177.667 162.202 176.676 161.124 175.934Z" fill="#FFE5C7"/>
<path d="M127.185 207.937C126.108 209.584 124.045 212.973 124.415 213.349C124.876 213.82 125.338 217.82 129.032 213.584C129.34 214.133 130.048 215.185 130.417 214.996C130.879 214.761 131.11 214.996 131.11 214.526C131.11 214.055 130.879 210.055 132.034 210.055L127.185 207.937Z" fill="#FFE5C7"/>
<ellipse cx="161.817" cy="165.345" rx="0.46176" ry="0.705946" fill="black"/>
<path d="M166.449 168.667C166.496 169.054 166.02 169.432 165.387 169.51C164.754 169.589 164.204 169.339 164.158 168.952C164.111 168.565 164.643 168.655 165.275 168.576C165.908 168.497 166.403 168.28 166.449 168.667Z" fill="white"/>
<path d="M166.449 168.667C166.496 169.054 166.02 169.432 165.387 169.51C164.754 169.589 164.204 169.339 164.158 168.952C164.111 168.565 164.643 168.655 165.275 168.576C165.908 168.497 166.403 168.28 166.449 168.667Z" fill="white"/>
<path d="M162.078 163.576C161.986 163.383 161.58 163.392 161.171 163.595C160.763 163.798 160.507 164.119 160.599 164.312C160.691 164.504 160.986 164.263 161.394 164.06C161.803 163.857 162.171 163.769 162.078 163.576Z" fill="white"/>
<path d="M162.078 163.576C161.986 163.383 161.58 163.392 161.171 163.595C160.763 163.798 160.507 164.119 160.599 164.312C160.691 164.504 160.986 164.263 161.394 164.06C161.803 163.857 162.171 163.769 162.078 163.576Z" fill="black"/>
<path d="M167.623 163.213C167.632 162.999 167.271 162.81 166.817 162.791C166.363 162.772 165.987 162.93 165.979 163.144C165.97 163.359 166.342 163.289 166.796 163.308C167.25 163.327 167.615 163.428 167.623 163.213Z" fill="white"/>
<path d="M167.623 163.213C167.632 162.999 167.271 162.81 166.817 162.791C166.363 162.772 165.987 162.93 165.979 163.144C165.97 163.359 166.342 163.289 166.796 163.308C167.25 163.327 167.615 163.428 167.623 163.213Z" fill="black"/>
<ellipse cx="166.897" cy="164.403" rx="0.46176" ry="0.705946" fill="black"/>
<path d="M296.654 98.5904C298.189 99.3217 301.48 100.258 302.358 98.1517V95.5191C304.698 94.4954 308.456 90.4296 304.771 82.3566C303.016 82.7222 298.628 83.4096 295.118 83.2341C295.557 84.916 296.303 88.4114 295.776 88.9379C295.25 89.4644 294.314 88.5723 293.802 88.2798C293.436 88.7185 293.275 90.0348 295.557 91.7898C295.996 91.7898 296.829 93.1499 296.654 98.5904Z" fill="#FFE3C1"/>
<path d="M271.426 142.685C273.254 140.711 276.91 136.586 276.91 135.884L271.426 133.926C271.279 134.067 270.329 134.963 267.696 137.42C265.064 139.877 269.086 141.954 271.426 142.685Z" fill="#FFE3C1"/>
<path d="M332.851 96.3966C333.026 96.7476 331.169 100.199 330.218 101.881L333.948 104.012C334.606 103.448 336.273 102.013 337.677 100.784C339.432 99.2485 337.238 95.2997 337.019 95.0804C336.799 94.861 332.631 99.6873 333.289 98.5904C333.948 97.4935 332.631 95.9579 332.851 96.3966Z" fill="#FFE3C1"/>
<path d="M318.153 170.326V172.959C319.176 173.105 321.355 173.178 321.882 172.301C322.408 171.423 322.979 170.619 323.198 170.326H318.153Z" fill="#FFE3C1"/>
<path d="M280.639 188.694L280.201 191.825C281.297 192.629 283.579 193.931 283.93 192.703C284.281 191.474 284.515 190.476 284.588 190.13L280.639 188.694Z" fill="#FFE3C1"/>
<path d="M271.426 133.926L276.91 135.884L286.562 120.747L283.272 142.685C284.114 142.739 284.995 142.741 285.904 142.698C294.665 142.283 306.098 137.695 311.133 135.226L312.668 117.457C326.708 119.914 333.289 109.852 334.825 104.514L333.948 104.012L330.218 101.881C322.145 113.815 315.154 106.269 312.668 101.004C311.966 98.1956 305.502 97.9323 302.358 98.1517C301.48 100.258 298.189 99.3217 296.654 98.5904C293.948 99.0292 289.327 99.2486 287.221 101.004C285.115 102.759 274.936 123.892 270.767 133.691L271.426 133.926Z" fill="white"/>
<path d="M311.133 135.226C306.098 137.695 294.665 142.283 285.904 142.698C285.319 151.249 284.369 168.352 285.246 168.352L280.201 188.534L280.639 188.694L284.588 190.13L287.44 191.167C290.438 185.683 297.443 169.975 301.48 151.021C306.891 149.632 317.889 147.467 318.591 149.924C319.293 152.381 317.568 164.549 316.617 170.326H318.153H323.198H323.637C327.074 161.697 332.456 143.782 326.489 141.149C319.03 137.859 322.101 137.859 311.133 135.226Z" fill="#253B65"/>
<path d="M283.93 192.703C283.579 193.931 281.297 192.629 280.201 191.825L278.007 195.774C281.005 197.675 287.308 201.214 288.537 200.161C289.765 199.108 285.977 194.75 283.93 192.703Z" fill="#253B65"/>
<path d="M321.882 172.301C321.355 173.178 319.176 173.105 318.153 172.959L317.714 177.127C321.151 177.639 328.244 178.355 329.121 177.127C329.999 175.898 324.661 173.397 321.882 172.301Z" fill="#253B65"/>
<ellipse cx="298.628" cy="87.8408" rx="0.438751" ry="0.658127" fill="black"/>
<path d="M303.996 91.0251C303.905 91.5332 302.811 92.5457 301.947 92.3917C301.083 92.2377 300.456 91.701 300.547 91.1929C300.638 90.6849 301.222 91.0917 302.19 90.9297C303.053 91.0837 304.087 90.5171 303.996 91.0251Z" fill="white"/>
<path d="M303.996 91.0251C303.905 91.5332 302.811 92.5457 301.947 92.3917C301.083 92.2377 300.456 91.701 300.547 91.1929C300.638 90.6849 301.222 91.0917 302.19 90.9297C303.053 91.0837 304.087 90.5171 303.996 91.0251Z" fill="white"/>
<path d="M299.036 86.2162C298.999 86.0196 298.494 85.9486 297.908 86.0577C297.321 86.1669 296.875 86.4147 296.912 86.6113C296.948 86.8079 297.409 86.6415 297.996 86.5324C298.582 86.4233 299.072 86.4128 299.036 86.2162Z" fill="white"/>
<path d="M299.036 86.2162C298.999 86.0196 298.494 85.9486 297.908 86.0577C297.321 86.1669 296.875 86.4147 296.912 86.6113C296.948 86.8079 297.409 86.6415 297.996 86.5324C298.582 86.4233 299.072 86.4128 299.036 86.2162Z" fill="black"/>
<path d="M304.679 84.454C304.613 84.2649 304.117 84.2647 303.569 84.4535C303.021 84.6423 302.63 84.9486 302.695 85.1377C302.76 85.3268 303.178 85.0988 303.726 84.91C304.274 84.7211 304.744 84.643 304.679 84.454Z" fill="white"/>
<path d="M304.679 84.454C304.613 84.2649 304.117 84.2647 303.569 84.4535C303.021 84.6423 302.63 84.9486 302.695 85.1377C302.76 85.3268 303.178 85.0988 303.726 84.91C304.274 84.7211 304.744 84.643 304.679 84.454Z" fill="black"/>
<ellipse cx="303.893" cy="86.5246" rx="0.438751" ry="0.658127" fill="black"/>
<path d="M293.818 87.5029C294.11 87.8685 295.002 89.6528 295.353 89.4773C295.704 89.3018 295.938 88.3071 296.011 87.9415L295.353 83.5541C298.132 83.4078 303.909 82.9836 304.786 82.4571C305.298 83.4077 306.278 85.5722 306.103 86.6252C305.883 87.9415 308.516 80.7022 307.199 79.6053C306.146 78.7278 306.029 78.3621 305.664 78.7277C306.395 77.4846 306.629 75.9637 306.103 75.4372C305.444 74.7791 295.083 73.4101 292.501 79.6054C291.404 82.2378 292.94 86.406 293.818 87.5029Z" fill="black" stroke="black"/>
<path d="M360.288 61.5585L359.411 58.4873C357.51 57.756 354.234 55.3722 354.585 48.1766C355.316 48.0304 356.998 46.992 357.875 44.0085C359.777 46.4948 364.018 51.204 365.773 50.151C367.528 49.098 367.967 50.151 367.967 50.8091L365.773 53.4417C365.261 55.1235 364.457 58.8822 365.334 60.4617C367.359 60.7147 370.889 61.5423 373.162 63.1334C375.287 62.9532 376.084 61.1198 376.742 60.2423C377.4 59.3648 374.987 56.7323 375.425 56.7323C375.864 56.7323 376.742 54.7579 376.742 53.661C376.742 52.7835 374.255 50.2242 373.012 49.0542C373.378 48.8348 373.978 48.045 373.451 46.641C372.925 45.237 371.477 45.0323 370.819 45.1054C370.745 43.9354 370.336 41.6393 369.283 41.8148C367.967 42.0341 365.992 40.7179 365.334 39.621C364.676 38.5241 361.605 39.1822 361.166 39.621C360.815 39.972 358.826 40.0597 357.875 40.0597C356.486 40.4254 353.576 41.727 353.049 44.0085C351.367 44.0816 348.223 45.1493 349.1 48.8348C347.784 50.8823 345.941 55.4599 349.1 57.3904C348.808 58.4403 349.627 61.0587 355.243 63.1334C356.559 62.4959 358.211 61.9251 360.288 61.5585Z" fill="#26253D"/>
<path d="M350.197 67.0429C349.539 67.2623 346.468 78.0117 346.468 78.8892C346.468 79.1804 347.298 79.381 348.442 79.5161C350.056 79.7066 352.295 79.7667 353.707 79.7667C353.736 80.4215 353.684 81.0807 353.563 81.7411L355.023 82.6186V96.2199C360.703 95.6456 371.172 94.4698 373.162 93.8298C373.453 93.7364 373.563 93.6544 373.451 93.5874C372.574 93.0609 372.5 82.253 372.574 76.9148L374.329 79.7667L374.682 79.5474L379.226 76.727L380.69 75.818L375.206 65.7267C374.936 64.7001 374.174 63.8412 373.162 63.1334C370.889 61.5423 367.359 60.7147 365.334 60.4617C362.351 62.9187 360.727 62.2167 360.288 61.5585C358.211 61.9251 356.559 62.4959 355.243 63.1334C351.832 64.785 350.672 66.8847 350.197 67.0429Z" fill="#9B66A3"/>
<path d="M355.023 96.2199C351.587 110.041 344.318 143.649 342.738 167.517H344.713H348.881H349.539L362.921 116.402V167.517H364.457H368.625H370.16C373.159 148.651 378.979 110.655 378.277 109.602C377.4 108.286 378.139 103.286 373.162 93.8298C371.172 94.4698 360.703 95.6456 355.023 96.2199Z" fill="#26253D"/>
<path d="M361.385 172.563C357.875 173.089 356.559 174.83 356.34 175.634C358.46 176.511 363.974 177.828 369.064 176.073C369.064 175.341 368.976 173.791 368.625 173.44C366.212 174.025 361.385 174.669 361.385 172.563Z" fill="#FF837A"/>
<path d="M336.377 175.634C335.28 177.828 349.978 176.511 348.881 176.073C348.508 175.923 348.386 174.842 348.397 173.44C342.57 175.371 341.465 173.66 341.642 172.563C340.252 172.855 337.254 173.879 336.377 175.634Z" fill="#FF837A"/>
<path d="M360.288 61.5585C360.727 62.2167 362.351 62.9187 365.334 60.4617C364.457 58.8822 365.261 55.1235 365.773 53.4417L367.967 50.8091C367.967 50.151 367.528 49.098 365.773 50.151C364.018 51.204 359.777 46.4948 357.875 44.0085C356.998 46.992 355.316 48.0304 354.585 48.1766C354.234 55.3722 357.51 57.756 359.411 58.4873L360.288 61.5585Z" fill="#F0D5B3"/>
<path d="M336.377 99.9493C341.819 96.8583 352.189 89.223 353.563 81.7411C353.684 81.0807 353.736 80.4215 353.707 79.7667C352.295 79.7667 350.056 79.7066 348.442 79.5161C348.003 82.5977 345.854 89.7264 340.764 93.5874H335.06C335.207 94.0993 335.675 95.123 336.377 95.123C337.079 95.123 334.768 96.4393 333.525 97.0974C333.543 98.0794 335.192 100.025 336.377 99.9493Z" fill="#F0D5B3"/>
<path d="M379.226 76.727L374.682 79.5474C376.831 84.6661 381.261 96.527 381.787 103.021L380.91 108.286C382.138 107.233 382.592 107.554 382.665 107.847L383.762 110.918C385.078 110.406 387.623 109.163 387.272 108.286C386.833 107.189 385.517 102.143 384.859 102.362C384.2 102.582 382.297 80.6758 379.226 76.727Z" fill="#F0D5B3"/>
<path d="M348.881 167.517H344.713C345.064 171.203 342.812 172.416 341.642 172.563C341.465 173.66 342.57 175.371 348.397 173.44C348.413 171.548 348.671 169.071 348.881 167.517Z" fill="#F0D5B3"/>
<path d="M364.457 167.517C364.895 168.979 364.895 172.036 361.385 172.563C361.385 174.669 366.212 174.025 368.625 173.44C368.274 173.089 368.479 169.345 368.625 167.517H364.457Z" fill="#F0D5B3"/>
<ellipse cx="355.929" cy="51.0283" rx="0.438751" ry="0.658127" fill="black"/>
<path d="M361.297 54.2126C361.206 54.7207 360.111 55.7332 359.248 55.5792C358.384 55.4252 357.757 54.8885 357.848 54.3804C357.938 53.8723 358.522 54.2792 359.49 54.1172C360.354 54.2712 361.387 53.7046 361.297 54.2126Z" fill="white"/>
<path d="M361.297 54.2126C361.206 54.7207 360.111 55.7332 359.248 55.5792C358.384 55.4252 357.757 54.8885 357.848 54.3804C357.938 53.8723 358.522 54.2792 359.49 54.1172C360.354 54.2712 361.387 53.7046 361.297 54.2126Z" fill="white"/>
<path d="M356.337 49.4037C356.3 49.2071 355.795 49.1361 355.208 49.2452C354.622 49.3543 354.176 49.6022 354.212 49.7988C354.249 49.9954 354.71 49.829 355.297 49.7199C355.883 49.6108 356.373 49.6003 356.337 49.4037Z" fill="white"/>
<path d="M356.337 49.4037C356.3 49.2071 355.795 49.1361 355.208 49.2452C354.622 49.3543 354.176 49.6022 354.212 49.7988C354.249 49.9954 354.71 49.829 355.297 49.7199C355.883 49.6108 356.373 49.6003 356.337 49.4037Z" fill="black"/>
<path d="M361.979 47.6415C361.914 47.4524 361.417 47.4522 360.869 47.641C360.321 47.8298 359.93 48.1361 359.995 48.3252C360.061 48.5143 360.479 48.2863 361.027 48.0974C361.574 47.9086 362.044 47.8305 361.979 47.6415Z" fill="white"/>
<path d="M361.979 47.6415C361.914 47.4524 361.417 47.4522 360.869 47.641C360.321 47.8298 359.93 48.1361 359.995 48.3252C360.061 48.5143 360.479 48.2863 361.027 48.0974C361.574 47.9086 362.044 47.8305 361.979 47.6415Z" fill="black"/>
<ellipse cx="361.194" cy="49.712" rx="0.438751" ry="0.658127" fill="black"/>
<path d="M204.984 158.251C209.372 154.156 218.805 144.299 221.437 137.63C222.168 143.114 223.455 155.224 222.753 159.787C223.029 159.824 223.322 159.861 223.631 159.897C229.318 160.564 240.545 160.965 249.079 158.394C250.07 158.096 251.025 157.757 251.93 157.374C250.102 148.014 246.271 129.206 245.569 128.855C248.713 129.586 256.45 132.453 262.241 138.069L262.978 137.331L265.312 134.997L266.629 133.681C259.024 125.71 241.357 111.042 231.529 116.131C230.578 117.447 228.062 119.553 225.605 117.447C223.339 117.301 217.532 121.133 212.443 137.63L199.938 153.644L201.035 154.646L203.668 157.049L204.984 158.251Z" fill="#FF837A"/>
<path d="M246.446 213.314C241.181 195.94 246.007 169.462 249.079 158.394C240.545 160.965 229.318 160.564 223.631 159.897L216.172 183.041C215.514 185.015 216.172 205.124 216.83 215.728H217.269H222.973H224.508C222.753 181.329 230.212 170.39 234.161 169.22C232.055 188.35 236.062 207.903 238.329 215.289L240.523 214.755L246.007 213.421L246.446 213.314Z" fill="black"/>
<path d="M240.523 214.755L241.839 217.263L246.446 215.947C245.393 214.543 245.715 213.678 246.007 213.421L240.523 214.755Z" fill="#E4CFB5"/>
<path d="M223.192 219.018L222.973 215.728H217.269L218.585 219.018C220.048 219.091 223.017 219.194 223.192 219.018Z" fill="#E4CFB5"/>
<path d="M223.192 225.161C225.123 224.459 223.997 220.773 223.192 219.018C223.017 219.194 220.048 219.091 218.585 219.018C212.267 221.3 210.98 224.064 211.127 225.161C214.344 225.453 221.262 225.863 223.192 225.161Z" fill="white"/>
<path d="M241.839 217.263C239.353 219.164 234.688 223.274 235.916 224.503C237.145 225.731 244.764 222.967 248.42 221.431C248.201 220.188 247.499 217.351 246.446 215.947L241.839 217.263Z" fill="white"/>
<path d="M201.035 154.646C199.5 155.482 196.385 157.286 196.209 157.812C196.034 158.339 197.598 158.178 198.403 158.032L196.867 161.981C197.452 162.346 198.973 162.902 200.377 162.2C201.781 161.498 203.156 158.474 203.668 157.049L201.035 154.646Z" fill="#E4CFB5"/>
<path d="M262.978 137.331C263.171 138.893 263.645 142.017 263.996 142.017C264.347 142.017 264.727 140.847 264.874 140.262C266.044 140.921 268.427 142.412 268.603 143.114C268.822 143.992 271.236 139.385 270.139 139.385C269.042 139.385 266.629 133.681 265.312 134.997L262.978 137.331Z" fill="#E4CFB5"/>
<path d="M225.605 117.447C228.062 119.553 230.578 117.447 231.529 116.131C231.073 116.35 228.457 108.892 228.896 109.33C229.247 109.681 230.066 108.16 230.432 107.356C230.432 106.99 230.256 106.259 229.554 106.259C228.852 106.259 228.092 106.99 227.799 107.356C227.575 106.683 227.308 106.158 227.023 105.753C226.498 105.017 225.733 104.404 224.728 104.504L224.07 103.188C222.973 104.138 220.735 105.996 220.56 105.82C220.384 105.645 220.487 104.285 220.56 103.627L216.714 108.021C217.091 109.276 217.173 109.701 217.595 110.647C220.127 116.31 223.287 116.758 224.728 116.131L225.605 117.447Z" fill="#E4CFB5"/>
<ellipse cx="219.463" cy="109.55" rx="0.438751" ry="0.658127" fill="black"/>
<path d="M224.947 112.402C225.01 112.914 224.26 114.203 223.389 114.309C222.518 114.415 221.762 114.086 221.699 113.574C221.637 113.062 222.315 113.279 223.192 112.84C224.063 112.734 224.885 111.889 224.947 112.402Z" fill="white"/>
<path d="M224.947 112.402C225.01 112.914 224.26 114.203 223.389 114.309C222.518 114.415 221.762 114.086 221.699 113.574C221.637 113.062 222.315 113.279 223.192 112.84C224.063 112.734 224.885 111.889 224.947 112.402Z" fill="white"/>
<path d="M219.808 107.639C219.721 107.459 219.215 107.526 218.679 107.788C218.143 108.049 217.779 108.407 217.867 108.587C217.954 108.766 218.354 108.483 218.89 108.221C219.427 107.96 219.896 107.819 219.808 107.639Z" fill="white"/>
<path d="M219.808 107.639C219.721 107.459 219.215 107.526 218.679 107.788C218.143 108.049 217.779 108.407 217.867 108.587C217.954 108.766 218.354 108.483 218.89 108.221C219.427 107.96 219.896 107.819 219.808 107.639Z" fill="black"/>
<path d="M225.075 106.163C225.009 105.974 224.512 105.973 223.965 106.162C223.417 106.351 223.026 106.657 223.091 106.846C223.156 107.036 223.574 106.808 224.122 106.619C224.67 106.43 225.14 106.352 225.075 106.163Z" fill="white"/>
<path d="M225.075 106.163C225.009 105.974 224.512 105.973 223.965 106.162C223.417 106.351 223.026 106.657 223.091 106.846C223.156 107.036 223.574 106.808 224.122 106.619C224.67 106.43 225.14 106.352 225.075 106.163Z" fill="black"/>
<ellipse cx="224.728" cy="108.233" rx="0.438751" ry="0.658127" fill="black"/>
<path d="M220.546 103.72C220.4 104.452 220.195 105.914 220.546 105.914C220.897 105.914 223.179 104.159 224.276 103.282L224.714 104.598C225.226 104.379 226.557 104.642 227.786 107.45C228.151 107.011 229.058 106.177 229.76 106.353C230.462 106.528 230.052 108.035 229.76 108.766L228.882 109.424L229.102 110.521L230.637 108.766C231.222 107.23 232.085 103.413 230.857 100.43C229.321 96.7004 229.76 98.0166 225.592 95.8229C221.424 93.6291 220.107 97.7973 217.475 97.3585C214.842 96.9198 211.991 103.282 212.868 104.598C213.307 103.94 214.228 102.667 214.404 102.843C213.746 104.159 212.605 106.792 213.307 106.792C213.453 106.499 213.877 105.914 214.404 105.914C215.062 105.914 213.965 110.74 215.062 110.521C215.939 110.346 219.084 105.914 220.546 103.72Z" fill="#221818"/>
<path d="M180.62 257.519V294.593V308.906H378.277V176.35H330.673V198.726H306.103H286.359V225.49H261.131H229.102V257.519H204.093H180.62Z" fill="#628DD2"/>
<path d="M330.673 198.726V176.35H306.103V198.726H330.673Z" fill="#437DC3"/>
<path d="M286.359 225.49V198.726H261.131V225.49H286.359Z" fill="#437DC3"/>
<path d="M229.102 257.519V225.49H204.093V257.519H229.102Z" fill="#437DC3"/>
<path d="M180.62 257.519H154.953V294.593L180.62 308.906V294.593V257.519Z" fill="#437DC3"/>
<path d="M465.92 152.66C425.762 172.857 329.616 225.075 377.784 308.181L465.92 152.66Z" fill="#719FF0"/>
<path d="M377.784 308.181C411.9 303.554 473.604 272.325 465.92 152.66L377.784 308.181Z" fill="#85B5FA"/>
<path d="M465.123 152.85L422.009 229.458M398.066 272.201L408.241 254.037M408.241 254.037L438.157 237.937M408.241 254.037L422.009 229.458M422.009 229.458L414.528 191.599" stroke="black"/>
<path d="M353.043 196.616C338.902 227.877 306.902 305.014 375.376 331.22L353.043 196.616Z" fill="#719FF0"/>
<path d="M375.376 331.22C393.404 312.099 415.037 263.95 353.043 196.616L375.376 331.22Z" fill="#85B5FA"/>
<path d="M352.661 197.112L363.841 263.271M370.145 300.131L367.466 284.467M367.466 284.467L377.494 260.553M367.466 284.467L363.841 263.271M363.841 263.271L341.23 244.392" stroke="black"/>
<path d="M481.644 224.046C444.556 231.6 354.907 252.826 375.718 330.985L428.681 277.515L481.644 224.046Z" fill="#354DCE"/>
<path d="M375.718 330.985C404.463 334.75 461.493 322.983 481.644 224.046L428.681 277.515L375.718 330.985Z" fill="#85B5FA"/>
<path d="M375.718 330.985C404.463 334.75 461.493 322.983 481.644 224.046M375.718 330.985C354.907 252.826 444.556 231.6 481.644 224.046M375.718 330.985L428.681 277.515M481.644 224.046L428.681 277.515M428.681 277.515L453.084 274.191" stroke="#354DCE"/>
<path d="M346.607 281.238C346.915 280.467 349.39 276.128 350.462 279.696C351.533 283.264 346.299 282.009 346.607 281.238Z" fill="#3649CF" stroke="#3249D5"/>
<path d="M343.469 285.839C344.194 285.432 348.843 283.609 347.438 287.059C346.032 290.508 342.745 286.246 343.469 285.839Z" fill="#3649CF"/>
<path d="M341.229 291.411C342.252 290.836 348.823 288.259 346.837 293.134C344.851 298.009 340.206 291.986 341.229 291.411Z" fill="#3649CF"/>
<path d="M338.76 298.443C340.188 297.64 349.357 294.045 346.586 300.848C343.815 307.651 337.332 299.245 338.76 298.443Z" fill="#3649CF"/>
<path d="M337.608 298.636C337.511 297.184 335.484 288.371 330.946 292.897C326.408 297.422 337.705 300.088 337.608 298.636Z" fill="#3649CF"/>
<path d="M335.682 305.641C335.147 304.071 330.318 294.963 326.654 301.284C322.989 307.605 336.217 307.211 335.682 305.641Z" fill="#3649CF"/>
<path d="M333.528 315.328C332.797 313.563 326.571 303.449 322.827 310.987C319.082 318.526 334.26 317.094 333.528 315.328Z" fill="#3649CF"/>
<path d="M331.062 324.888C330.331 323.122 324.104 313.009 320.36 320.547C316.616 328.086 331.793 326.653 331.062 324.888Z" fill="#3649CF"/>
<path d="M332.303 325.281C333.647 323.862 343.477 316.435 344.922 324.847C346.367 333.26 330.959 326.699 332.303 325.281Z" fill="#3649CF"/>
<path d="M334.56 315.626C335.886 314.257 345.346 307.165 345.976 315.544C346.605 323.924 333.235 316.995 334.56 315.626Z" fill="#3649CF"/>
<path d="M336.232 306.234C337.491 305.328 346.125 301.009 345.518 307.813C344.911 314.618 334.972 307.14 336.232 306.234Z" fill="#3649CF"/>
<path d="M341.215 281.643C341.81 282.382 344.772 287.13 340.721 285.692C336.669 284.253 340.62 280.903 341.215 281.643Z" fill="#3649CF"/>
<path d="M338.295 286.419C339.05 287.356 342.804 293.373 337.669 291.55C332.534 289.727 337.541 285.481 338.295 286.419Z" fill="#3649CF"/>
<path d="M331.578 326.656C337.971 292.401 344.261 282.207 346.607 281.392" stroke="#3645CF"/>
<path d="M322.257 272.823C322.322 271.842 323.492 266.079 325.892 269.794C328.291 273.508 322.191 273.804 322.257 272.823Z" fill="#0E0857" stroke="#0F0759"/>
<path d="M320.461 279.104C321.103 278.401 325.5 274.789 325.179 279.186C324.857 283.583 319.819 279.807 320.461 279.104Z" fill="#0E0857"/>
<path d="M319.973 286.196C320.881 285.203 327.094 280.098 326.64 286.311C326.185 292.525 319.066 287.189 319.973 286.196Z" fill="#0E0857"/>
<path d="M319.746 295.028C321.012 293.642 329.684 286.519 329.049 295.19C328.415 303.861 318.48 296.414 319.746 295.028Z" fill="#0E0857"/>
<path d="M318.567 295.629C317.957 294.006 312.7 284.625 309.363 291.282C306.026 297.939 319.176 297.252 318.567 295.629Z" fill="#0E0857"/>
<path d="M318.917 304.252C317.792 302.638 309.401 293.845 307.633 302.261C305.865 310.677 320.041 305.866 318.917 304.252Z" fill="#0E0857"/>
<path d="M319.953 316.007C318.549 314.235 308.296 304.757 306.865 314.587C305.434 324.418 321.358 317.779 319.953 316.007Z" fill="#0E0857"/>
<path d="M320.607 327.721C319.202 325.949 308.949 316.471 307.518 326.301C306.087 336.132 322.011 329.493 320.607 327.721Z" fill="#0E0857"/>
<path d="M322.086 327.76C323.047 325.699 331.103 313.988 335.59 323.104C340.078 332.219 321.125 329.82 322.086 327.76Z" fill="#0E0857"/>
<path d="M321.173 316.007C322.132 314.009 329.904 302.802 333.497 312.149C337.09 321.495 320.215 318.005 321.173 316.007Z" fill="#0E0857"/>
<path d="M319.718 304.746C320.766 303.298 328.606 295.525 330.315 303.484C332.023 311.444 318.67 306.195 319.718 304.746Z" fill="#0E0857"/>
<path d="M316.563 275.063C317.464 275.71 322.32 280.146 317.436 279.843C312.552 279.539 315.662 274.416 316.563 275.063Z" fill="#0E0857"/>
<path d="M315.064 281.471C316.206 282.291 322.359 287.914 316.17 287.529C309.98 287.144 313.922 280.651 315.064 281.471Z" fill="#0E0857"/>
<path d="M321.78 329.567C316.793 288.4 320.056 274.702 322.311 272.999" stroke="#0B084D"/>
<path d="M137.801 265.443C137.526 264.672 135.32 260.333 134.365 263.901C133.41 267.469 138.075 266.214 137.801 265.443Z" fill="#2637B0" stroke="#3249D5"/>
<path d="M140.597 270.044C139.951 269.637 135.808 267.814 137.06 271.264C138.313 274.713 141.242 270.451 140.597 270.044Z" fill="#2637B0"/>
<path d="M142.593 275.616C141.681 275.04 135.826 272.464 137.596 277.339C139.365 282.214 143.505 276.191 142.593 275.616Z" fill="#2637B0"/>
<path d="M144.794 282.648C143.521 281.845 135.349 278.25 137.819 285.053C140.289 291.856 146.066 283.45 144.794 282.648Z" fill="#2637B0"/>
<path d="M145.821 282.841C145.907 281.389 147.714 272.576 151.758 277.102C155.803 281.627 145.734 284.293 145.821 282.841Z" fill="#2637B0"/>
<path d="M147.537 289.846C148.014 288.276 152.318 279.167 155.584 285.489C158.849 291.81 147.061 291.416 147.537 289.846Z" fill="#2637B0"/>
<path d="M149.457 299.533C150.108 297.768 155.658 287.654 158.995 295.192C162.331 302.731 148.805 301.298 149.457 299.533Z" fill="#2637B0"/>
<path d="M151.655 309.093C152.307 307.327 157.856 297.213 161.193 304.752C164.53 312.29 151.003 310.858 151.655 309.093Z" fill="#2637B0"/>
<path d="M150.549 309.486C149.351 308.067 140.59 300.64 139.302 309.052C138.014 317.465 151.746 310.904 150.549 309.486Z" fill="#2637B0"/>
<path d="M148.537 299.831C147.356 298.462 138.924 291.37 138.363 299.749C137.802 308.129 149.718 301.2 148.537 299.831Z" fill="#2637B0"/>
<path d="M147.047 290.439C145.925 289.533 138.23 285.213 138.771 292.018C139.312 298.823 148.17 291.345 147.047 290.439Z" fill="#2637B0"/>
<path d="M142.606 265.848C142.076 266.587 139.436 271.335 143.046 269.897C146.657 268.458 143.137 265.108 142.606 265.848Z" fill="#2637B0"/>
<path d="M145.208 270.623C144.536 271.561 141.19 277.578 145.766 275.755C150.343 273.932 145.881 269.686 145.208 270.623Z" fill="#2637B0"/>
<path d="M151.195 310.861C145.497 276.606 139.891 266.412 137.8 265.597" stroke="#3645CF"/>
<defs>
<radialGradient id="paint0_radial_56_707" cx="0" cy="0" r="1" gradientUnits="userSpaceOnUse" gradientTransform="translate(216 303) rotate(90) scale(36 216)">
<stop stop-color="#628DD2"/>
<stop offset="1" stop-color="#D9D9D9" stop-opacity="0"/>
</radialGradient>
</defs>
</svg>
