<svg id="eeE9uCrQ2Di1" xmlns="http://www.w3.org/2000/svg" xmlns:xlink="http://www.w3.org/1999/xlink" viewBox="0 0 1809 1252" shape-rendering="geometricPrecision" text-rendering="geometricPrecision">
<style><![CDATA[
#eeE9uCrQ2Di3_tr {animation: eeE9uCrQ2Di3_tr__tr 3000ms linear infinite normal forwards}@keyframes eeE9uCrQ2Di3_tr__tr { 0% {transform: translate(1406.671905px,978.692993px) rotate(-11.022544deg);animation-timing-function: cubic-bezier(0.42,0,0.58,1)} 56.666667% {transform: translate(1406.671905px,978.692993px) rotate(-5.231365deg);animation-timing-function: cubic-bezier(0.42,0,0.58,1)} 100% {transform: translate(1406.671905px,978.692993px) rotate(-11.022544deg)}} #eeE9uCrQ2Di18_tr {animation: eeE9uCrQ2Di18_tr__tr 3000ms linear infinite normal forwards}@keyframes eeE9uCrQ2Di18_tr__tr { 0% {transform: translate(633.156001px,991.157349px) rotate(3.797465deg);animation-timing-function: cubic-bezier(0.42,0,0.58,1)} 60% {transform: translate(633.156001px,991.157349px) rotate(11.793637deg);animation-timing-function: cubic-bezier(0.44,0,0.4,1)} 100% {transform: translate(633.156001px,991.157349px) rotate(3.797465deg)}} #eeE9uCrQ2Di33_tr {animation: eeE9uCrQ2Di33_tr__tr 3000ms linear infinite normal forwards}@keyframes eeE9uCrQ2Di33_tr__tr { 0% {transform: translate(823.255005px,809.802124px) rotate(11.155036deg);animation-timing-function: cubic-bezier(0.42,0,0.58,1)} 43.333333% {transform: translate(823.255005px,809.802124px) rotate(5.672918deg);animation-timing-function: cubic-bezier(0.42,0,0.58,1)} 100% {transform: translate(823.255005px,809.802124px) rotate(11.155036deg)}} #eeE9uCrQ2Di48_tr {animation: eeE9uCrQ2Di48_tr__tr 3000ms linear infinite normal forwards}@keyframes eeE9uCrQ2Di48_tr__tr { 0% {transform: translate(631.603271px,1007.17671px) rotate(0deg);animation-timing-function: cubic-bezier(0.42,0,0.58,1)} 43.333333% {transform: translate(631.603271px,1007.17671px) rotate(5.073967deg);animation-timing-function: cubic-bezier(0.42,0,0.58,1)} 100% {transform: translate(631.603271px,1007.17671px) rotate(0deg)}} #eeE9uCrQ2Di52_tr {animation: eeE9uCrQ2Di52_tr__tr 3000ms linear infinite normal forwards}@keyframes eeE9uCrQ2Di52_tr__tr { 0% {transform: translate(530.975824px,1024.309942px) rotate(0deg);animation-timing-function: cubic-bezier(0.42,0,0.58,1)} 46.666667% {transform: translate(530.975824px,1024.309942px) rotate(5.022339deg);animation-timing-function: cubic-bezier(0.42,0,0.58,1)} 100% {transform: translate(530.975824px,1024.309942px) rotate(0deg)}} #eeE9uCrQ2Di55_tr {animation: eeE9uCrQ2Di55_tr__tr 3000ms linear infinite normal forwards}@keyframes eeE9uCrQ2Di55_tr__tr { 0% {transform: translate(542.180122px,1115.290771px) rotate(0deg);animation-timing-function: cubic-bezier(0.42,0,0.58,1)} 46.666667% {transform: translate(542.180122px,1115.290771px) rotate(27.610098deg);animation-timing-function: cubic-bezier(0.42,0,0.58,1)} 100% {transform: translate(542.180122px,1115.290771px) rotate(0deg)}} #eeE9uCrQ2Di148_tr {animation: eeE9uCrQ2Di148_tr__tr 3000ms linear infinite normal forwards}@keyframes eeE9uCrQ2Di148_tr__tr { 0% {transform: translate(1384.289722px,1101.48992px) rotate(0deg);animation-timing-function: cubic-bezier(0.42,0,0.58,1)} 50% {transform: translate(1384.289722px,1101.48992px) rotate(-6.506941deg);animation-timing-function: cubic-bezier(0.42,0,0.58,1)} 100% {transform: translate(1384.289722px,1101.48992px) rotate(0deg)}} #eeE9uCrQ2Di152_tr {animation: eeE9uCrQ2Di152_tr__tr 3000ms linear infinite normal forwards}@keyframes eeE9uCrQ2Di152_tr__tr { 0% {transform: translate(1365.721323px,1185.84336px) rotate(0deg);animation-timing-function: cubic-bezier(0.42,0,0.58,1)} 36.666667% {transform: translate(1365.721323px,1185.84336px) rotate(5.766123deg);animation-timing-function: cubic-bezier(0.42,0,0.58,1)} 100% {transform: translate(1365.721323px,1185.84336px) rotate(0deg)}} #eeE9uCrQ2Di156_tr {animation: eeE9uCrQ2Di156_tr__tr 3000ms linear infinite normal forwards}@keyframes eeE9uCrQ2Di156_tr__tr { 0% {transform: translate(1365.38px,1180.948981px) rotate(0deg)} 60% {transform: translate(1365.38px,1180.948981px) rotate(-2.345826deg)} 100% {transform: translate(1365.38px,1180.948981px) rotate(0deg)}} #eeE9uCrQ2Di160_tr {animation: eeE9uCrQ2Di160_tr__tr 3000ms linear infinite normal forwards}@keyframes eeE9uCrQ2Di160_tr__tr { 0% {transform: translate(1206.89px,1181.422608px) rotate(0deg);animation-timing-function: cubic-bezier(0.42,0,0.58,1)} 43.333333% {transform: translate(1206.89px,1181.422608px) rotate(5.82884deg);animation-timing-function: cubic-bezier(0.42,0,0.58,1)} 100% {transform: translate(1206.89px,1181.422608px) rotate(0deg)}} #eeE9uCrQ2Di175_tr {animation: eeE9uCrQ2Di175_tr__tr 3000ms linear infinite normal forwards}@keyframes eeE9uCrQ2Di175_tr__tr { 0% {transform: translate(1172.532956px,1182.513428px) rotate(0deg);animation-timing-function: cubic-bezier(0.42,0,0.58,1)} 56.666667% {transform: translate(1172.532956px,1182.513428px) rotate(9.159425deg);animation-timing-function: cubic-bezier(0.42,0,0.58,1)} 100% {transform: translate(1172.532956px,1182.513428px) rotate(0deg)}} #eeE9uCrQ2Di190_tr {animation: eeE9uCrQ2Di190_tr__tr 3000ms linear infinite normal forwards}@keyframes eeE9uCrQ2Di190_tr__tr { 0% {transform: translate(559.238px,1114.608398px) rotate(0deg);animation-timing-function: cubic-bezier(0.42,0,0.58,1)} 53.333333% {transform: translate(559.238px,1114.608398px) rotate(11.394781deg);animation-timing-function: cubic-bezier(0.42,0,0.58,1)} 100% {transform: translate(559.238px,1114.608398px) rotate(0deg)}}
]]></style>
<defs><radialGradient id="eeE9uCrQ2Di2-fill" cx="0" cy="0" r="1" spreadMethod="pad" gradientUnits="userSpaceOnUse" gradientTransform="matrix(0 127 -856.5 0 0 0)"><stop id="eeE9uCrQ2Di2-fill-0" offset="0%" stop-color="#628dd2"/><stop id="eeE9uCrQ2Di2-fill-1" offset="100%" stop-color="rgba(217,217,217,0)"/></radialGradient></defs><ellipse rx="856.5" ry="127" transform="translate(856.5 1092)" fill="url(#eeE9uCrQ2Di2-fill)"/><g id="eeE9uCrQ2Di3_tr" transform="translate(1406.671905,978.692993) rotate(-11.022544)"><g transform="translate(-1406.48823,-978.099976)"><path d="M1574.47,212.484c-.38-13.498,6.65-93.437,39.22-44.592s-38.84,58.089-39.22,44.592Z" fill="#bad4fe"/><path d="M1548.89,274.036c9.78-6.442,72.22-34.786,52.01,21.581s-61.79-15.139-52.01-21.581Z" fill="#bad4fe"/><path d="M1516.64,365.082c13.82-9.104,102.05-49.156,73.5,30.496-28.56,79.652-87.32-21.392-73.5-30.496Z" fill="#bad4fe"/><path d="M1480.69,480.129c19.29-12.704,142.42-68.597,102.57,42.557-39.85,111.155-121.86-29.853-102.57-42.557Z" fill="#bad4fe"/><path d="M1465.34,482.888c-.62-23.973-23.42-170.054-85.62-97.107-62.21,72.947,86.23,121.08,85.62,97.107Z" fill="#bad4fe"/><path d="M1436.59,597.692c-6.37-26.088-66.15-178.08-117.61-75.2-51.45,102.88,123.97,101.289,117.61,75.2Z" fill="#bad4fe"/><path d="M1403.59,756.628c-8.87-29.381-86.7-198.465-139.78-75.542-53.08,122.922,148.65,104.923,139.78,75.542Z" fill="#bad4fe"/><path d="M1366.5,913.352c-8.87-29.381-86.7-198.465-139.78-75.542s148.65,104.923,139.78,75.542Z" fill="#bad4fe"/><path d="M1382.77,920.295c18.45-22.893,152.11-141.732,167.38-2.472c15.27,139.257-185.84,25.365-167.38,2.472Z" fill="#bad4fe"/><path d="M1417.12,761.926c18.19-22.086,146.8-135.53,151.28,2.88c4.47,138.411-169.47,19.206-151.28-2.88Z" fill="#bad4fe"/><path d="M1443.6,607.668c17.1-14.474,133.47-82.503,122.3,29.484-11.18,111.987-139.41-15.01-122.3-29.484Z" fill="#bad4fe"/><path d="M1520.95,204.007c7.55,12.416,44.6,91.8-8.41,66.581-53.01-25.218.87-78.997,8.41-66.581Z" fill="#bad4fe"/><path d="M1480.07,281.675c9.57,15.736,56.53,116.348-10.66,84.386s1.1-100.122,10.66-84.386Z" fill="#bad4fe"/><path d="M1372.53,942.703c100.49-562.493,188.52-728.257,219.98-740.827" fill="none" stroke="#b7d1fc" stroke-width="3"/></g></g><g id="eeE9uCrQ2Di18_tr" transform="translate(633.156001,991.157349) rotate(1.797465)"><g transform="translate(-633.155998,-991.157337)"><path d="M317.152,399.34c-1.592-11.128-19.439-75.506-42.017-30.112-22.578,45.395,43.61,41.239,42.017,30.112Z" fill="#bad4fe"/><path d="M349.216,445.595c-9.808-3.674-70.588-16.649-44.149,26.239c26.439,42.889,53.958-22.564,44.149-26.239Z" fill="#bad4fe"/><path d="M391.564,514.935c-13.86-5.192-99.747-23.527-62.387,37.078c37.361,60.606,76.247-31.886,62.387-37.078Z" fill="#bad4fe"/><path d="M440.713,603.343c-19.342-7.245-139.198-32.832-87.061,51.742c52.136,84.575,106.403-44.497,87.061-51.742Z" fill="#bad4fe"/><path d="M455.056,603.081c-2.876-19.755-3.12-143.256,63.843-93.677c66.963,49.58-60.967,113.432-63.843,93.677Z" fill="#bad4fe"/><path d="M550.394,817.345c3.845-25.544,50.293-176.947,116.132-84.899c65.839,92.049-119.978,110.443-116.132,84.899Z" fill="#bad4fe"/><path d="M606.557,939.73c3.846-25.544,50.294-176.947,116.133-84.898s-119.978,110.443-116.133,84.898Z" fill="#bad4fe"/><path d="M592.78,948.095C572.734,932.36,434.287,856.9,440.389,973.573c6.101,116.677,172.437-9.744,152.391-25.478Z" fill="#bad4fe"/><path d="M538.864,823.911c-19.691-15.116-152.777-86.982-136.993,27.22c15.784,114.203,156.684-12.103,136.993-27.22Z" fill="#bad4fe"/><path d="M492.695,701.803c-17.614-9.055-133.069-45.702-106.857,44.267c26.211,89.969,124.47-35.213,106.857-44.267Z" fill="#bad4fe"/><path d="M364.546,383.597c-5.073,11.418-27.347,82.585,17.188,53.2s-12.115-64.619-17.188-53.2Z" fill="#bad4fe"/><path d="M412.817,440.551c-6.43,14.471-34.661,104.67,21.784,67.427c56.445-37.244-15.354-81.899-21.784-67.427Z" fill="#bad4fe"/><path d="M497.632,692.472c2.037-22.432,34.542-156.857,96.035-80.973s-98.072,103.406-96.035,80.973Z" fill="#bad4fe"/><path d="M605.292,964.783C433.348,520.17,329.619,398.744,299.248,393.607" fill="none" stroke="#b7d1fc" stroke-width="3"/></g></g><g id="eeE9uCrQ2Di33_tr" transform="translate(823.255005,809.802124) rotate(11.155036)"><g transform="translate(-823.255005,-809.802119)"><path d="M745.124,152.969c2.529-10.953,9.116-77.4337-28.321-43.245-37.437,34.19,25.791,54.197,28.321,43.245Z" fill="#a6c5fa"/><path d="M758.336,207.678c-7.822-6.966-59.824-40.999-50.643,8.54s58.465-1.574,50.643-8.54Z" fill="#a6c5fa"/><path d="M772.81,287.627c-11.053-9.843-84.537-57.935-71.563,12.068c12.974,70.004,82.616-2.224,71.563-12.068Z" fill="#a6c5fa"/><path d="M786.746,387.814c-15.425-13.737-117.972-80.849-99.867,16.841c18.106,97.689,115.291-3.105,99.867-16.841Z" fill="#a6c5fa"/><path d="M800.217,392.745c4.446-19.462,48.783-134.73,93.344-64.328s-97.79,83.789-93.344,64.328Z" fill="#a6c5fa"/><path d="M807.668,491.477c9.994-20.186,88.816-133.826,118.784-40.864c29.967,92.961-128.778,61.05-118.784,40.864Z" transform="translate(0-2.05365)" fill="#a6c5fa"/><path d="M811.815,626.975c12.804-22.436,110.756-146.877,138.944-37.273c28.188,109.605-151.747,59.709-138.944,37.273Z" transform="translate(0-2.05365)" fill="#a6c5fa"/><path d="M820.033,761.382c12.804-22.436,110.756-146.878,138.943-37.273c28.188,109.604-151.747,59.708-138.943,37.273Z" transform="translate(0-2.05365)" fill="#a6c5fa"/><path d="M804.166,764.21c-13.018-21.908-114.907-142.241-151.318-31.227s164.335,53.136,151.318,31.227Z" transform="translate(0-2.05365)" fill="#a6c5fa"/><path d="M798.693,628.939c-12.909-21.204-111.097-136.252-137.585-24.048-26.489,112.204,150.495,45.251,137.585,24.048Z" transform="translate(0-2.05365)" fill="#a6c5fa"/><path d="M799.697,498.397c-13.16-14.8-107.612-90.64-115.631,2.726-8.02,93.366,128.79,12.075,115.631-2.726Z" transform="translate(0-2.05365)" fill="#a6c5fa"/><path d="M795.005,155.388c-8.851,8.818-55.306,67.153-3.167,55.818c52.138-11.335,12.018-64.636,3.167-55.818Z" fill="#a6c5fa"/><path d="M819.472,225.923c-11.218,11.177-70.095,85.111-4.014,70.745s15.233-81.921,4.014-70.745Z" fill="#a6c5fa"/><path d="M809.813,784.289c.076-476.702-52.847-627.377-79.319-643.127" fill="none" stroke="#b7d1fc" stroke-width="3"/></g></g><g id="eeE9uCrQ2Di48_tr" transform="translate(631.603271,1007.17671) rotate(0)"><g transform="translate(-631.603267,-1007.176702)"><path d="M260.798,576.344c16.668,141.268,68.069,483.666,367.305,430.216L260.798,576.344Z" transform="translate(0-1.519449)" fill="#719ff0"/><path d="M628.103,1006.56c23.11-106.467-3.085-323.742-367.305-430.216L628.103,1006.56Z" transform="translate(0-1.519449)" fill="#85b5fa"/><path d="M262.395,576.925l203.568,241.2m113.72,134.2l-48.327-57.03m0,0l-16.6-120.844m16.6,120.844l-65.393-77.17m0,0L329.22,795.762" fill="none" stroke="#000"/></g></g><g id="eeE9uCrQ2Di52_tr" transform="translate(530.975824,1024.309942) rotate(0)"><g transform="translate(-530.975815,-1024.309903)"><path d="M188.356,807.863c41.745,92.943,150.442,315.847,343.417,215.027L188.356,807.863Z" fill="#719ff0"/><path d="M531.773,1022.89c-7.089-77.713-71.677-220.542-343.417-215.027L531.773,1022.89Z" fill="#85b5fa"/></g></g><g id="eeE9uCrQ2Di55_tr" transform="translate(542.180122,1115.290771) rotate(0)"><g transform="translate(-542.180112,-1115.290756)"><path d="M427.717,1007.06c-1.824-1.52-13.735-9.115-10.862,1.21c2.872,10.33,12.686.32,10.862-1.21Z" fill="#5863ff"/><path d="M441.492,1014.44c-2.213-.06-15.262,1.49-7.044,8.27c8.219,6.77,9.258-8.2,7.044-8.27Z" fill="#5863ff"/><path d="M454.7,1025.43c-3.128-.1-21.567,2.1-9.954,11.67c11.613,9.58,13.082-11.58,9.954-11.67Z" fill="#5863ff"/><path d="M470.57,1039.76c-4.366-.13-30.097,2.93-13.891,16.3s18.256-16.17,13.891-16.3Z" fill="#5863ff"/><path d="M473.422,1038.73c-1.924-3.75-10.403-28.45,6.382-23.1c16.784,5.35-4.458,26.86-6.382,23.1Z" fill="#5863ff"/><path d="M488.044,1053.71c-1.124-4.62-3.795-33.74,13.691-22.75c17.485,10.98-12.567,27.38-13.691,22.75Z" fill="#5863ff"/><path d="M507.126,1075.1c-.974-5.37-2.014-38.84,17.445-24.91c19.458,13.92-16.471,30.29-17.445,24.91Z" fill="#5863ff"/><path d="M526.719,1095.76c-.974-5.37-2.014-38.84,17.445-24.92c19.458,13.93-16.471,30.29-17.445,24.92Z" fill="#5863ff"/><path d="M524.532,1098.37c-5.085-1.78-37.941-7.43-28.756,15.5c9.185,22.94,33.842-13.72,28.756-15.5Z" fill="#5863ff"/><path d="M505.267,1077.2c-4.973-1.68-36.511-6.98-25.557,14.8s30.529-13.12,25.557-14.8Z" fill="#5863ff"/><path d="M487.693,1055.92c-4.143-.61-29.749-.06-18.362,16.15c11.386,16.22,22.505-15.54,18.362-16.15Z" fill="#5863ff"/><path d="M440.328,1000.99c-.236,2.63.165,18.39,7.071,9.47s-6.835-12.103-7.071-9.47Z" fill="#5863ff"/><path d="M453.876,1009.09c-.299,3.34.208,23.31,8.961,12.01c8.754-11.31-8.662-15.34-8.961-12.01Z" fill="#5863ff"/><path d="M528.175,1100.86c-64.756-77.24-93.802-94.46-100.231-93.41" fill="none" stroke="#3645cf"/></g></g><path d="M539.35,657.027c6.079-34.077,25.532-102.231,54.711-102.231c16.579-2.817,46.919,8.448,35.645,76.039L539.35,657.027Z"/><path d="M461.428,932.459l3.315,7.604c69.633-43.089,82.067-60.832,87.87-80.264c4.642-15.546,23.487-49.285,32.33-64.211c26.526,1.351,42,9.012,46.421,12.673c8.622-4.732.829,56.607-4.144,87.868l9.118,1.133l12.435,1.546l12.434,1.545c5.305-27.712,12.158-75.758,14.921-96.317c7.295-12.166-36.75-39.991-59.685-52.383-24.537,9.463-57.751,3.943-71.291,0-1.989,2.704-19.066,58.016-27.355,85.334-.829,36.33-42.277,65.338-63.83,76.884l1.695,4.225l5.766,14.363Z" fill="#0b004c"/><path d="M545.152,751.653c13.54,3.943,46.754,9.463,71.291,0-1.989-6.083,8.013-32.95,13.263-45.623c18.569-1.352,16.027-25.91,12.435-38.02c41.779-2.028,75.988-54.354,87.87-80.264l-17.409-10.139c-34.484,53.397-66.869,58.861-78.751,54.918-1.989-1.352-14.092-1.69-19.895-1.69-3.979,6.083-14.368,3.661-19.066,1.69-45.758-6.759-100.857,72.66-122.686,113.214l20.724,8.449c19.494-37.445,61.369-69.361,66.736-73.866.149-.257.285-.42.41-.484.316-.161.157.009-.41.484-3.02,5.23-10.824,49.052-14.512,71.331Z" fill="#080fc3"/><path d="M629.706,918.096c-5.802,8.449,43.935,10.139,47.251,5.914c3.316-4.224-17.408-13.518-19.066-12.673.642,3.098-3.406,7.435-24.735,0-.909,2.378-2.045,4.715-3.45,6.759Z"/><path d="M438.216,927.389c-19.065-4.224-3.039,28.163,8.29,45.624c4.145,0,5.803-24.501,4.145-21.122-3.716,7.575-11.329-14.644-12.435-24.502Z"/><path d="M438.216,927.389c1.106,9.858,8.719,32.077,12.435,24.502-1.382-4.224-1.161-14.025,10.777-19.432l-5.766-14.363-17.446,9.293Z" fill="#ffe5c7"/><path d="M648.773,898.808l-12.435-1.546c-.193,2.88-1.084,8.59-3.182,14.075c21.329,7.435,25.377,3.098,24.735,0-1.658.845-9.947-5.626-9.118-12.529Z" transform="translate(.000001 0)" fill="#ffe5c7"/><path d="M715.089,579.297c3.04-7.041,9.285-21.122,9.948-21.122.829,0,2.487,3.379.829,6.759-1.327,2.704,9.395-3.943,14.921-7.604c5.526,4.224,10.776,15.884-12.434,28.726l-13.264-6.759Z" fill="#ffe5c7"/><path d="M594.89,631.68c0-5.633-1.989-18.756-9.947-26.191-5.527-1.972-13.595-6.591-1.658-9.294c1.989.676,3.039-2.535,3.316-4.225l14.092-22.812c6.355.845,19.729,5.239,22.382,16.053c3.316,2.253,7.626,7.604-1.658,10.984c1.381,6.477,1.492,19.77-9.119,21.122l1.658,13.518c-5.968,7.069-15.197,3.509-19.066.845Z" fill="#ffe5c7"/><path d="M473.033,746.584c-3.869,5.915-11.274,18.081-9.948,19.433c1.658,1.689,3.316,16.053,16.58.845c1.105,1.971,3.647,5.745,4.973,5.069c1.658-.845,2.487,0,2.487-1.69s-.829-16.053,3.316-16.053l-17.408-7.604Z" fill="#ffe5c7"/><ellipse rx="1.65792" ry="2.53466" transform="translate(597.377014 593.659973)"/><path d="M614.009,605.59c.166,1.389-1.542,2.745-3.814,3.027s-4.249-.615-4.415-2.005c-.166-1.389,1.742-1.068,4.014-1.35s4.048-1.062,4.215.328Z" fill="#fff"/><path d="M614.009,605.59c.166,1.389-1.542,2.745-3.814,3.027s-4.249-.615-4.415-2.005c-.166-1.389,1.742-1.068,4.014-1.35s4.048-1.062,4.215.328Z" fill="#fff"/><path d="M598.314,587.309c-.331-.692-1.789-.662-3.255.068-1.467.729-2.387,1.882-2.056,2.574.332.692,1.389-.174,2.856-.903c1.467-.73,2.787-1.047,2.455-1.739Z" fill="#fff"/><path d="M598.314,587.309c-.331-.692-1.789-.662-3.255.068-1.467.729-2.387,1.882-2.056,2.574.332.692,1.389-.174,2.856-.903c1.467-.73,2.787-1.047,2.455-1.739Z"/><path d="M618.224,586.007c.031-.769-1.265-1.449-2.896-1.517-1.63-.068-2.978.5-3.009,1.269-.031.77,1.303.52,2.934.589c1.631.068,2.94.429,2.971-.341Z" fill="#fff"/><path d="M618.224,586.007c.031-.769-1.265-1.449-2.896-1.517-1.63-.068-2.978.5-3.009,1.269-.031.77,1.303.52,2.934.589c1.631.068,2.94.429,2.971-.341Z"/><ellipse rx="1.65792" ry="2.53466" transform="translate(615.614014 590.280029)"/><path d="M1081.5,353.983c5.51,2.625,17.33,5.986,20.48-1.575v-9.452c8.4-3.676,21.9-18.274,8.66-47.26-6.3,1.313-22.05,3.781-34.65,3.151c1.57,6.039,4.25,18.589,2.36,20.479s-5.25-1.313-7.09-2.363c-1.31,1.575-1.89,6.301,6.3,12.603c1.58,0,4.57,4.883,3.94,24.417Z" fill="#ffe3c1"/><path d="M990.92,512.302c6.563-7.089,19.69-21.897,19.69-24.418l-19.69-7.032c-.526.506-3.939,3.724-13.391,12.546-9.451,8.822,4.989,16.278,13.391,18.904Z" fill="#ffe3c1"/><path d="M1211.46,346.106c.63,1.26-6.04,13.653-9.45,19.692l13.39,7.651c2.36-2.025,8.35-7.179,13.39-11.59c6.3-5.513-1.57-19.691-2.36-20.479-.79-.787-15.75,16.541-13.39,12.603s-2.36-9.452-1.58-7.877Z" fill="#ffe3c1"/><path d="M1158.69,611.546v9.452c3.68.525,11.5.787,13.39-2.363c1.89-3.151,3.94-6.039,4.73-7.089h-18.12Z" fill="#ffe3c1"/><path d="M1024,677.494l-1.57,11.242c3.93,2.888,12.13,7.562,13.39,3.151s2.1-7.996,2.36-9.237L1024,677.494Z" fill="#ffe3c1"/><path d="M990.92,480.852l19.69,7.032l34.66-54.348-11.82,78.766c3.03.193,6.19.2,9.45.046c31.46-1.488,72.51-17.962,90.58-26.827l5.52-63.8c50.41,8.822,74.04-27.305,79.55-46.472l-3.15-1.8-13.39-7.651c-28.98,42.848-54.08,15.753-63.01-3.151-2.52-10.082-25.73-11.027-37.02-10.239-3.15,7.561-14.97,4.2-20.48,1.575-9.71,1.575-26.31,2.363-33.87,8.664s-44.11,82.179-59.073,117.361l2.363.844Z"/><path d="M1133.48,485.521c-18.07,8.865-59.12,25.339-90.58,26.827-2.1,30.703-5.51,92.109-2.36,92.109l-18.11,72.464l1.57.573l14.18,5.156l10.24,3.723c10.76-19.691,35.92-76.087,50.41-144.141c19.43-4.988,58.91-12.76,61.44-3.938c2.52,8.822-3.68,52.51-7.09,73.252h5.51h18.12h1.57c12.34-30.981,31.66-95.306,10.24-104.758-26.78-11.815-15.75-11.815-55.14-21.267Z" fill="#7999d5"/><path d="M1035.82,691.887c-1.26,4.411-9.46-.263-13.39-3.151l-7.88,14.178c10.76,6.826,33.4,19.534,37.81,15.753s-9.19-19.429-16.54-26.78Z" fill="#253b65"/><path d="M1172.08,618.635c-1.89,3.15-9.71,2.888-13.39,2.363l-1.58,14.965c12.34,1.838,37.81,4.411,40.96,0s-16.01-13.39-25.99-17.328Z" fill="#253b65"/><ellipse rx="1.57531" ry="2.36296" transform="translate(1088.589966 315.386993)"/><path d="M1107.86,326.82c-.32,1.824-4.25,5.46-7.36,4.907-3.1-.553-5.35-2.48-5.02-4.304.32-1.825,2.42-.364,5.9-.945c3.1.552,6.81-1.482,6.48.342Z" fill="#fff"/><path d="M1107.86,326.82c-.32,1.824-4.25,5.46-7.36,4.907-3.1-.553-5.35-2.48-5.02-4.304.32-1.825,2.42-.364,5.9-.945c3.1.552,6.81-1.482,6.48.342Z" fill="#fff"/><path d="M1090.05,309.554c-.13-.706-1.94-.961-4.05-.569-2.1.392-3.71,1.282-3.57,1.987.13.706,1.78.109,3.89-.283c2.1-.392,3.86-.429,3.73-1.135Z" fill="#fff"/><path d="M1090.05,309.554c-.13-.706-1.94-.961-4.05-.569-2.1.392-3.71,1.282-3.57,1.987.13.706,1.78.109,3.89-.283c2.1-.392,3.86-.429,3.73-1.135Z"/><path d="M1110.31,303.227c-.23-.679-2.02-.68-3.98-.002-1.97.678-3.37,1.778-3.14,2.457s1.74-.14,3.7-.818c1.97-.678,3.66-.958,3.42-1.637Z" fill="#fff"/><path d="M1110.31,303.227c-.23-.679-2.02-.68-3.98-.002-1.97.678-3.37,1.778-3.14,2.457s1.74-.14,3.7-.818c1.97-.678,3.66-.958,3.42-1.637Z"/><ellipse rx="1.57531" ry="2.36296" transform="translate(1107.48999 310.661011)"/><path d="M1071.32,314.174c1.05,1.312,4.25,7.719,5.51,7.089s2.1-4.202,2.36-5.514l-2.36-15.753c9.98-.525,30.72-2.048,33.87-3.939c1.84,3.413,5.36,11.185,4.73,14.966-.79,4.726,8.66-21.267,3.93-25.205-3.78-3.15-4.2-4.464-5.51-3.151c2.63-4.463,3.47-9.924,1.58-11.814-2.37-2.363-39.57-7.279-48.84,14.965-3.94,9.452,1.58,24.417,4.73,28.356Z" stroke="#000"/><path d="M1309.98,221.022l-3.15-11.027c-6.83-2.626-18.59-11.185-17.33-37.02c2.62-.525,8.66-4.253,11.81-14.965c6.83,8.926,22.06,25.835,28.36,22.054s7.87,0,7.87,2.363l-7.87,9.452c-1.84,6.039-4.73,19.534-1.58,25.205c7.27.908,19.95,3.88,28.11,9.592c7.63-.647,10.49-7.229,12.85-10.38c2.36-3.15-6.3-12.602-4.73-12.602c1.58,0,4.73-7.089,4.73-11.027c0-3.151-8.93-12.34-13.39-16.541c1.31-.788,3.47-3.623,1.57-8.664-1.89-5.041-7.08-5.777-9.45-5.514-.26-4.201-1.73-12.445-5.51-11.815-4.73.788-11.82-3.938-14.18-7.876-2.36-3.939-13.39-1.576-14.96,0-1.26,1.26-8.41,1.575-11.82,1.575-4.99,1.313-15.44,5.986-17.33,14.178-6.04.262-17.33,4.096-14.17,17.328-4.73,7.352-11.35,23.787,0,30.719-1.05,3.769,1.89,13.171,22.05,20.619c4.73-2.289,10.66-4.338,18.12-5.654Z" fill="#ffe5a3"/><path d="M1273.74,240.713c-2.36.788-13.39,39.383-13.39,42.534c0,1.045,2.98,1.765,7.09,2.25c5.8.685,13.84.9,18.91.9.1,2.351-.09,4.718-.52,7.089l5.24,3.151v48.835c20.39-2.063,57.98-6.284,65.13-8.582c1.04-.335,1.44-.63,1.03-.87-3.15-1.891-3.41-40.696-3.15-59.862l6.31,10.239l1.26-.787l16.32-10.126l5.26-3.264-19.69-36.232c-.97-3.687-3.71-6.77-7.34-9.312-8.16-5.712-20.84-8.684-28.11-9.592-10.71,8.822-16.54,6.301-18.11,3.938-7.46,1.316-13.39,3.365-18.12,5.654-12.25,5.93-16.41,13.469-18.12,14.037Z" fill="#9b66a3"/><path d="M1291.07,345.472c-12.34,49.622-38.44,170.291-44.11,255.987h7.09h14.97h2.36l48.05-183.523v183.523h5.51h14.97h5.51c10.76-67.738,31.66-204.16,29.14-207.94-3.15-4.726-.49-22.677-18.36-56.629-7.15,2.298-44.74,6.519-65.13,8.582Z" fill="#26253d"/><path d="M1313.91,619.575c-12.6,1.891-17.32,8.14-18.11,11.028c7.61,3.15,27.41,7.876,45.68,1.575c0-2.626-.31-8.192-1.57-9.452-8.67,2.1-26,4.411-26-3.151Z" fill="#ff837a"/><path d="M1224.12,630.603c-3.94,7.876,48.84,3.15,44.9,1.575-1.34-.536-1.78-4.419-1.74-9.452-20.92,6.931-24.89.788-24.25-3.151-4.99,1.051-15.76,4.726-18.91,11.028Z" fill="#ff837a"/><path d="M1309.98,221.022c1.57,2.363,7.4,4.884,18.11-3.938-3.15-5.671-.26-19.166,1.58-25.205l7.87-9.452c0-2.363-1.57-6.144-7.87-2.363s-21.53-13.128-28.36-22.054c-3.15,10.712-9.19,14.44-11.81,14.965-1.26,25.835,10.5,34.394,17.33,37.02l3.15,11.027Z" fill="#fad2d2"/><path d="M1224.12,358.862c19.54-11.098,56.78-38.512,61.71-65.376.43-2.371.62-4.738.52-7.089-5.07,0-13.11-.215-18.91-.9-1.57,11.065-9.29,36.66-27.57,50.523h-20.47c.52,1.838,2.2,5.513,4.72,5.513s-5.77,4.726-10.24,7.089c.07,3.526,5.99,10.51,10.24,10.24Z" fill="#fad2d2"/><path d="M1377.97,275.484l-16.32,10.126c7.72,18.378,23.63,60.964,25.52,84.279l-3.15,18.904c4.41-3.781,6.03-2.626,6.3-1.576l3.93,11.027c4.73-1.837,13.87-6.301,12.61-9.451-1.58-3.939-6.3-22.055-8.67-21.267-2.36.788-9.19-77.865-20.22-92.042Z" fill="#fad2d2"/><path d="M1269.02,601.459h-14.97c1.26,13.233-6.82,17.591-11.02,18.116-.64,3.939,3.33,10.082,24.25,3.151.06-6.795.98-15.686,1.74-21.267Z" fill="#fad2d2"/><path d="M1324.94,601.459c1.58,5.251,1.58,16.226-11.03,18.116c0,7.562,17.33,5.251,26,3.151-1.26-1.26-.53-14.703,0-21.267h-14.97Z" fill="#fad2d2"/><ellipse rx="1.57531" ry="2.36296" transform="translate(1294.319946 183.214005)" fill="#00516a"/><path d="M1313.6,194.647c-.33,1.824-4.26,5.459-7.36,4.907-3.1-.553-5.35-2.48-5.03-4.305.33-1.824,2.42-.363,5.9-.945c3.1.553,6.81-1.481,6.49.343Z" fill="#fff"/><path d="M1313.6,194.647c-.33,1.824-4.26,5.459-7.36,4.907-3.1-.553-5.35-2.48-5.03-4.305.33-1.824,2.42-.363,5.9-.945c3.1.553,6.81-1.481,6.49.343Z" fill="#fff"/><path d="M1295.79,177.381c-.14-.706-1.95-.961-4.06-.569-2.1.392-3.7,1.281-3.57,1.987s1.79.109,3.89-.283c2.11-.392,3.87-.429,3.74-1.135Z" fill="#fff"/><path d="M1295.79,177.381c-.14-.706-1.95-.961-4.06-.569-2.1.392-3.7,1.281-3.57,1.987s1.79.109,3.89-.283c2.11-.392,3.87-.429,3.74-1.135Z" fill="#dfbe6b"/><path d="M1316.05,171.054c-.24-.679-2.02-.68-3.99-.002s-3.37,1.778-3.14,2.457c.24.678,1.74-.14,3.71-.818c1.96-.678,3.65-.959,3.42-1.637Z" fill="#fff"/><path d="M1316.05,171.054c-.24-.679-2.02-.68-3.99-.002s-3.37,1.778-3.14,2.457c.24.678,1.74-.14,3.71-.818c1.96-.678,3.65-.959,3.42-1.637Z" fill="#dfbe6b"/><ellipse rx="1.57531" ry="2.36296" transform="translate(1313.22998 178.488007)" fill="#00516a"/><path d="M752.365,568.191c15.753-14.703,49.622-50.095,59.074-74.04c2.626,19.692,7.247,63.17,4.726,79.554.988.134,2.04.267,3.151.397c20.419,2.393,60.73,3.835,91.368-5.397c3.559-1.072,6.988-2.289,10.239-3.665-6.563-33.606-20.321-101.134-22.842-102.395c11.29,2.626,39.068,12.918,59.862,33.082l2.647-2.648l8.38-8.379l4.726-4.726c-27.305-28.618-90.738-81.286-126.025-63.013-3.413,4.726-12.444,12.288-21.266,4.726-8.139-.525-28.986,13.233-47.259,72.464L734.249,551.65l3.938,3.596l9.452,8.63l4.726,4.315Z" fill="#ff837a"/><path d="M901.232,765.893c-18.904-62.383-1.575-157.451,9.452-197.188-30.638,9.232-70.949,7.79-91.368,5.397l-26.78,83.094c-2.363,7.089,0,79.291,2.363,117.361h1.575h20.479h5.513c-6.301-123.505,20.48-162.782,34.657-166.983-7.561,68.683,6.827,138.89,14.966,165.407l7.876-1.916l19.692-4.789l1.575-.383Z"/><path d="M879.965,771.065l4.726,9.005l16.541-4.726c-3.781-5.041-2.626-8.146-1.575-9.068l-19.692,4.789Z" fill="#ffe4c5"/><path d="M817.741,786.372l-.788-11.815h-20.479l4.726,11.815c5.251.262,15.91.63,16.541,0Z" fill="#ffe4c5"/><path d="M817.741,808.426c6.931-2.521,2.888-15.753,0-22.054-.631.63-11.29.262-16.541,0-22.685,8.191-27.306,18.116-26.78,22.054c11.552,1.05,36.389,2.52,43.321,0Z" fill="#fff"/><path d="M884.691,780.07c-8.927,6.827-25.677,21.582-21.266,25.993c4.41,4.411,31.768-5.514,44.896-11.027-.788-4.464-3.308-14.651-7.089-19.692l-16.541,4.726Z" fill="#fff"/><path d="M738.187,555.246c-5.513,3.002-16.698,9.479-17.328,11.37-.63,1.89,4.989,1.313,7.877.788l-5.514,14.177c2.1,1.313,7.561,3.308,12.602.788c5.041-2.521,9.977-13.379,11.815-18.493l-9.452-8.63Z" fill="#ffe4c5"/><path d="M960.59,493.079c.693,5.609,2.394,16.826,3.654,16.826c1.261,0,2.626-4.201,3.151-6.302c4.201,2.363,12.76,7.719,13.39,10.24.788,3.151,9.452-13.39,5.514-13.39-3.939,0-12.603-20.479-17.329-15.753l-8.38,8.379Z" fill="#ffe4c5"/><path d="M826.405,421.687c8.822,7.562,17.853,0,21.266-4.726-1.635.788-11.027-25.992-9.451-24.417c1.26,1.26,4.2-4.201,5.513-7.089c0-1.313-.63-3.938-3.15-3.938-2.521,0-5.251,2.625-6.302,3.938-.805-2.415-1.764-4.3-2.786-5.757-1.887-2.64-4.634-4.843-8.241-4.482l-2.363-4.726c-3.938,3.413-11.972,10.082-12.602,9.452-.63-.631-.263-5.514,0-7.877l-13.807,15.779c1.352,4.506,1.647,6.032,3.164,9.426c9.088,20.335,20.433,21.941,25.608,19.691l3.151,4.726Z" fill="#ffe4c5"/><ellipse rx="1.57531" ry="2.36296" transform="translate(804.351013 393.330994)" fill="#00398e"/><path d="M823.546,403.632c.041.339-.051.882-.31,1.552-.253.655-.645,1.381-1.139,2.066-1.007,1.394-2.353,2.509-3.709,2.674-1.491.182-2.86-.013-3.863-.45-1.015-.441-1.567-1.082-1.649-1.754-.041-.339.041-.451.129-.526.143-.122.411-.226.905-.343.167-.04.35-.079.549-.121.899-.193,2.109-.451,3.429-1.098c1.44-.197,2.833-.906,3.894-1.445.147-.075.288-.147.421-.213.287-.143.537-.262.756-.348.223-.089.381-.131.488-.14.031-.003.051-.002.065-.001.009.021.024.065.034.147Zm-.015-.144c0,0-.001,0-.003-.001.002.001.003.001.003.001Zm-.028-.02c0,0,0,0,0,0v0Z" fill="#fff"/><path d="M823.546,403.632c.041.339-.051.882-.31,1.552-.253.655-.645,1.381-1.139,2.066-1.007,1.394-2.353,2.509-3.709,2.674-1.491.182-2.86-.013-3.863-.45-1.015-.441-1.567-1.082-1.649-1.754-.041-.339.041-.451.129-.526.143-.122.411-.226.905-.343.167-.04.35-.079.549-.121.899-.193,2.109-.451,3.429-1.098c1.44-.197,2.833-.906,3.894-1.445.147-.075.288-.147.421-.213.287-.143.537-.262.756-.348.223-.089.381-.131.488-.14.031-.003.051-.002.065-.001.009.021.024.065.034.147Zm-.015-.144c0,0-.001,0-.003-.001.002.001.003.001.003.001Zm-.028-.02c0,0,0,0,0,0v0Z" fill="#fff"/><path d="M823.546,403.632c.041.339-.051.882-.31,1.552-.253.655-.645,1.381-1.139,2.066-1.007,1.394-2.353,2.509-3.709,2.674-1.491.182-2.86-.013-3.863-.45-1.015-.441-1.567-1.082-1.649-1.754-.041-.339.041-.451.129-.526.143-.122.411-.226.905-.343.167-.04.35-.079.549-.121.899-.193,2.109-.451,3.429-1.098c1.44-.197,2.833-.906,3.894-1.445.147-.075.288-.147.421-.213.287-.143.537-.262.756-.348.223-.089.381-.131.488-.14.031-.003.051-.002.065-.001.009.021.024.065.034.147Zm-.015-.144c0,0-.001,0-.003-.001.002.001.003.001.003.001Zm-.028-.02c0,0,0,0,0,0v0Z" fill="none" stroke="#f5f5f5"/><path d="M805.591,386.472c-.315-.645-2.131-.407-4.056.533-1.925.939-3.23,2.224-2.915,2.869.314.645,1.75-.372,3.675-1.311c1.926-.94,3.611-1.446,3.296-2.091Z" fill="#fff"/><path d="M805.591,386.472c-.315-.645-2.131-.407-4.056.533-1.925.939-3.23,2.224-2.915,2.869.314.645,1.75-.372,3.675-1.311c1.926-.94,3.611-1.446,3.296-2.091Z" fill="#867851"/><path d="M824.499,381.171c-.234-.679-2.018-.68-3.985-.002s-3.371,1.778-3.137,2.457c.234.678,1.735-.14,3.702-.818s3.654-.958,3.42-1.637Z" fill="#fff"/><path d="M824.499,381.171c-.234-.679-2.018-.68-3.985-.002s-3.371,1.778-3.137,2.457c.234.678,1.735-.14,3.702-.818s3.654-.958,3.42-1.637Z" fill="#867851"/><ellipse rx="1.57531" ry="2.36296" transform="translate(823.255005 388.605011)" fill="#00398e"/><path d="M808.24,372.402c-.525,2.625-1.26,7.876,0,7.876s9.452-6.301,13.39-9.452l1.575,4.726c1.838-.787,6.617.158,11.028,10.24c1.312-1.575,4.568-4.569,7.088-3.938c2.521.63,1.051,6.038,0,8.664l-3.15,2.363.787,3.938l5.514-6.301c2.1-5.514,5.199-19.219.788-29.931-5.514-13.39-3.939-8.664-18.904-16.541-14.965-7.876-19.691,7.089-29.143,5.514-9.452-1.576-19.692,21.266-16.541,25.992c1.575-2.363,4.883-6.931,5.514-6.301-2.363,4.726-6.459,14.178-3.939,14.178.525-1.05,2.048-3.151,3.939-3.151c2.363,0-1.576,17.329,2.363,16.541c3.15-.63,14.44-16.541,19.691-24.417Z" fill="#71655c"/><path d="M664.887,924.605v133.115v51.39h709.673v-475.937h-170.92v80.341h-88.21-70.89v96.094h-90.584-114.998v114.997h-89.792-84.279Z" fill="#628dd2"/><path d="M1203.64,713.514v-80.341h-88.21v80.341h88.21Z" fill="#437dc3"/><path d="M1044.54,809.608v-96.094h-90.584v96.094h90.584Z" fill="#437dc3"/><path d="M838.958,924.605v-114.997h-89.792v114.997h89.792Z" fill="#437dc3"/><path d="M664.887,924.605h-92.156v133.115l92.156,51.39v-51.39-133.115Z" fill="#437dc3"/><g id="eeE9uCrQ2Di148_tr" transform="translate(1384.289722,1101.48992) rotate(0)"><g transform="translate(-1384.289699,-1101.489902)"><path d="M1689.24,548.117c-144.19,72.514-489.39,260-316.45,558.383l316.45-558.383Z" fill="#719ff0"/><path d="M1372.79,1106.5c122.49-16.61,344.04-128.735,316.45-558.383L1372.79,1106.5Z" fill="#85b5fa"/><path d="M1686.38,548.799l-154.8,275.056M1445.61,977.32l36.54-65.217m0,0l107.41-57.806m-107.41,57.806l49.43-88.248m0,0l-26.86-135.931" fill="none" stroke="#000"/></g></g><g id="eeE9uCrQ2Di152_tr" transform="translate(1365.721323,1185.84336) rotate(0)"><g transform="translate(-1365.721318,-1185.843352)"><path d="M1283.96,705.939c-50.77,112.239-165.67,389.201,80.19,483.281l-80.19-483.281Z" fill="#719ff0"/><path d="M1364.15,1189.22c64.73-68.65,142.4-241.524-80.19-483.281l80.19,483.281Z" fill="#85b5fa"/><path d="M1282.59,707.717l40.14,237.543m22.64,132.34l-9.62-56.24m0,0l36-85.86m-36,85.86l-13.02-76.1m0,0l-81.18-67.784" fill="none" stroke="#000"/></g></g><g id="eeE9uCrQ2Di156_tr" transform="translate(1365.38,1180.948981) rotate(0)"><g transform="translate(-1365.379986,-1180.94897)"><path d="M1745.7,804.422c-133.17,27.123-455.04,103.335-380.32,383.958l190.16-191.979L1745.7,804.422Z" fill="#354dce"/><path d="M1365.38,1188.38c103.2,13.52,307.97-28.73,380.32-383.958L1555.54,996.401L1365.38,1188.38Z" fill="#85b5fa"/><path d="M1365.38,1188.38c103.2,13.52,307.97-28.73,380.32-383.958M1365.38,1188.38c-74.72-280.623,247.15-356.835,380.32-383.958M1365.38,1188.38l190.16-191.979M1745.7,804.422L1555.54,996.401m0,0l87.61-11.933" fill="none" stroke="#354dce"/></g></g><g id="eeE9uCrQ2Di160_tr" transform="translate(1206.89,1181.422608) rotate(0)"><g transform="translate(-1206.889995,-1181.422601)"><path d="M1260.85,1009.77c1.11-2.77,9.99-18.348,13.84-5.54c3.85,12.81-14.94,8.31-13.84,5.54Z" fill="#3649cf" stroke="#3249d5"/><path d="M1249.59,1026.29c2.6-1.46,19.29-8.01,14.25,4.38-5.05,12.38-16.85-2.92-14.25-4.38Z" fill="#3649cf"/><path d="M1241.54,1046.29c3.68-2.06,27.27-11.31,20.14,6.19s-23.81-4.12-20.14-6.19Z" fill="#3649cf"/><path d="M1232.68,1071.54c5.13-2.88,38.05-15.79,28.1,8.64-9.95,24.42-33.23-5.76-28.1-8.64Z" fill="#3649cf"/><path d="M1228.54,1072.23c-.35-5.21-7.62-36.85-23.92-20.6-16.29,16.25,24.27,25.82,23.92,20.6Z" fill="#3649cf"/><path d="M1221.63,1097.39c-1.92-5.64-19.26-38.35-32.42-15.65-13.15,22.7,34.34,21.28,32.42,15.65Z" fill="#3649cf"/><path d="M1213.9,1132.17c-2.63-6.34-24.99-42.66-38.43-15.59s41.05,21.92,38.43,15.59Z" fill="#3649cf"/><path d="M1205.04,1166.49c-2.63-6.34-24.98-42.65-38.43-15.59-13.44,27.07,41.05,21.93,38.43,15.59Z" fill="#3649cf"/><path d="M1209.5,1167.9c4.82-5.09,40.11-31.76,45.3-1.56c5.19,30.21-50.13,6.65-45.3,1.56Z" fill="#3649cf"/><path d="M1217.6,1133.24c4.76-4.92,38.73-30.38,40.99-.3c2.26,30.09-45.75,5.21-40.99.3Z" fill="#3649cf"/><path d="M1223.6,1099.51c4.52-3.25,35.52-18.76,33.34,5.68-2.18,24.43-37.86-2.42-33.34-5.68Z" fill="#3649cf"/><path d="M1241.49,1011.22c2.14,2.66,12.78,19.7-1.77,14.54-14.55-5.17-.36-17.19,1.77-14.54Z" fill="#3649cf"/><path d="M1231.01,1028.37c2.71,3.36,16.19,24.97-2.25,18.42-18.43-6.54-.46-21.79,2.25-18.42Z" fill="#3649cf"/><path d="M1206.89,1172.84c22.96-122.99,45.54-159.59,53.96-162.52" fill="none" stroke="#3645cf"/></g></g><g id="eeE9uCrQ2Di175_tr" transform="translate(1172.532956,1182.513428) rotate(0)"><g transform="translate(-1172.532955,-1182.513428)"><path d="M1173.43,979.554c.23-3.523,4.43-24.213,13.05-10.876c8.61,13.336-13.29,14.399-13.05,10.876Z" transform="translate(-.277045 0)" fill="#0e0857" stroke="#0f0759"/><path d="M1166.98,1002.11c2.3-2.527,18.09-15.498,16.94.29-1.16,15.79-19.25,2.23-16.94-.29Z" transform="translate(-.277045 0)" fill="#0e0857"/><path d="M1165.23,1027.57c3.25-3.57,25.56-21.9,23.93.41s-27.19,3.15-23.93-.41Z" transform="translate(-.277045 0)" fill="#0e0857"/><path d="M1164.41,1059.28c4.55-4.97,35.68-30.55,33.4.58-2.27,31.13-37.95,4.4-33.4-.58Z" transform="translate(-.277045 0)" fill="#0e0857"/><path d="M1160.18,1061.44c-2.19-5.83-21.07-39.51-33.05-15.61s35.24,21.43,33.05,15.61Z" transform="translate(-.277045 0)" fill="#0e0857"/><path d="M1161.43,1092.4c-4.03-5.8-34.16-37.37-40.51-7.15s44.55,12.94,40.51,7.15Z" transform="translate(-.277045 0)" fill="#0e0857"/><path d="M1165.16,1134.6c-5.05-6.36-41.86-40.39-47-5.09-5.14,35.29,52.04,11.46,47,5.09Z" transform="translate(-.277045 0)" fill="#0e0857"/><path d="M1167.5,1176.66c-5.04-6.36-41.85-40.39-46.99-5.1-5.14,35.3,52.03,11.46,46.99,5.1Z" transform="translate(-.277045-.988281)" fill="#0e0857"/><path d="M1172.81,1176.8c3.45-7.4,32.38-49.45,48.49-16.72s-51.94,24.12-48.49,16.72Z" transform="translate(-.277045-.988281)" fill="#0e0857"/><path d="M1169.53,1134.6c3.45-7.17,31.35-47.41,44.25-13.85s-47.69,21.03-44.25,13.85Z" transform="translate(-.277045-.988281)" fill="#0e0857"/><path d="M1164.31,1094.17c3.76-5.2,31.91-33.11,38.05-4.53c6.13,28.58-41.81,9.73-38.05,4.53Z" transform="translate(-.277045 0)" fill="#0e0857"/><path d="M1152.98,987.597c3.24,2.323,20.67,18.253,3.14,17.163-17.54-1.09-6.37-19.485-3.14-17.163Z" transform="translate(-.277045 0)" fill="#0e0857"/><path d="M1147.6,1010.61c4.1,2.94,26.19,23.13,3.97,21.75-22.22-1.39-8.07-24.7-3.97-21.75Z" transform="translate(-.277045 0)" fill="#0e0857"/><path d="M1171.71,1183.29c-17.9-147.81-6.19-196.989,1.91-203.103" transform="translate(-.277045 0)" fill="none" stroke="#0b084d"/></g></g><g id="eeE9uCrQ2Di190_tr" transform="translate(559.238,1114.608398) rotate(0)"><g transform="translate(-559.238,-1114.608398)"><path d="M511.147,953.056c-.986-2.769-8.905-18.345-12.335-5.536-3.429,12.809,13.321,8.306,12.335,5.536Z" fill="#2637b0" stroke="#3249d5"/><path d="M521.187,969.576c-2.318-1.461-17.196-8.008-12.699,4.379c4.497,12.386,15.016-2.918,12.699-4.379Z" fill="#2637b0"/><path d="M528.356,989.581c-3.275-2.065-24.299-11.316-17.945,6.187c6.355,17.502,21.219-4.123,17.945-6.187Z" fill="#2637b0"/><path d="M536.255,1014.83c-4.57-2.88-33.909-15.791-25.042,8.63c8.868,24.43,29.611-5.75,25.042-8.63Z" fill="#2637b0"/><path d="M539.942,1015.52c.311-5.21,6.798-36.852,21.319-20.603c14.521,16.253-21.63,25.823-21.319,20.603Z" fill="#2637b0"/><path d="M546.106,1040.68c1.711-5.64,17.165-38.35,28.89-15.65s-30.601,21.28-28.89,15.65Z" fill="#2637b0"/><path d="M552.997,1075.46c2.339-6.34,22.264-42.66,34.245-15.59s-36.585,21.92-34.245,15.59Z" fill="#2637b0"/><path d="M560.891,1109.78c2.339-6.34,22.265-42.65,34.245-15.59c11.981,27.07-36.585,21.93-34.245,15.59Z" fill="#2637b0"/><path d="M556.918,1111.19c-4.299-5.09-35.755-31.76-40.38-1.56-4.625,30.21,44.68,6.65,40.38,1.56Z" fill="#2637b0"/><path d="M549.696,1076.53c-4.242-4.92-34.516-30.38-36.53-.3-2.014,30.09,40.771,5.21,36.53.3Z" fill="#2637b0"/><path d="M544.347,1042.8c-4.031-3.25-31.657-18.76-29.715,5.67c1.941,24.44,33.745-2.41,29.715-5.67Z" fill="#2637b0"/><path d="M528.401,954.51c-1.905,2.655-11.384,19.701,1.581,14.537c12.964-5.164.324-17.192-1.581-14.537Z" fill="#2637b0"/><path d="M537.744,971.657c-2.415,3.365-14.428,24.969,2.003,18.424s.411-21.79-2.003-18.424Z" fill="#2637b0"/><path d="M559.238,1116.13c-20.459-122.993-40.586-159.593-48.092-162.519" fill="none" stroke="#3645cf"/></g></g></svg>
