<svg width="1649" height="1252" viewBox="0 0 1649 1252" fill="none" xmlns="http://www.w3.org/2000/svg">
<ellipse cx="803.408" cy="813.647" rx="642.726" ry="300.096" fill="#D9E6FC"/>
<path d="M1414.47 212.484C1414.09 198.986 1421.12 119.047 1453.69 167.892C1486.26 216.737 1414.85 225.981 1414.47 212.484Z" fill="#BAD4FE"/>
<path d="M1388.89 274.036C1398.67 267.594 1461.11 239.25 1440.9 295.617C1420.69 351.984 1379.11 280.478 1388.89 274.036Z" fill="#BAD4FE"/>
<path d="M1356.64 365.082C1370.46 355.978 1458.69 315.926 1430.14 395.578C1401.58 475.23 1342.82 374.186 1356.64 365.082Z" fill="#BAD4FE"/>
<path d="M1320.69 480.129C1339.98 467.425 1463.11 411.532 1423.26 522.686C1383.41 633.841 1301.4 492.833 1320.69 480.129Z" fill="#BAD4FE"/>
<path d="M1305.34 482.888C1304.72 458.915 1281.92 312.834 1219.72 385.781C1157.51 458.728 1305.95 506.861 1305.34 482.888Z" fill="#BAD4FE"/>
<path d="M1276.59 597.692C1270.22 571.604 1210.44 419.612 1158.98 522.492C1107.53 625.372 1282.95 623.781 1276.59 597.692Z" fill="#BAD4FE"/>
<path d="M1243.59 756.628C1234.72 727.247 1156.89 558.163 1103.81 681.086C1050.73 804.008 1252.46 786.009 1243.59 756.628Z" fill="#BAD4FE"/>
<path d="M1206.5 913.352C1197.63 883.971 1119.8 714.887 1066.72 837.81C1013.64 960.733 1215.37 942.733 1206.5 913.352Z" fill="#BAD4FE"/>
<path d="M1222.77 920.295C1241.22 897.402 1374.88 778.563 1390.15 917.823C1405.42 1057.08 1204.31 943.188 1222.77 920.295Z" fill="#BAD4FE"/>
<path d="M1257.12 761.926C1275.31 739.84 1403.92 626.396 1408.4 764.806C1412.87 903.217 1238.93 784.012 1257.12 761.926Z" fill="#BAD4FE"/>
<path d="M1283.6 607.668C1300.7 593.194 1417.07 525.165 1405.9 637.152C1394.72 749.139 1266.49 622.142 1283.6 607.668Z" fill="#BAD4FE"/>
<path d="M1360.95 204.007C1368.5 216.423 1405.55 295.807 1352.54 270.588C1299.53 245.37 1353.41 191.591 1360.95 204.007Z" fill="#BAD4FE"/>
<path d="M1320.07 281.675C1329.64 297.411 1376.6 398.023 1309.41 366.061C1242.22 334.099 1310.51 265.939 1320.07 281.675Z" fill="#BAD4FE"/>
<path d="M1212.53 942.703C1313.02 380.21 1401.05 214.446 1432.51 201.876" stroke="#B7D1FC" stroke-width="3"/>
<path d="M157.152 399.34C155.56 388.212 137.713 323.834 115.135 369.228C92.5573 414.623 158.745 410.467 157.152 399.34Z" fill="#BAD4FE"/>
<path d="M189.216 445.595C179.408 441.921 118.628 428.946 145.067 471.834C171.506 514.723 199.025 449.27 189.216 445.595Z" fill="#BAD4FE"/>
<path d="M231.564 514.935C217.704 509.743 131.817 491.408 169.177 552.013C206.538 612.619 245.424 520.127 231.564 514.935Z" fill="#BAD4FE"/>
<path d="M280.713 603.343C261.371 596.098 141.515 570.511 193.652 655.085C245.788 739.66 300.055 610.588 280.713 603.343Z" fill="#BAD4FE"/>
<path d="M295.056 603.081C292.18 583.326 291.936 459.825 358.899 509.404C425.862 558.984 297.932 622.836 295.056 603.081Z" fill="#BAD4FE"/>
<path d="M337.632 692.472C339.669 670.04 372.174 535.615 433.667 611.499C495.16 687.383 335.595 714.905 337.632 692.472Z" fill="#BAD4FE"/>
<path d="M390.394 817.345C394.239 791.801 440.687 640.398 506.526 732.446C572.365 824.495 386.548 842.889 390.394 817.345Z" fill="#BAD4FE"/>
<path d="M446.557 939.73C450.403 914.186 496.851 762.783 562.69 854.832C628.529 946.881 442.712 965.275 446.557 939.73Z" fill="#BAD4FE"/>
<path d="M432.78 948.095C412.734 932.36 274.287 856.9 280.389 973.573C286.49 1090.25 452.826 963.829 432.78 948.095Z" fill="#BAD4FE"/>
<path d="M378.864 823.911C359.173 808.795 226.087 736.929 241.871 851.131C257.655 965.334 398.555 839.028 378.864 823.911Z" fill="#BAD4FE"/>
<path d="M332.695 701.803C315.081 692.748 199.626 656.101 225.838 746.07C252.049 836.039 350.308 710.857 332.695 701.803Z" fill="#BAD4FE"/>
<path d="M204.546 383.597C199.473 395.015 177.199 466.182 221.734 436.797C266.269 407.412 209.619 372.178 204.546 383.597Z" fill="#BAD4FE"/>
<path d="M252.817 440.551C246.387 455.022 218.156 545.221 274.601 507.978C331.046 470.734 259.247 426.079 252.817 440.551Z" fill="#BAD4FE"/>
<path d="M445.292 964.783C273.348 520.17 169.619 398.744 139.248 393.607" stroke="#B7D1FC" stroke-width="3"/>
<path d="M585.124 152.969C587.653 142.016 594.24 75.5353 556.803 109.724C519.366 143.914 582.594 163.921 585.124 152.969Z" fill="#A6C5FA"/>
<path d="M598.336 207.678C590.514 200.712 538.512 166.679 547.693 216.218C556.874 265.757 606.158 214.644 598.336 207.678Z" fill="#A6C5FA"/>
<path d="M612.81 287.627C601.757 277.784 528.273 229.692 541.247 299.695C554.221 369.699 623.863 297.471 612.81 287.627Z" fill="#A6C5FA"/>
<path d="M626.746 387.814C611.321 374.077 508.774 306.965 526.879 404.655C544.985 502.344 642.17 401.55 626.746 387.814Z" fill="#A6C5FA"/>
<path d="M640.217 392.745C644.663 373.283 689 258.015 733.561 328.417C778.122 398.819 635.771 412.206 640.217 392.745Z" fill="#A6C5FA"/>
<path d="M647.668 491.477C657.662 471.291 736.484 357.651 766.452 450.613C796.419 543.574 637.674 511.663 647.668 491.477Z" fill="#A6C5FA"/>
<path d="M651.815 626.975C664.619 604.539 762.571 480.098 790.759 589.702C818.947 699.307 639.012 649.411 651.815 626.975Z" fill="#A6C5FA"/>
<path d="M660.033 761.382C672.837 738.946 770.789 614.504 798.976 724.109C827.164 833.713 647.229 783.817 660.033 761.382Z" fill="#A6C5FA"/>
<path d="M644.166 764.21C631.148 742.302 529.259 621.969 492.848 732.983C456.437 843.997 657.183 786.119 644.166 764.21Z" fill="#A6C5FA"/>
<path d="M638.693 628.939C625.784 607.735 527.596 492.687 501.108 604.891C474.619 717.095 651.603 650.142 638.693 628.939Z" fill="#A6C5FA"/>
<path d="M639.697 498.397C626.537 483.597 532.085 407.757 524.066 501.123C516.046 594.489 652.856 513.198 639.697 498.397Z" fill="#A6C5FA"/>
<path d="M635.005 155.388C626.154 164.206 579.699 222.541 631.838 211.206C683.976 199.871 643.856 146.57 635.005 155.388Z" fill="#A6C5FA"/>
<path d="M659.472 225.923C648.254 237.1 589.377 311.034 655.458 296.668C721.539 282.302 670.691 214.747 659.472 225.923Z" fill="#A6C5FA"/>
<path d="M649.813 784.289C649.889 307.587 596.966 156.912 570.494 141.162" stroke="#B7D1FC" stroke-width="3"/>
<path d="M100.798 576.344C117.466 717.612 168.867 1060.01 468.103 1006.56L100.798 576.344Z" fill="#719FF0"/>
<path d="M468.103 1006.56C491.213 900.093 465.018 682.818 100.798 576.344L468.103 1006.56Z" fill="#85B5FA"/>
<path d="M28.3556 807.863C70.101 900.806 178.798 1123.71 371.773 1022.89L28.3556 807.863Z" fill="#719FF0"/>
<path d="M371.773 1022.89C364.684 945.177 300.096 802.348 28.3556 807.863L371.773 1022.89Z" fill="#85B5FA"/>
<path d="M102.395 576.925L305.963 818.125M419.683 952.325L371.356 895.295M371.356 895.295L354.756 774.451M371.356 895.295L305.963 818.125M305.963 818.125L169.22 795.762" stroke="black"/>
<path d="M267.717 1007.06C265.893 1005.54 253.982 997.945 256.855 1008.27C259.727 1018.6 269.541 1008.59 267.717 1007.06Z" fill="#5863FF"/>
<path d="M281.492 1014.44C279.279 1014.38 266.23 1015.93 274.448 1022.71C282.667 1029.48 283.706 1014.51 281.492 1014.44Z" fill="#5863FF"/>
<path d="M294.7 1025.43C291.572 1025.33 273.133 1027.53 284.746 1037.1C296.359 1046.68 297.828 1025.52 294.7 1025.43Z" fill="#5863FF"/>
<path d="M310.57 1039.76C306.204 1039.63 280.473 1042.69 296.679 1056.06C312.885 1069.43 314.935 1039.89 310.57 1039.76Z" fill="#5863FF"/>
<path d="M313.422 1038.73C311.498 1034.98 303.019 1010.28 319.804 1015.63C336.588 1020.98 315.346 1042.49 313.422 1038.73Z" fill="#5863FF"/>
<path d="M328.044 1053.71C326.92 1049.09 324.249 1019.97 341.735 1030.96C359.22 1041.94 329.168 1058.34 328.044 1053.71Z" fill="#5863FF"/>
<path d="M347.126 1075.1C346.152 1069.73 345.112 1036.26 364.571 1050.19C384.029 1064.11 348.1 1080.48 347.126 1075.1Z" fill="#5863FF"/>
<path d="M366.719 1095.76C365.745 1090.39 364.705 1056.92 384.164 1070.84C403.622 1084.77 367.693 1101.13 366.719 1095.76Z" fill="#5863FF"/>
<path d="M364.532 1098.37C359.447 1096.59 326.591 1090.94 335.776 1113.87C344.961 1136.81 369.618 1100.15 364.532 1098.37Z" fill="#5863FF"/>
<path d="M345.267 1077.2C340.294 1075.52 308.756 1070.22 319.71 1092C330.664 1113.78 350.239 1078.88 345.267 1077.2Z" fill="#5863FF"/>
<path d="M327.693 1055.92C323.55 1055.31 297.944 1055.86 309.331 1072.07C320.717 1088.29 331.836 1056.53 327.693 1055.92Z" fill="#5863FF"/>
<path d="M280.328 1000.99C280.092 1003.62 280.493 1019.38 287.399 1010.46C294.305 1001.54 280.564 998.357 280.328 1000.99Z" fill="#5863FF"/>
<path d="M293.876 1009.09C293.577 1012.43 294.084 1032.4 302.837 1021.1C311.591 1009.79 294.175 1005.76 293.876 1009.09Z" fill="#5863FF"/>
<path d="M368.175 1100.86C303.419 1023.62 274.373 1006.4 267.944 1007.45" stroke="#3645CF"/>
<path d="M379.35 657.027C385.429 622.95 404.882 554.796 434.061 554.796C450.64 551.979 480.98 563.244 469.706 630.835L379.35 657.027Z" fill="black"/>
<path d="M301.428 932.459L304.743 940.063C374.376 896.974 386.81 879.231 392.613 859.799C397.255 844.253 416.1 810.514 424.943 795.588C451.469 796.939 466.943 804.6 471.364 808.261C479.986 803.529 472.193 864.868 467.22 896.129L476.338 897.262L488.773 898.808L501.207 900.353C506.512 872.641 513.365 824.595 516.128 804.036C523.423 791.87 479.378 764.045 456.443 751.653C431.906 761.116 398.692 755.596 385.152 751.653C383.163 754.357 366.086 809.669 357.797 836.987C356.968 873.317 315.52 902.325 293.967 913.871L295.662 918.096L301.428 932.459Z" fill="#0B004C"/>
<path d="M385.152 751.653C398.692 755.596 431.906 761.116 456.443 751.653C454.454 745.57 464.456 718.703 469.706 706.03C488.275 704.678 485.733 680.12 482.141 668.01C523.92 665.982 558.129 613.656 570.011 587.746L552.602 577.607C518.118 631.004 485.733 636.468 473.851 632.525C471.862 631.173 459.759 630.835 453.956 630.835C449.977 636.918 439.588 634.496 434.89 632.525C389.132 625.766 334.033 705.185 312.204 745.739L332.928 754.188C352.422 716.743 394.297 684.827 399.664 680.322C399.813 680.065 399.949 679.902 400.074 679.838C400.39 679.677 400.231 679.847 399.664 680.322C396.644 685.552 388.84 729.374 385.152 751.653Z" fill="#080FC3"/>
<path d="M469.706 918.096C463.904 926.545 513.641 928.235 516.957 924.01C520.273 919.786 499.549 910.492 497.891 911.337C498.533 914.435 494.485 918.772 473.156 911.337C472.247 913.715 471.111 916.052 469.706 918.096Z" fill="black"/>
<path d="M278.216 927.389C259.151 923.165 275.177 955.552 286.506 973.013C290.651 973.013 292.309 948.512 290.651 951.891C286.935 959.466 279.322 937.247 278.216 927.389Z" fill="black"/>
<path d="M278.216 927.389C279.322 937.247 286.935 959.466 290.651 951.891C289.269 947.667 289.49 937.866 301.428 932.459L295.662 918.096L278.216 927.389Z" fill="#FFE5C7"/>
<path d="M488.773 898.808L476.338 897.262C476.145 900.142 475.254 905.852 473.156 911.337C494.485 918.772 498.533 914.435 497.891 911.337C496.233 912.182 487.944 905.711 488.773 898.808Z" fill="#FFE5C7"/>
<path d="M555.089 579.297C558.129 572.256 564.374 558.175 565.037 558.175C565.866 558.175 567.524 561.554 565.866 564.934C564.539 567.638 575.261 560.991 580.787 557.33C586.313 561.554 591.563 573.214 568.353 586.056L555.089 579.297Z" fill="#FFE5C7"/>
<path d="M434.89 631.68C434.89 626.047 432.901 612.924 424.943 605.489C419.416 603.517 411.348 598.898 423.285 596.195C425.274 596.871 426.324 593.66 426.601 591.97L440.693 569.158C447.048 570.003 460.422 574.397 463.075 585.211C466.391 587.464 470.701 592.815 461.417 596.195C462.798 602.672 462.909 615.965 452.298 617.317L453.956 630.835C447.988 637.904 438.759 634.344 434.89 631.68Z" fill="#FFE5C7"/>
<path d="M313.033 746.584C309.164 752.499 301.759 764.665 303.085 766.017C304.743 767.706 306.401 782.07 319.665 766.862C320.77 768.833 323.312 772.607 324.638 771.931C326.296 771.086 327.125 771.931 327.125 770.241C327.125 768.551 326.296 754.188 330.441 754.188L313.033 746.584Z" fill="#FFE5C7"/>
<ellipse cx="437.377" cy="593.66" rx="1.65792" ry="2.53466" fill="black"/>
<path d="M454.009 605.59C454.175 606.979 452.467 608.335 450.195 608.617C447.923 608.899 445.946 608.002 445.78 606.612C445.614 605.223 447.522 605.544 449.794 605.262C452.066 604.98 453.842 604.2 454.009 605.59Z" fill="white"/>
<path d="M454.009 605.59C454.175 606.979 452.467 608.335 450.195 608.617C447.923 608.899 445.946 608.002 445.78 606.612C445.614 605.223 447.522 605.544 449.794 605.262C452.066 604.98 453.842 604.2 454.009 605.59Z" fill="white"/>
<path d="M438.314 587.309C437.983 586.617 436.525 586.647 435.059 587.377C433.592 588.106 432.672 589.259 433.003 589.951C433.335 590.643 434.392 589.777 435.859 589.048C437.326 588.318 438.646 588.001 438.314 587.309Z" fill="white"/>
<path d="M438.314 587.309C437.983 586.617 436.525 586.647 435.059 587.377C433.592 588.106 432.672 589.259 433.003 589.951C433.335 590.643 434.392 589.777 435.859 589.048C437.326 588.318 438.646 588.001 438.314 587.309Z" fill="black"/>
<path d="M458.224 586.007C458.255 585.238 456.959 584.558 455.328 584.49C453.698 584.422 452.35 584.99 452.319 585.759C452.288 586.529 453.622 586.279 455.253 586.348C456.884 586.416 458.193 586.777 458.224 586.007Z" fill="white"/>
<path d="M458.224 586.007C458.255 585.238 456.959 584.558 455.328 584.49C453.698 584.422 452.35 584.99 452.319 585.759C452.288 586.529 453.622 586.279 455.253 586.348C456.884 586.416 458.193 586.777 458.224 586.007Z" fill="black"/>
<ellipse cx="455.614" cy="590.28" rx="1.65792" ry="2.53466" fill="black"/>
<path d="M921.5 353.983C927.013 356.608 938.828 359.969 941.979 352.408V342.956C950.38 339.28 963.876 324.682 950.643 295.696C944.342 297.009 928.589 299.477 915.986 298.847C917.561 304.886 920.24 317.436 918.349 319.326C916.459 321.216 913.098 318.013 911.26 316.963C909.947 318.538 909.37 323.264 917.561 329.566C919.137 329.566 922.13 334.449 921.5 353.983Z" fill="#FFE3C1"/>
<path d="M830.92 512.302C837.483 505.213 850.611 490.405 850.611 487.884L830.92 480.852C830.394 481.358 826.981 484.576 817.529 493.398C808.078 502.22 822.518 509.676 830.92 512.302Z" fill="#FFE3C1"/>
<path d="M1051.46 346.106C1052.09 347.366 1045.42 359.759 1042.01 365.798L1055.4 373.449C1057.76 371.424 1063.75 366.27 1068.79 361.859C1075.09 356.346 1067.22 342.168 1066.43 341.38C1065.64 340.593 1050.68 357.921 1053.04 353.983C1055.4 350.045 1050.68 344.531 1051.46 346.106Z" fill="#FFE3C1"/>
<path d="M998.69 611.546V620.998C1002.37 621.523 1010.19 621.785 1012.08 618.635C1013.97 615.484 1016.02 612.596 1016.81 611.546H998.69Z" fill="#FFE3C1"/>
<path d="M864.001 677.494L862.426 688.736C866.364 691.624 874.556 696.298 875.816 691.887C877.076 687.476 877.916 683.891 878.179 682.65L864.001 677.494Z" fill="#FFE3C1"/>
<path d="M830.92 480.852L850.611 487.884L885.268 433.536L873.453 512.302C876.476 512.495 879.638 512.502 882.905 512.348C914.361 510.86 955.408 494.386 973.485 485.521L978.999 421.721C1029.41 430.543 1053.04 394.416 1058.55 375.249L1055.4 373.449L1042.01 365.798C1013.03 408.646 987.925 381.551 978.999 362.647C976.478 352.565 953.268 351.62 941.979 352.408C938.828 359.969 927.013 356.608 921.5 353.983C911.785 355.558 895.192 356.346 887.631 362.647C880.069 368.948 843.522 444.826 828.557 480.008L830.92 480.852Z" fill="black"/>
<path d="M973.485 485.521C955.408 494.386 914.361 510.86 882.905 512.348C880.804 543.051 877.391 604.457 880.542 604.457L862.426 676.921L864.001 677.494L878.179 682.65L888.418 686.373C899.183 666.682 924.335 610.286 938.828 542.232C958.257 537.244 997.745 529.472 1000.27 538.294C1002.79 547.116 996.59 590.804 993.176 611.546H998.69H1016.81H1018.38C1030.72 580.565 1050.04 516.24 1028.62 506.788C1001.84 494.973 1012.87 494.973 973.485 485.521Z" fill="#7999D5"/>
<path d="M875.816 691.887C874.556 696.298 866.364 691.624 862.426 688.736L854.549 702.914C865.314 709.74 887.946 722.448 892.357 718.667C896.767 714.886 883.167 699.238 875.816 691.887Z" fill="#253B65"/>
<path d="M1012.08 618.635C1010.19 621.785 1002.37 621.523 998.69 620.998L997.115 635.963C1009.45 637.801 1034.92 640.374 1038.07 635.963C1041.22 631.552 1022.06 622.573 1012.08 618.635Z" fill="#253B65"/>
<ellipse cx="928.589" cy="315.387" rx="1.57531" ry="2.36296" fill="black"/>
<path d="M947.862 326.82C947.537 328.644 943.606 332.28 940.505 331.727C937.404 331.174 935.153 329.247 935.478 327.423C935.803 325.598 937.902 327.059 941.376 326.478C944.477 327.03 948.187 324.996 947.862 326.82Z" fill="white"/>
<path d="M947.862 326.82C947.537 328.644 943.606 332.28 940.505 331.727C937.404 331.174 935.153 329.247 935.478 327.423C935.803 325.598 937.902 327.059 941.376 326.478C944.477 327.03 948.187 324.996 947.862 326.82Z" fill="white"/>
<path d="M930.053 309.554C929.922 308.848 928.108 308.593 926.002 308.985C923.896 309.377 922.295 310.267 922.426 310.972C922.557 311.678 924.213 311.081 926.319 310.689C928.425 310.297 930.184 310.26 930.053 309.554Z" fill="white"/>
<path d="M930.053 309.554C929.922 308.848 928.108 308.593 926.002 308.985C923.896 309.377 922.295 310.267 922.426 310.972C922.557 311.678 924.213 311.081 926.319 310.689C928.425 310.297 930.184 310.26 930.053 309.554Z" fill="black"/>
<path d="M950.312 303.227C950.078 302.548 948.294 302.547 946.327 303.225C944.36 303.903 942.956 305.003 943.19 305.682C943.424 306.361 944.925 305.542 946.892 304.864C948.859 304.186 950.546 303.906 950.312 303.227Z" fill="white"/>
<path d="M950.312 303.227C950.078 302.548 948.294 302.547 946.327 303.225C944.36 303.903 942.956 305.003 943.19 305.682C943.424 306.361 944.925 305.542 946.892 304.864C948.859 304.186 950.546 303.906 950.312 303.227Z" fill="black"/>
<ellipse cx="947.493" cy="310.661" rx="1.57531" ry="2.36296" fill="black"/>
<path d="M911.316 314.174C912.367 315.486 915.57 321.893 916.83 321.263C918.09 320.633 918.93 317.061 919.193 315.749L916.83 299.996C926.807 299.471 947.549 297.948 950.699 296.057C952.537 299.47 956.055 307.242 955.425 311.023C954.637 315.749 964.089 289.756 959.363 285.818C955.583 282.668 955.163 281.354 953.85 282.667C956.475 278.204 957.316 272.743 955.425 270.853C953.062 268.49 915.859 263.574 906.591 285.818C902.652 295.27 908.166 310.235 911.316 314.174Z" fill="black" stroke="black"/>
<path d="M1149.98 221.022L1146.83 209.995C1140 207.369 1128.24 198.81 1129.5 172.975C1132.12 172.45 1138.16 168.722 1141.31 158.01C1148.14 166.936 1163.37 183.845 1169.67 180.064C1175.97 176.283 1177.54 180.064 1177.54 182.427L1169.67 191.879C1167.83 197.918 1164.94 211.413 1168.09 217.084C1175.36 217.992 1188.04 220.964 1196.2 226.676C1203.83 226.029 1206.69 219.447 1209.05 216.296C1211.41 213.146 1202.75 203.694 1204.32 203.694C1205.9 203.694 1209.05 196.605 1209.05 192.667C1209.05 189.516 1200.12 180.327 1195.66 176.126C1196.97 175.338 1199.13 172.503 1197.23 167.462C1195.34 162.421 1190.15 161.685 1187.78 161.948C1187.52 157.747 1186.05 149.503 1182.27 150.133C1177.54 150.921 1170.45 146.195 1168.09 142.257C1165.73 138.318 1154.7 140.681 1153.13 142.257C1151.87 143.517 1144.72 143.832 1141.31 143.832C1136.32 145.145 1125.87 149.818 1123.98 158.01C1117.94 158.272 1106.65 162.106 1109.81 175.338C1105.08 182.69 1098.46 199.125 1109.81 206.057C1108.76 209.826 1111.7 219.228 1131.86 226.676C1136.59 224.387 1142.52 222.338 1149.98 221.022Z" fill="#FFE5A3"/>
<path d="M1113.74 240.713C1111.38 241.501 1100.35 280.096 1100.35 283.247C1100.35 284.292 1103.33 285.012 1107.44 285.497C1113.24 286.182 1121.28 286.397 1126.35 286.397C1126.45 288.748 1126.26 291.115 1125.83 293.486L1131.07 296.637V345.472C1151.46 343.409 1189.05 339.188 1196.2 336.89C1197.24 336.555 1197.64 336.26 1197.23 336.02C1194.08 334.129 1193.82 295.324 1194.08 276.158L1200.39 286.397L1201.65 285.61L1217.97 275.484L1223.23 272.22L1203.54 235.988C1202.57 232.301 1199.83 229.218 1196.2 226.676C1188.04 220.964 1175.36 217.992 1168.09 217.084C1157.38 225.906 1151.55 223.385 1149.98 221.022C1142.52 222.338 1136.59 224.387 1131.86 226.676C1119.61 232.606 1115.45 240.145 1113.74 240.713Z" fill="#9B66A3"/>
<path d="M1131.07 345.472C1118.73 395.094 1092.63 515.763 1086.96 601.459H1094.05H1109.02H1111.38L1159.43 417.936V601.459H1164.94H1179.91H1185.42C1196.18 533.721 1217.08 397.299 1214.56 393.519C1211.41 388.793 1214.07 370.842 1196.2 336.89C1189.05 339.188 1151.46 343.409 1131.07 345.472Z" fill="#26253D"/>
<path d="M1153.91 619.575C1141.31 621.466 1136.59 627.715 1135.8 630.603C1143.41 633.753 1163.21 638.479 1181.48 632.178C1181.48 629.552 1181.17 623.986 1179.91 622.726C1171.24 624.826 1153.91 627.137 1153.91 619.575Z" fill="#FF837A"/>
<path d="M1064.12 630.603C1060.18 638.479 1112.96 633.753 1109.02 632.178C1107.68 631.642 1107.24 627.759 1107.28 622.726C1086.36 629.657 1082.39 623.514 1083.03 619.575C1078.04 620.626 1067.27 624.301 1064.12 630.603Z" fill="#FF837A"/>
<path d="M1149.98 221.022C1151.55 223.385 1157.38 225.906 1168.09 217.084C1164.94 211.413 1167.83 197.918 1169.67 191.879L1177.54 182.427C1177.54 180.064 1175.97 176.283 1169.67 180.064C1163.37 183.845 1148.14 166.936 1141.31 158.01C1138.16 168.722 1132.12 172.45 1129.5 172.975C1128.24 198.81 1140 207.369 1146.83 209.995L1149.98 221.022Z" fill="#FAD2D2"/>
<path d="M1064.12 358.862C1083.66 347.764 1120.9 320.35 1125.83 293.486C1126.26 291.115 1126.45 288.748 1126.35 286.397C1121.28 286.397 1113.24 286.182 1107.44 285.497C1105.87 296.562 1098.15 322.157 1079.87 336.02H1059.4C1059.92 337.858 1061.6 341.533 1064.12 341.533C1066.64 341.533 1058.35 346.259 1053.88 348.622C1053.95 352.148 1059.87 359.132 1064.12 358.862Z" fill="#FAD2D2"/>
<path d="M1217.97 275.484L1201.65 285.61C1209.37 303.988 1225.28 346.574 1227.17 369.889L1224.02 388.793C1228.43 385.012 1230.05 386.167 1230.32 387.217L1234.25 398.244C1238.98 396.407 1248.12 391.943 1246.86 388.793C1245.28 384.854 1240.56 366.738 1238.19 367.526C1235.83 368.314 1229 289.661 1217.97 275.484Z" fill="#FAD2D2"/>
<path d="M1109.02 601.459H1094.05C1095.31 614.692 1087.23 619.05 1083.03 619.575C1082.39 623.514 1086.36 629.657 1107.28 622.726C1107.34 615.931 1108.26 607.04 1109.02 601.459Z" fill="#FAD2D2"/>
<path d="M1164.94 601.459C1166.52 606.71 1166.52 617.685 1153.91 619.575C1153.91 627.137 1171.24 624.826 1179.91 622.726C1178.65 621.466 1179.38 608.023 1179.91 601.459H1164.94Z" fill="#FAD2D2"/>
<ellipse cx="1134.32" cy="183.214" rx="1.57531" ry="2.36296" fill="#00516A"/>
<path d="M1153.6 194.647C1153.27 196.471 1149.34 200.106 1146.24 199.554C1143.14 199.001 1140.89 197.074 1141.21 195.249C1141.54 193.425 1143.63 194.886 1147.11 194.304C1150.21 194.857 1153.92 192.823 1153.6 194.647Z" fill="white"/>
<path d="M1153.6 194.647C1153.27 196.471 1149.34 200.106 1146.24 199.554C1143.14 199.001 1140.89 197.074 1141.21 195.249C1141.54 193.425 1143.63 194.886 1147.11 194.304C1150.21 194.857 1153.92 192.823 1153.6 194.647Z" fill="white"/>
<path d="M1135.79 177.381C1135.65 176.675 1133.84 176.42 1131.73 176.812C1129.63 177.204 1128.03 178.093 1128.16 178.799C1128.29 179.505 1129.95 178.908 1132.05 178.516C1134.16 178.124 1135.92 178.087 1135.79 177.381Z" fill="white"/>
<path d="M1135.79 177.381C1135.65 176.675 1133.84 176.42 1131.73 176.812C1129.63 177.204 1128.03 178.093 1128.16 178.799C1128.29 179.505 1129.95 178.908 1132.05 178.516C1134.16 178.124 1135.92 178.087 1135.79 177.381Z" fill="#DFBE6B"/>
<path d="M1156.05 171.054C1155.81 170.375 1154.03 170.374 1152.06 171.052C1150.09 171.73 1148.69 172.83 1148.92 173.509C1149.16 174.187 1150.66 173.369 1152.63 172.691C1154.59 172.013 1156.28 171.732 1156.05 171.054Z" fill="white"/>
<path d="M1156.05 171.054C1155.81 170.375 1154.03 170.374 1152.06 171.052C1150.09 171.73 1148.69 172.83 1148.92 173.509C1149.16 174.187 1150.66 173.369 1152.63 172.691C1154.59 172.013 1156.28 171.732 1156.05 171.054Z" fill="#DFBE6B"/>
<ellipse cx="1153.23" cy="178.488" rx="1.57531" ry="2.36296" fill="#00516A"/>
<path d="M592.365 568.191C608.118 553.488 641.987 518.096 651.439 494.151C654.065 513.843 658.686 557.321 656.165 573.705C657.153 573.839 658.205 573.972 659.316 574.102C679.735 576.495 720.046 577.937 750.684 568.705C754.243 567.633 757.672 566.416 760.923 565.04C754.36 531.434 740.602 463.906 738.081 462.645C749.371 465.271 777.149 475.563 797.943 495.727L800.59 493.079L808.97 484.7L813.696 479.974C786.391 451.356 722.958 398.688 687.671 416.961C684.258 421.687 675.227 429.249 666.405 421.687C658.266 421.162 637.419 434.92 619.146 494.151L574.249 551.65L578.187 555.246L587.639 563.876L592.365 568.191Z" fill="#FF837A"/>
<path d="M741.232 765.893C722.328 703.51 739.657 608.442 750.684 568.705C720.046 577.937 679.735 576.495 659.316 574.102L632.536 657.196C630.173 664.285 632.536 736.487 634.899 774.557H636.474H656.953H662.466C656.165 651.052 682.946 611.775 697.123 607.574C689.562 676.257 703.95 746.464 712.089 772.981L719.965 771.065L739.657 766.276L741.232 765.893Z" fill="black"/>
<path d="M719.965 771.065L724.691 780.07L741.232 775.344C737.451 770.303 738.606 767.198 739.657 766.276L719.965 771.065Z" fill="#FFE4C5"/>
<path d="M657.741 786.372L656.953 774.557H636.474L641.2 786.372C646.451 786.634 657.11 787.002 657.741 786.372Z" fill="#FFE4C5"/>
<path d="M657.741 808.426C664.672 805.905 660.629 792.673 657.741 786.372C657.11 787.002 646.451 786.634 641.2 786.372C618.515 794.563 613.894 804.488 614.42 808.426C625.972 809.476 650.809 810.946 657.741 808.426Z" fill="white"/>
<path d="M724.691 780.07C715.764 786.897 699.014 801.652 703.425 806.063C707.835 810.474 735.193 800.549 748.321 795.036C747.533 790.572 745.013 780.385 741.232 775.344L724.691 780.07Z" fill="white"/>
<path d="M578.187 555.246C572.674 558.248 561.489 564.725 560.859 566.616C560.229 568.506 565.848 567.929 568.736 567.404L563.222 581.581C565.322 582.894 570.783 584.889 575.824 582.369C580.865 579.848 585.801 568.99 587.639 563.876L578.187 555.246Z" fill="#FFE4C5"/>
<path d="M800.59 493.079C801.283 498.688 802.984 509.905 804.244 509.905C805.505 509.905 806.87 505.704 807.395 503.603C811.596 505.966 820.155 511.322 820.785 513.843C821.573 516.994 830.237 500.453 826.299 500.453C822.36 500.453 813.696 479.974 808.97 484.7L800.59 493.079Z" fill="#FFE4C5"/>
<path d="M666.405 421.687C675.227 429.249 684.258 421.687 687.671 416.961C686.036 417.749 676.644 390.969 678.22 392.544C679.48 393.804 682.42 388.343 683.733 385.455C683.733 384.142 683.103 381.517 680.583 381.517C678.062 381.517 675.332 384.142 674.281 385.455C673.476 383.04 672.517 381.155 671.495 379.698C669.608 377.058 666.861 374.855 663.254 375.216L660.891 370.49C656.953 373.903 648.919 380.572 648.289 379.942C647.659 379.311 648.026 374.428 648.289 372.065L634.482 387.844C635.834 392.35 636.129 393.876 637.646 397.27C646.734 417.605 658.079 419.211 663.254 416.961L666.405 421.687Z" fill="#FFE4C5"/>
<ellipse cx="644.351" cy="393.331" rx="1.57531" ry="2.36296" fill="#00398E"/>
<path d="M664.042 403.571C664.266 405.411 661.575 410.039 658.448 410.42C655.321 410.801 652.604 409.619 652.38 407.78C652.156 405.941 654.59 406.722 657.741 405.147C660.868 404.765 663.818 401.732 664.042 403.571Z" fill="white"/>
<path d="M664.042 403.571C664.266 405.411 661.575 410.039 658.448 410.42C655.321 410.801 652.604 409.619 652.38 407.78C652.156 405.941 654.59 406.722 657.741 405.147C660.868 404.765 663.818 401.732 664.042 403.571Z" fill="white"/>
<path d="M645.591 386.472C645.276 385.827 643.46 386.065 641.535 387.005C639.61 387.944 638.305 389.229 638.62 389.874C638.934 390.519 640.37 389.502 642.295 388.563C644.221 387.623 645.906 387.117 645.591 386.472Z" fill="white"/>
<path d="M645.591 386.472C645.276 385.827 643.46 386.065 641.535 387.005C639.61 387.944 638.305 389.229 638.62 389.874C638.934 390.519 640.37 389.502 642.295 388.563C644.221 387.623 645.906 387.117 645.591 386.472Z" fill="#CBB782"/>
<path d="M664.499 381.171C664.265 380.492 662.481 380.491 660.514 381.169C658.547 381.847 657.143 382.947 657.377 383.626C657.611 384.304 659.112 383.486 661.079 382.808C663.046 382.13 664.733 381.85 664.499 381.171Z" fill="white"/>
<path d="M664.499 381.171C664.265 380.492 662.481 380.491 660.514 381.169C658.547 381.847 657.143 382.947 657.377 383.626C657.611 384.304 659.112 383.486 661.079 382.808C663.046 382.13 664.733 381.85 664.499 381.171Z" fill="#CBB782"/>
<ellipse cx="663.255" cy="388.605" rx="1.57531" ry="2.36296" fill="#00398E"/>
<path d="M648.24 372.402C647.715 375.027 646.98 380.278 648.24 380.278C649.5 380.278 657.692 373.977 661.63 370.826L663.205 375.552C665.043 374.765 669.822 375.71 674.233 385.792C675.545 384.217 678.801 381.223 681.321 381.854C683.842 382.484 682.372 387.892 681.321 390.518L678.171 392.881L678.958 396.819L684.472 390.518C686.572 385.004 689.671 371.299 685.26 360.587C679.746 347.197 681.321 351.923 666.356 344.046C651.391 336.17 646.665 351.135 637.213 349.56C627.761 347.984 617.521 370.826 620.672 375.552C622.247 373.189 625.555 368.621 626.186 369.251C623.823 373.977 619.727 383.429 622.247 383.429C622.772 382.379 624.295 380.278 626.186 380.278C628.549 380.278 624.61 397.607 628.549 396.819C631.699 396.189 642.989 380.278 648.24 372.402Z" fill="#71655C"/>
<path d="M504.887 924.605V1057.72V1109.11H1214.56V633.173H1043.64V713.514H955.425H884.536V809.608H793.956H678.958V924.605H589.166H504.887Z" fill="#628DD2"/>
<path d="M1043.64 713.514V633.173H955.425V713.514H1043.64Z" fill="#437DC3"/>
<path d="M884.536 809.608V713.514H793.956V809.608H884.536Z" fill="#437DC3"/>
<path d="M678.958 924.605V809.608H589.166V924.605H678.958Z" fill="#437DC3"/>
<path d="M504.887 924.605H412.731V1057.72L504.887 1109.11V1057.72V924.605Z" fill="#437DC3"/>
<path d="M1529.24 548.117C1385.05 620.631 1039.85 808.117 1212.79 1106.5L1529.24 548.117Z" fill="#719FF0"/>
<path d="M1212.79 1106.5C1335.28 1089.89 1556.83 977.765 1529.24 548.117L1212.79 1106.5Z" fill="#85B5FA"/>
<path d="M1526.38 548.799L1371.58 823.855M1285.61 977.32L1322.15 912.103M1322.15 912.103L1429.56 854.297M1322.15 912.103L1371.58 823.855M1371.58 823.855L1344.72 687.924" stroke="black"/>
<path d="M1123.96 705.939C1073.19 818.178 958.295 1095.14 1204.15 1189.22L1123.96 705.939Z" fill="#719FF0"/>
<path d="M1204.15 1189.22C1268.88 1120.57 1346.55 947.696 1123.96 705.939L1204.15 1189.22Z" fill="#85B5FA"/>
<path d="M1122.59 707.717L1162.73 945.26M1185.37 1077.6L1175.75 1021.36M1175.75 1021.36L1211.75 935.5M1175.75 1021.36L1162.73 945.26M1162.73 945.26L1081.55 877.476" stroke="black"/>
<path d="M1585.7 804.422C1452.53 831.545 1130.66 907.757 1205.38 1188.38L1395.54 996.401L1585.7 804.422Z" fill="#354DCE"/>
<path d="M1205.38 1188.38C1308.58 1201.9 1513.35 1159.65 1585.7 804.422L1395.54 996.401L1205.38 1188.38Z" fill="#85B5FA"/>
<path d="M1205.38 1188.38C1308.58 1201.9 1513.35 1159.65 1585.7 804.422M1205.38 1188.38C1130.66 907.757 1452.53 831.545 1585.7 804.422M1205.38 1188.38L1395.54 996.401M1585.7 804.422L1395.54 996.401M1395.54 996.401L1483.15 984.468" stroke="#354DCE"/>
<path d="M1100.85 1009.77C1101.96 1007 1110.84 991.422 1114.69 1004.23C1118.54 1017.04 1099.75 1012.54 1100.85 1009.77Z" fill="#3649CF" stroke="#3249D5"/>
<path d="M1089.59 1026.29C1092.19 1024.83 1108.88 1018.28 1103.84 1030.67C1098.79 1043.05 1086.99 1027.75 1089.59 1026.29Z" fill="#3649CF"/>
<path d="M1081.54 1046.29C1085.22 1044.23 1108.81 1034.98 1101.68 1052.48C1094.55 1069.98 1077.87 1048.36 1081.54 1046.29Z" fill="#3649CF"/>
<path d="M1072.68 1071.54C1077.81 1068.66 1110.73 1055.75 1100.78 1080.18C1090.83 1104.6 1067.55 1074.42 1072.68 1071.54Z" fill="#3649CF"/>
<path d="M1068.54 1072.23C1068.19 1067.02 1060.92 1035.38 1044.62 1051.63C1028.33 1067.88 1068.89 1077.45 1068.54 1072.23Z" fill="#3649CF"/>
<path d="M1061.63 1097.39C1059.71 1091.75 1042.37 1059.04 1029.21 1081.74C1016.06 1104.44 1063.55 1103.02 1061.63 1097.39Z" fill="#3649CF"/>
<path d="M1053.9 1132.17C1051.27 1125.83 1028.91 1089.51 1015.47 1116.58C1002.03 1143.65 1056.52 1138.5 1053.9 1132.17Z" fill="#3649CF"/>
<path d="M1045.04 1166.49C1042.41 1160.15 1020.06 1123.84 1006.61 1150.9C993.171 1177.97 1047.66 1172.83 1045.04 1166.49Z" fill="#3649CF"/>
<path d="M1049.5 1167.9C1054.32 1162.81 1089.61 1136.14 1094.8 1166.34C1099.99 1196.55 1044.67 1172.99 1049.5 1167.9Z" fill="#3649CF"/>
<path d="M1057.6 1133.24C1062.36 1128.32 1096.33 1102.86 1098.59 1132.94C1100.85 1163.03 1052.84 1138.15 1057.6 1133.24Z" fill="#3649CF"/>
<path d="M1063.6 1099.51C1068.12 1096.26 1099.12 1080.75 1096.94 1105.19C1094.76 1129.62 1059.08 1102.77 1063.6 1099.51Z" fill="#3649CF"/>
<path d="M1081.49 1011.22C1083.63 1013.88 1094.27 1030.92 1079.72 1025.76C1065.17 1020.59 1079.36 1008.57 1081.49 1011.22Z" fill="#3649CF"/>
<path d="M1071.01 1028.37C1073.72 1031.73 1087.2 1053.34 1068.76 1046.79C1050.33 1040.25 1068.3 1025 1071.01 1028.37Z" fill="#3649CF"/>
<path d="M1046.89 1172.84C1069.85 1049.85 1092.43 1013.25 1100.85 1010.32" stroke="#3645CF"/>
<path d="M1013.43 979.554C1013.66 976.031 1017.86 955.341 1026.48 968.678C1035.09 982.014 1013.19 983.077 1013.43 979.554Z" fill="#0E0857" stroke="#0F0759"/>
<path d="M1006.98 1002.11C1009.28 999.583 1025.07 986.612 1023.92 1002.4C1022.76 1018.19 1004.67 1004.63 1006.98 1002.11Z" fill="#0E0857"/>
<path d="M1005.23 1027.57C1008.48 1024 1030.79 1005.67 1029.16 1027.98C1027.53 1050.29 1001.97 1031.13 1005.23 1027.57Z" fill="#0E0857"/>
<path d="M1004.41 1059.28C1008.96 1054.31 1040.09 1028.73 1037.81 1059.86C1035.54 1090.99 999.865 1064.26 1004.41 1059.28Z" fill="#0E0857"/>
<path d="M1000.18 1061.44C997.987 1055.61 979.114 1021.93 967.131 1045.83C955.149 1069.73 1002.37 1067.26 1000.18 1061.44Z" fill="#0E0857"/>
<path d="M1001.43 1092.4C997.397 1086.6 967.268 1055.03 960.921 1085.25C954.574 1115.47 1005.47 1098.19 1001.43 1092.4Z" fill="#0E0857"/>
<path d="M1005.16 1134.6C1000.11 1128.24 963.301 1094.21 958.162 1129.51C953.024 1164.8 1010.2 1140.97 1005.16 1134.6Z" fill="#0E0857"/>
<path d="M1007.5 1176.66C1002.46 1170.3 965.646 1136.27 960.507 1171.56C955.368 1206.86 1012.54 1183.02 1007.5 1176.66Z" fill="#0E0857"/>
<path d="M1012.81 1176.8C1016.26 1169.4 1045.19 1127.35 1061.3 1160.08C1077.41 1192.81 1009.36 1184.2 1012.81 1176.8Z" fill="#0E0857"/>
<path d="M1009.53 1134.6C1012.98 1127.43 1040.88 1087.19 1053.78 1120.75C1066.68 1154.31 1006.09 1141.78 1009.53 1134.6Z" fill="#0E0857"/>
<path d="M1004.31 1094.17C1008.07 1088.97 1036.22 1061.06 1042.36 1089.64C1048.49 1118.22 1000.55 1099.37 1004.31 1094.17Z" fill="#0E0857"/>
<path d="M992.982 987.597C996.218 989.92 1013.65 1005.85 996.115 1004.76C978.581 1003.67 989.747 985.275 992.982 987.597Z" fill="#0E0857"/>
<path d="M987.599 1010.61C991.7 1013.55 1013.79 1033.74 991.57 1032.36C969.346 1030.97 983.499 1007.66 987.599 1010.61Z" fill="#0E0857"/>
<path d="M1011.71 1183.29C993.807 1035.48 1005.52 986.301 1013.62 980.187" stroke="#0B084D"/>
<path d="M351.147 953.056C350.161 950.287 342.242 934.711 338.812 947.52C335.383 960.329 352.133 955.826 351.147 953.056Z" fill="#2637B0" stroke="#3249D5"/>
<path d="M361.187 969.576C358.869 968.115 343.991 961.568 348.488 973.955C352.985 986.341 363.504 971.037 361.187 969.576Z" fill="#2637B0"/>
<path d="M368.356 989.581C365.081 987.516 344.057 978.265 350.411 995.768C356.766 1013.27 371.63 991.645 368.356 989.581Z" fill="#2637B0"/>
<path d="M376.255 1014.83C371.685 1011.95 342.346 999.039 351.213 1023.46C360.081 1047.89 380.824 1017.71 376.255 1014.83Z" fill="#2637B0"/>
<path d="M379.942 1015.52C380.253 1010.31 386.74 978.668 401.261 994.917C415.782 1011.17 379.631 1020.74 379.942 1015.52Z" fill="#2637B0"/>
<path d="M386.106 1040.68C387.817 1035.04 403.271 1002.33 414.996 1025.03C426.721 1047.73 384.395 1046.31 386.106 1040.68Z" fill="#2637B0"/>
<path d="M392.997 1075.46C395.336 1069.12 415.261 1032.8 427.242 1059.87C439.223 1086.94 390.657 1081.79 392.997 1075.46Z" fill="#2637B0"/>
<path d="M400.891 1109.78C403.23 1103.44 423.156 1067.13 435.136 1094.19C447.117 1121.26 398.551 1116.12 400.891 1109.78Z" fill="#2637B0"/>
<path d="M396.918 1111.19C392.619 1106.1 361.163 1079.43 356.538 1109.63C351.913 1139.84 401.218 1116.28 396.918 1111.19Z" fill="#2637B0"/>
<path d="M389.696 1076.53C385.454 1071.61 355.18 1046.15 353.166 1076.23C351.152 1106.32 393.937 1081.44 389.696 1076.53Z" fill="#2637B0"/>
<path d="M384.347 1042.8C380.316 1039.55 352.69 1024.04 354.632 1048.47C356.573 1072.91 388.377 1046.06 384.347 1042.8Z" fill="#2637B0"/>
<path d="M368.401 954.51C366.496 957.165 357.017 974.211 369.982 969.047C382.946 963.883 370.306 951.855 368.401 954.51Z" fill="#2637B0"/>
<path d="M377.744 971.657C375.329 975.022 363.316 996.626 379.747 990.081C396.178 983.536 380.158 968.291 377.744 971.657Z" fill="#2637B0"/>
<path d="M399.238 1116.13C378.779 993.137 358.652 956.537 351.146 953.611" stroke="#3645CF"/>
</svg>
