<svg width="1809" height="1252" viewBox="0 0 1809 1252" fill="none" xmlns="http://www.w3.org/2000/svg">
<ellipse cx="856.5" cy="1092" rx="856.5" ry="127" fill="url(#paint0_radial_5_4)"/>
<path d="M1574.47 212.484C1574.09 198.986 1581.12 119.047 1613.69 167.892C1646.26 216.737 1574.85 225.981 1574.47 212.484Z" fill="#BAD4FE"/>
<path d="M1548.89 274.036C1558.67 267.594 1621.11 239.25 1600.9 295.617C1580.69 351.984 1539.11 280.478 1548.89 274.036Z" fill="#BAD4FE"/>
<path d="M1516.64 365.082C1530.46 355.978 1618.69 315.926 1590.14 395.578C1561.58 475.23 1502.82 374.186 1516.64 365.082Z" fill="#BAD4FE"/>
<path d="M1480.69 480.129C1499.98 467.425 1623.11 411.532 1583.26 522.686C1543.41 633.841 1461.4 492.833 1480.69 480.129Z" fill="#BAD4FE"/>
<path d="M1465.34 482.888C1464.72 458.915 1441.92 312.834 1379.72 385.781C1317.51 458.728 1465.95 506.861 1465.34 482.888Z" fill="#BAD4FE"/>
<path d="M1436.59 597.692C1430.22 571.604 1370.44 419.612 1318.98 522.492C1267.53 625.372 1442.95 623.781 1436.59 597.692Z" fill="#BAD4FE"/>
<path d="M1403.59 756.628C1394.72 727.247 1316.89 558.163 1263.81 681.086C1210.73 804.008 1412.46 786.009 1403.59 756.628Z" fill="#BAD4FE"/>
<path d="M1366.5 913.352C1357.63 883.971 1279.8 714.887 1226.72 837.81C1173.64 960.733 1375.37 942.733 1366.5 913.352Z" fill="#BAD4FE"/>
<path d="M1382.77 920.295C1401.22 897.402 1534.88 778.563 1550.15 917.823C1565.42 1057.08 1364.31 943.188 1382.77 920.295Z" fill="#BAD4FE"/>
<path d="M1417.12 761.926C1435.31 739.84 1563.92 626.396 1568.4 764.806C1572.87 903.217 1398.93 784.012 1417.12 761.926Z" fill="#BAD4FE"/>
<path d="M1443.6 607.668C1460.7 593.194 1577.07 525.165 1565.9 637.152C1554.72 749.139 1426.49 622.142 1443.6 607.668Z" fill="#BAD4FE"/>
<path d="M1520.95 204.007C1528.5 216.423 1565.55 295.807 1512.54 270.588C1459.53 245.37 1513.41 191.591 1520.95 204.007Z" fill="#BAD4FE"/>
<path d="M1480.07 281.675C1489.64 297.411 1536.6 398.023 1469.41 366.061C1402.22 334.099 1470.51 265.939 1480.07 281.675Z" fill="#BAD4FE"/>
<path d="M1372.53 942.703C1473.02 380.21 1561.05 214.446 1592.51 201.876" stroke="#B7D1FC" stroke-width="3"/>
<path d="M317.152 399.34C315.56 388.212 297.713 323.834 275.135 369.228C252.557 414.623 318.745 410.467 317.152 399.34Z" fill="#BAD4FE"/>
<path d="M349.216 445.595C339.408 441.921 278.628 428.946 305.067 471.834C331.506 514.723 359.025 449.27 349.216 445.595Z" fill="#BAD4FE"/>
<path d="M391.564 514.935C377.704 509.743 291.817 491.408 329.177 552.013C366.538 612.619 405.424 520.127 391.564 514.935Z" fill="#BAD4FE"/>
<path d="M440.713 603.343C421.371 596.098 301.515 570.511 353.652 655.085C405.788 739.66 460.055 610.588 440.713 603.343Z" fill="#BAD4FE"/>
<path d="M455.056 603.081C452.18 583.326 451.936 459.825 518.899 509.404C585.862 558.984 457.932 622.836 455.056 603.081Z" fill="#BAD4FE"/>
<path d="M497.632 692.472C499.669 670.04 532.174 535.615 593.667 611.499C655.16 687.383 495.595 714.905 497.632 692.472Z" fill="#BAD4FE"/>
<path d="M550.394 817.345C554.239 791.801 600.687 640.398 666.526 732.446C732.365 824.495 546.548 842.889 550.394 817.345Z" fill="#BAD4FE"/>
<path d="M606.557 939.73C610.403 914.186 656.851 762.783 722.69 854.832C788.529 946.881 602.712 965.275 606.557 939.73Z" fill="#BAD4FE"/>
<path d="M592.78 948.095C572.734 932.36 434.287 856.9 440.389 973.573C446.49 1090.25 612.826 963.829 592.78 948.095Z" fill="#BAD4FE"/>
<path d="M538.864 823.911C519.173 808.795 386.087 736.929 401.871 851.131C417.655 965.334 558.555 839.028 538.864 823.911Z" fill="#BAD4FE"/>
<path d="M492.695 701.803C475.081 692.748 359.626 656.101 385.838 746.07C412.049 836.039 510.308 710.857 492.695 701.803Z" fill="#BAD4FE"/>
<path d="M364.546 383.597C359.473 395.015 337.199 466.182 381.734 436.797C426.269 407.412 369.619 372.178 364.546 383.597Z" fill="#BAD4FE"/>
<path d="M412.817 440.551C406.387 455.022 378.156 545.221 434.601 507.978C491.046 470.734 419.247 426.079 412.817 440.551Z" fill="#BAD4FE"/>
<path d="M605.292 964.783C433.348 520.17 329.619 398.744 299.248 393.607" stroke="#B7D1FC" stroke-width="3"/>
<path d="M745.124 152.969C747.653 142.016 754.24 75.5353 716.803 109.724C679.366 143.914 742.594 163.921 745.124 152.969Z" fill="#A6C5FA"/>
<path d="M758.336 207.678C750.514 200.712 698.512 166.679 707.693 216.218C716.874 265.757 766.158 214.644 758.336 207.678Z" fill="#A6C5FA"/>
<path d="M772.81 287.627C761.757 277.784 688.273 229.692 701.247 299.695C714.221 369.699 783.863 297.471 772.81 287.627Z" fill="#A6C5FA"/>
<path d="M786.746 387.814C771.321 374.077 668.774 306.965 686.879 404.655C704.985 502.344 802.17 401.55 786.746 387.814Z" fill="#A6C5FA"/>
<path d="M800.217 392.745C804.663 373.283 849 258.015 893.561 328.417C938.122 398.819 795.771 412.206 800.217 392.745Z" fill="#A6C5FA"/>
<path d="M807.668 491.477C817.662 471.291 896.484 357.651 926.452 450.613C956.419 543.574 797.674 511.663 807.668 491.477Z" fill="#A6C5FA"/>
<path d="M811.815 626.975C824.619 604.539 922.571 480.098 950.759 589.702C978.947 699.307 799.012 649.411 811.815 626.975Z" fill="#A6C5FA"/>
<path d="M820.033 761.382C832.837 738.946 930.789 614.504 958.976 724.109C987.164 833.713 807.229 783.817 820.033 761.382Z" fill="#A6C5FA"/>
<path d="M804.166 764.21C791.148 742.302 689.259 621.969 652.848 732.983C616.437 843.997 817.183 786.119 804.166 764.21Z" fill="#A6C5FA"/>
<path d="M798.693 628.939C785.784 607.735 687.596 492.687 661.108 604.891C634.619 717.095 811.603 650.142 798.693 628.939Z" fill="#A6C5FA"/>
<path d="M799.697 498.397C786.537 483.597 692.085 407.757 684.066 501.123C676.046 594.489 812.856 513.198 799.697 498.397Z" fill="#A6C5FA"/>
<path d="M795.005 155.388C786.154 164.206 739.699 222.541 791.838 211.206C843.976 199.871 803.856 146.57 795.005 155.388Z" fill="#A6C5FA"/>
<path d="M819.472 225.923C808.254 237.1 749.377 311.034 815.458 296.668C881.539 282.302 830.691 214.747 819.472 225.923Z" fill="#A6C5FA"/>
<path d="M809.813 784.289C809.889 307.587 756.966 156.912 730.494 141.162" stroke="#B7D1FC" stroke-width="3"/>
<path d="M260.798 576.344C277.466 717.612 328.867 1060.01 628.103 1006.56L260.798 576.344Z" fill="#719FF0"/>
<path d="M628.103 1006.56C651.213 900.093 625.018 682.818 260.798 576.344L628.103 1006.56Z" fill="#85B5FA"/>
<path d="M188.356 807.863C230.101 900.806 338.798 1123.71 531.773 1022.89L188.356 807.863Z" fill="#719FF0"/>
<path d="M531.773 1022.89C524.684 945.177 460.096 802.348 188.356 807.863L531.773 1022.89Z" fill="#85B5FA"/>
<path d="M262.395 576.925L465.963 818.125M579.683 952.325L531.356 895.295M531.356 895.295L514.756 774.451M531.356 895.295L465.963 818.125M465.963 818.125L329.22 795.762" stroke="black"/>
<path d="M427.717 1007.06C425.893 1005.54 413.982 997.945 416.855 1008.27C419.727 1018.6 429.541 1008.59 427.717 1007.06Z" fill="#5863FF"/>
<path d="M441.492 1014.44C439.279 1014.38 426.23 1015.93 434.448 1022.71C442.667 1029.48 443.706 1014.51 441.492 1014.44Z" fill="#5863FF"/>
<path d="M454.7 1025.43C451.572 1025.33 433.133 1027.53 444.746 1037.1C456.359 1046.68 457.828 1025.52 454.7 1025.43Z" fill="#5863FF"/>
<path d="M470.57 1039.76C466.204 1039.63 440.473 1042.69 456.679 1056.06C472.885 1069.43 474.935 1039.89 470.57 1039.76Z" fill="#5863FF"/>
<path d="M473.422 1038.73C471.498 1034.98 463.019 1010.28 479.804 1015.63C496.588 1020.98 475.346 1042.49 473.422 1038.73Z" fill="#5863FF"/>
<path d="M488.044 1053.71C486.92 1049.09 484.249 1019.97 501.735 1030.96C519.22 1041.94 489.168 1058.34 488.044 1053.71Z" fill="#5863FF"/>
<path d="M507.126 1075.1C506.152 1069.73 505.112 1036.26 524.571 1050.19C544.029 1064.11 508.1 1080.48 507.126 1075.1Z" fill="#5863FF"/>
<path d="M526.719 1095.76C525.745 1090.39 524.705 1056.92 544.164 1070.84C563.622 1084.77 527.693 1101.13 526.719 1095.76Z" fill="#5863FF"/>
<path d="M524.532 1098.37C519.447 1096.59 486.591 1090.94 495.776 1113.87C504.961 1136.81 529.618 1100.15 524.532 1098.37Z" fill="#5863FF"/>
<path d="M505.267 1077.2C500.294 1075.52 468.756 1070.22 479.71 1092C490.664 1113.78 510.239 1078.88 505.267 1077.2Z" fill="#5863FF"/>
<path d="M487.693 1055.92C483.55 1055.31 457.944 1055.86 469.331 1072.07C480.717 1088.29 491.836 1056.53 487.693 1055.92Z" fill="#5863FF"/>
<path d="M440.328 1000.99C440.092 1003.62 440.493 1019.38 447.399 1010.46C454.305 1001.54 440.564 998.357 440.328 1000.99Z" fill="#5863FF"/>
<path d="M453.876 1009.09C453.577 1012.43 454.084 1032.4 462.837 1021.1C471.591 1009.79 454.175 1005.76 453.876 1009.09Z" fill="#5863FF"/>
<path d="M528.175 1100.86C463.419 1023.62 434.373 1006.4 427.944 1007.45" stroke="#3645CF"/>
<path d="M539.35 657.027C545.429 622.95 564.882 554.796 594.061 554.796C610.64 551.979 640.98 563.244 629.706 630.835L539.35 657.027Z" fill="black"/>
<path d="M461.428 932.459L464.743 940.063C534.376 896.974 546.81 879.231 552.613 859.799C557.255 844.253 576.1 810.514 584.943 795.588C611.469 796.939 626.943 804.6 631.364 808.261C639.986 803.529 632.193 864.868 627.22 896.129L636.338 897.262L648.773 898.808L661.207 900.353C666.512 872.641 673.365 824.595 676.128 804.036C683.423 791.87 639.378 764.045 616.443 751.653C591.906 761.116 558.692 755.596 545.152 751.653C543.163 754.357 526.086 809.669 517.797 836.987C516.968 873.317 475.52 902.325 453.967 913.871L455.662 918.096L461.428 932.459Z" fill="#0B004C"/>
<path d="M545.152 751.653C558.692 755.596 591.906 761.116 616.443 751.653C614.454 745.57 624.456 718.703 629.706 706.03C648.275 704.678 645.733 680.12 642.141 668.01C683.92 665.982 718.129 613.656 730.011 587.746L712.602 577.607C678.118 631.004 645.733 636.468 633.851 632.525C631.862 631.173 619.759 630.835 613.956 630.835C609.977 636.918 599.588 634.496 594.89 632.525C549.132 625.766 494.033 705.185 472.204 745.739L492.928 754.188C512.422 716.743 554.297 684.827 559.664 680.322C559.813 680.065 559.949 679.902 560.074 679.838C560.39 679.677 560.231 679.847 559.664 680.322C556.644 685.552 548.84 729.374 545.152 751.653Z" fill="#080FC3"/>
<path d="M629.706 918.096C623.904 926.545 673.641 928.235 676.957 924.01C680.273 919.786 659.549 910.492 657.891 911.337C658.533 914.435 654.485 918.772 633.156 911.337C632.247 913.715 631.111 916.052 629.706 918.096Z" fill="black"/>
<path d="M438.216 927.389C419.151 923.165 435.177 955.552 446.506 973.013C450.651 973.013 452.309 948.512 450.651 951.891C446.935 959.466 439.322 937.247 438.216 927.389Z" fill="black"/>
<path d="M438.216 927.389C439.322 937.247 446.935 959.466 450.651 951.891C449.269 947.667 449.49 937.866 461.428 932.459L455.662 918.096L438.216 927.389Z" fill="#FFE5C7"/>
<path d="M648.773 898.808L636.338 897.262C636.145 900.142 635.254 905.852 633.156 911.337C654.485 918.772 658.533 914.435 657.891 911.337C656.233 912.182 647.944 905.711 648.773 898.808Z" fill="#FFE5C7"/>
<path d="M715.089 579.297C718.129 572.256 724.374 558.175 725.037 558.175C725.866 558.175 727.524 561.554 725.866 564.934C724.539 567.638 735.261 560.991 740.787 557.33C746.313 561.554 751.563 573.214 728.353 586.056L715.089 579.297Z" fill="#FFE5C7"/>
<path d="M594.89 631.68C594.89 626.047 592.901 612.924 584.943 605.489C579.416 603.517 571.348 598.898 583.285 596.195C585.274 596.871 586.324 593.66 586.601 591.97L600.693 569.158C607.048 570.003 620.422 574.397 623.075 585.211C626.391 587.464 630.701 592.815 621.417 596.195C622.798 602.672 622.909 615.965 612.298 617.317L613.956 630.835C607.988 637.904 598.759 634.344 594.89 631.68Z" fill="#FFE5C7"/>
<path d="M473.033 746.584C469.164 752.499 461.759 764.665 463.085 766.017C464.743 767.706 466.401 782.07 479.665 766.862C480.77 768.833 483.312 772.607 484.638 771.931C486.296 771.086 487.125 771.931 487.125 770.241C487.125 768.551 486.296 754.188 490.441 754.188L473.033 746.584Z" fill="#FFE5C7"/>
<ellipse cx="597.377" cy="593.66" rx="1.65792" ry="2.53466" fill="black"/>
<path d="M614.009 605.59C614.175 606.979 612.467 608.335 610.195 608.617C607.923 608.899 605.946 608.002 605.78 606.612C605.614 605.223 607.522 605.544 609.794 605.262C612.066 604.98 613.842 604.2 614.009 605.59Z" fill="white"/>
<path d="M614.009 605.59C614.175 606.979 612.467 608.335 610.195 608.617C607.923 608.899 605.946 608.002 605.78 606.612C605.614 605.223 607.522 605.544 609.794 605.262C612.066 604.98 613.842 604.2 614.009 605.59Z" fill="white"/>
<path d="M598.314 587.309C597.983 586.617 596.525 586.647 595.059 587.377C593.592 588.106 592.672 589.259 593.003 589.951C593.335 590.643 594.392 589.777 595.859 589.048C597.326 588.318 598.646 588.001 598.314 587.309Z" fill="white"/>
<path d="M598.314 587.309C597.983 586.617 596.525 586.647 595.059 587.377C593.592 588.106 592.672 589.259 593.003 589.951C593.335 590.643 594.392 589.777 595.859 589.048C597.326 588.318 598.646 588.001 598.314 587.309Z" fill="black"/>
<path d="M618.224 586.007C618.255 585.238 616.959 584.558 615.328 584.49C613.698 584.422 612.35 584.99 612.319 585.759C612.288 586.529 613.622 586.279 615.253 586.348C616.884 586.416 618.193 586.777 618.224 586.007Z" fill="white"/>
<path d="M618.224 586.007C618.255 585.238 616.959 584.558 615.328 584.49C613.698 584.422 612.35 584.99 612.319 585.759C612.288 586.529 613.622 586.279 615.253 586.348C616.884 586.416 618.193 586.777 618.224 586.007Z" fill="black"/>
<ellipse cx="615.614" cy="590.28" rx="1.65792" ry="2.53466" fill="black"/>
<path d="M1081.5 353.983C1087.01 356.608 1098.83 359.969 1101.98 352.408V342.956C1110.38 339.28 1123.88 324.682 1110.64 295.696C1104.34 297.009 1088.59 299.477 1075.99 298.847C1077.56 304.886 1080.24 317.436 1078.35 319.326C1076.46 321.216 1073.1 318.013 1071.26 316.963C1069.95 318.538 1069.37 323.264 1077.56 329.566C1079.14 329.566 1082.13 334.449 1081.5 353.983Z" fill="#FFE3C1"/>
<path d="M990.92 512.302C997.483 505.213 1010.61 490.405 1010.61 487.884L990.92 480.852C990.394 481.358 986.981 484.576 977.529 493.398C968.078 502.22 982.518 509.676 990.92 512.302Z" fill="#FFE3C1"/>
<path d="M1211.46 346.106C1212.09 347.366 1205.42 359.759 1202.01 365.798L1215.4 373.449C1217.76 371.424 1223.75 366.27 1228.79 361.859C1235.09 356.346 1227.22 342.168 1226.43 341.38C1225.64 340.593 1210.68 357.921 1213.04 353.983C1215.4 350.045 1210.68 344.531 1211.46 346.106Z" fill="#FFE3C1"/>
<path d="M1158.69 611.546V620.998C1162.37 621.523 1170.19 621.785 1172.08 618.635C1173.97 615.484 1176.02 612.596 1176.81 611.546H1158.69Z" fill="#FFE3C1"/>
<path d="M1024 677.494L1022.43 688.736C1026.36 691.624 1034.56 696.298 1035.82 691.887C1037.08 687.476 1037.92 683.891 1038.18 682.65L1024 677.494Z" fill="#FFE3C1"/>
<path d="M990.92 480.852L1010.61 487.884L1045.27 433.536L1033.45 512.302C1036.48 512.495 1039.64 512.502 1042.9 512.348C1074.36 510.86 1115.41 494.386 1133.48 485.521L1139 421.721C1189.41 430.543 1213.04 394.416 1218.55 375.249L1215.4 373.449L1202.01 365.798C1173.03 408.646 1147.93 381.551 1139 362.647C1136.48 352.565 1113.27 351.62 1101.98 352.408C1098.83 359.969 1087.01 356.608 1081.5 353.983C1071.79 355.558 1055.19 356.346 1047.63 362.647C1040.07 368.948 1003.52 444.826 988.557 480.008L990.92 480.852Z" fill="black"/>
<path d="M1133.48 485.521C1115.41 494.386 1074.36 510.86 1042.9 512.348C1040.8 543.051 1037.39 604.457 1040.54 604.457L1022.43 676.921L1024 677.494L1038.18 682.65L1048.42 686.373C1059.18 666.682 1084.34 610.286 1098.83 542.232C1118.26 537.244 1157.74 529.472 1160.27 538.294C1162.79 547.116 1156.59 590.804 1153.18 611.546H1158.69H1176.81H1178.38C1190.72 580.565 1210.04 516.24 1188.62 506.788C1161.84 494.973 1172.87 494.973 1133.48 485.521Z" fill="#7999D5"/>
<path d="M1035.82 691.887C1034.56 696.298 1026.36 691.624 1022.43 688.736L1014.55 702.914C1025.31 709.74 1047.95 722.448 1052.36 718.667C1056.77 714.886 1043.17 699.238 1035.82 691.887Z" fill="#253B65"/>
<path d="M1172.08 618.635C1170.19 621.785 1162.37 621.523 1158.69 620.998L1157.11 635.963C1169.45 637.801 1194.92 640.374 1198.07 635.963C1201.22 631.552 1182.06 622.573 1172.08 618.635Z" fill="#253B65"/>
<ellipse cx="1088.59" cy="315.387" rx="1.57531" ry="2.36296" fill="black"/>
<path d="M1107.86 326.82C1107.54 328.644 1103.61 332.28 1100.5 331.727C1097.4 331.174 1095.15 329.247 1095.48 327.423C1095.8 325.598 1097.9 327.059 1101.38 326.478C1104.48 327.03 1108.19 324.996 1107.86 326.82Z" fill="white"/>
<path d="M1107.86 326.82C1107.54 328.644 1103.61 332.28 1100.5 331.727C1097.4 331.174 1095.15 329.247 1095.48 327.423C1095.8 325.598 1097.9 327.059 1101.38 326.478C1104.48 327.03 1108.19 324.996 1107.86 326.82Z" fill="white"/>
<path d="M1090.05 309.554C1089.92 308.848 1088.11 308.593 1086 308.985C1083.9 309.377 1082.29 310.267 1082.43 310.972C1082.56 311.678 1084.21 311.081 1086.32 310.689C1088.42 310.297 1090.18 310.26 1090.05 309.554Z" fill="white"/>
<path d="M1090.05 309.554C1089.92 308.848 1088.11 308.593 1086 308.985C1083.9 309.377 1082.29 310.267 1082.43 310.972C1082.56 311.678 1084.21 311.081 1086.32 310.689C1088.42 310.297 1090.18 310.26 1090.05 309.554Z" fill="black"/>
<path d="M1110.31 303.227C1110.08 302.548 1108.29 302.547 1106.33 303.225C1104.36 303.903 1102.96 305.003 1103.19 305.682C1103.42 306.361 1104.93 305.542 1106.89 304.864C1108.86 304.186 1110.55 303.906 1110.31 303.227Z" fill="white"/>
<path d="M1110.31 303.227C1110.08 302.548 1108.29 302.547 1106.33 303.225C1104.36 303.903 1102.96 305.003 1103.19 305.682C1103.42 306.361 1104.93 305.542 1106.89 304.864C1108.86 304.186 1110.55 303.906 1110.31 303.227Z" fill="black"/>
<ellipse cx="1107.49" cy="310.661" rx="1.57531" ry="2.36296" fill="black"/>
<path d="M1071.32 314.174C1072.37 315.486 1075.57 321.893 1076.83 321.263C1078.09 320.633 1078.93 317.061 1079.19 315.749L1076.83 299.996C1086.81 299.471 1107.55 297.948 1110.7 296.057C1112.54 299.47 1116.06 307.242 1115.43 311.023C1114.64 315.749 1124.09 289.756 1119.36 285.818C1115.58 282.668 1115.16 281.354 1113.85 282.667C1116.48 278.204 1117.32 272.743 1115.43 270.853C1113.06 268.49 1075.86 263.574 1066.59 285.818C1062.65 295.27 1068.17 310.235 1071.32 314.174Z" fill="black" stroke="black"/>
<path d="M1309.98 221.022L1306.83 209.995C1300 207.369 1288.24 198.81 1289.5 172.975C1292.12 172.45 1298.16 168.722 1301.31 158.01C1308.14 166.936 1323.37 183.845 1329.67 180.064C1335.97 176.283 1337.54 180.064 1337.54 182.427L1329.67 191.879C1327.83 197.918 1324.94 211.413 1328.09 217.084C1335.36 217.992 1348.04 220.964 1356.2 226.676C1363.83 226.029 1366.69 219.447 1369.05 216.296C1371.41 213.146 1362.75 203.694 1364.32 203.694C1365.9 203.694 1369.05 196.605 1369.05 192.667C1369.05 189.516 1360.12 180.327 1355.66 176.126C1356.97 175.338 1359.13 172.503 1357.23 167.462C1355.34 162.421 1350.15 161.685 1347.78 161.948C1347.52 157.747 1346.05 149.503 1342.27 150.133C1337.54 150.921 1330.45 146.195 1328.09 142.257C1325.73 138.318 1314.7 140.681 1313.13 142.257C1311.87 143.517 1304.72 143.832 1301.31 143.832C1296.32 145.145 1285.87 149.818 1283.98 158.01C1277.94 158.272 1266.65 162.106 1269.81 175.338C1265.08 182.69 1258.46 199.125 1269.81 206.057C1268.76 209.826 1271.7 219.228 1291.86 226.676C1296.59 224.387 1302.52 222.338 1309.98 221.022Z" fill="#FFE5A3"/>
<path d="M1273.74 240.713C1271.38 241.501 1260.35 280.096 1260.35 283.247C1260.35 284.292 1263.33 285.012 1267.44 285.497C1273.24 286.182 1281.28 286.397 1286.35 286.397C1286.45 288.748 1286.26 291.115 1285.83 293.486L1291.07 296.637V345.472C1311.46 343.409 1349.05 339.188 1356.2 336.89C1357.24 336.555 1357.64 336.26 1357.23 336.02C1354.08 334.129 1353.82 295.324 1354.08 276.158L1360.39 286.397L1361.65 285.61L1377.97 275.484L1383.23 272.22L1363.54 235.988C1362.57 232.301 1359.83 229.218 1356.2 226.676C1348.04 220.964 1335.36 217.992 1328.09 217.084C1317.38 225.906 1311.55 223.385 1309.98 221.022C1302.52 222.338 1296.59 224.387 1291.86 226.676C1279.61 232.606 1275.45 240.145 1273.74 240.713Z" fill="#9B66A3"/>
<path d="M1291.07 345.472C1278.73 395.094 1252.63 515.763 1246.96 601.459H1254.05H1269.02H1271.38L1319.43 417.936V601.459H1324.94H1339.91H1345.42C1356.18 533.721 1377.08 397.299 1374.56 393.519C1371.41 388.793 1374.07 370.842 1356.2 336.89C1349.05 339.188 1311.46 343.409 1291.07 345.472Z" fill="#26253D"/>
<path d="M1313.91 619.575C1301.31 621.466 1296.59 627.715 1295.8 630.603C1303.41 633.753 1323.21 638.479 1341.48 632.178C1341.48 629.552 1341.17 623.986 1339.91 622.726C1331.24 624.826 1313.91 627.137 1313.91 619.575Z" fill="#FF837A"/>
<path d="M1224.12 630.603C1220.18 638.479 1272.96 633.753 1269.02 632.178C1267.68 631.642 1267.24 627.759 1267.28 622.726C1246.36 629.657 1242.39 623.514 1243.03 619.575C1238.04 620.626 1227.27 624.301 1224.12 630.603Z" fill="#FF837A"/>
<path d="M1309.98 221.022C1311.55 223.385 1317.38 225.906 1328.09 217.084C1324.94 211.413 1327.83 197.918 1329.67 191.879L1337.54 182.427C1337.54 180.064 1335.97 176.283 1329.67 180.064C1323.37 183.845 1308.14 166.936 1301.31 158.01C1298.16 168.722 1292.12 172.45 1289.5 172.975C1288.24 198.81 1300 207.369 1306.83 209.995L1309.98 221.022Z" fill="#FAD2D2"/>
<path d="M1224.12 358.862C1243.66 347.764 1280.9 320.35 1285.83 293.486C1286.26 291.115 1286.45 288.748 1286.35 286.397C1281.28 286.397 1273.24 286.182 1267.44 285.497C1265.87 296.562 1258.15 322.157 1239.87 336.02H1219.4C1219.92 337.858 1221.6 341.533 1224.12 341.533C1226.64 341.533 1218.35 346.259 1213.88 348.622C1213.95 352.148 1219.87 359.132 1224.12 358.862Z" fill="#FAD2D2"/>
<path d="M1377.97 275.484L1361.65 285.61C1369.37 303.988 1385.28 346.574 1387.17 369.889L1384.02 388.793C1388.43 385.012 1390.05 386.167 1390.32 387.217L1394.25 398.244C1398.98 396.407 1408.12 391.943 1406.86 388.793C1405.28 384.854 1400.56 366.738 1398.19 367.526C1395.83 368.314 1389 289.661 1377.97 275.484Z" fill="#FAD2D2"/>
<path d="M1269.02 601.459H1254.05C1255.31 614.692 1247.23 619.05 1243.03 619.575C1242.39 623.514 1246.36 629.657 1267.28 622.726C1267.34 615.931 1268.26 607.04 1269.02 601.459Z" fill="#FAD2D2"/>
<path d="M1324.94 601.459C1326.52 606.71 1326.52 617.685 1313.91 619.575C1313.91 627.137 1331.24 624.826 1339.91 622.726C1338.65 621.466 1339.38 608.023 1339.91 601.459H1324.94Z" fill="#FAD2D2"/>
<ellipse cx="1294.32" cy="183.214" rx="1.57531" ry="2.36296" fill="#00516A"/>
<path d="M1313.6 194.647C1313.27 196.471 1309.34 200.106 1306.24 199.554C1303.14 199.001 1300.89 197.074 1301.21 195.249C1301.54 193.425 1303.63 194.886 1307.11 194.304C1310.21 194.857 1313.92 192.823 1313.6 194.647Z" fill="white"/>
<path d="M1313.6 194.647C1313.27 196.471 1309.34 200.106 1306.24 199.554C1303.14 199.001 1300.89 197.074 1301.21 195.249C1301.54 193.425 1303.63 194.886 1307.11 194.304C1310.21 194.857 1313.92 192.823 1313.6 194.647Z" fill="white"/>
<path d="M1295.79 177.381C1295.65 176.675 1293.84 176.42 1291.73 176.812C1289.63 177.204 1288.03 178.093 1288.16 178.799C1288.29 179.505 1289.95 178.908 1292.05 178.516C1294.16 178.124 1295.92 178.087 1295.79 177.381Z" fill="white"/>
<path d="M1295.79 177.381C1295.65 176.675 1293.84 176.42 1291.73 176.812C1289.63 177.204 1288.03 178.093 1288.16 178.799C1288.29 179.505 1289.95 178.908 1292.05 178.516C1294.16 178.124 1295.92 178.087 1295.79 177.381Z" fill="#DFBE6B"/>
<path d="M1316.05 171.054C1315.81 170.375 1314.03 170.374 1312.06 171.052C1310.09 171.73 1308.69 172.83 1308.92 173.509C1309.16 174.187 1310.66 173.369 1312.63 172.691C1314.59 172.013 1316.28 171.732 1316.05 171.054Z" fill="white"/>
<path d="M1316.05 171.054C1315.81 170.375 1314.03 170.374 1312.06 171.052C1310.09 171.73 1308.69 172.83 1308.92 173.509C1309.16 174.187 1310.66 173.369 1312.63 172.691C1314.59 172.013 1316.28 171.732 1316.05 171.054Z" fill="#DFBE6B"/>
<ellipse cx="1313.23" cy="178.488" rx="1.57531" ry="2.36296" fill="#00516A"/>
<path d="M752.365 568.191C768.118 553.488 801.987 518.096 811.439 494.151C814.065 513.843 818.686 557.321 816.165 573.705C817.153 573.839 818.205 573.972 819.316 574.102C839.735 576.495 880.046 577.937 910.684 568.705C914.243 567.633 917.672 566.416 920.923 565.04C914.36 531.434 900.602 463.906 898.081 462.645C909.371 465.271 937.149 475.563 957.943 495.727L960.59 493.079L968.97 484.7L973.696 479.974C946.391 451.356 882.958 398.688 847.671 416.961C844.258 421.687 835.227 429.249 826.405 421.687C818.266 421.162 797.419 434.92 779.146 494.151L734.249 551.65L738.187 555.246L747.639 563.876L752.365 568.191Z" fill="#FF837A"/>
<path d="M901.232 765.893C882.328 703.51 899.657 608.442 910.684 568.705C880.046 577.937 839.735 576.495 819.316 574.102L792.536 657.196C790.173 664.285 792.536 736.487 794.899 774.557H796.474H816.953H822.466C816.165 651.052 842.946 611.775 857.123 607.574C849.562 676.257 863.95 746.464 872.089 772.981L879.965 771.065L899.657 766.276L901.232 765.893Z" fill="black"/>
<path d="M879.965 771.065L884.691 780.07L901.232 775.344C897.451 770.303 898.606 767.198 899.657 766.276L879.965 771.065Z" fill="#FFE4C5"/>
<path d="M817.741 786.372L816.953 774.557H796.474L801.2 786.372C806.451 786.634 817.11 787.002 817.741 786.372Z" fill="#FFE4C5"/>
<path d="M817.741 808.426C824.672 805.905 820.629 792.673 817.741 786.372C817.11 787.002 806.451 786.634 801.2 786.372C778.515 794.563 773.894 804.488 774.42 808.426C785.972 809.476 810.809 810.946 817.741 808.426Z" fill="white"/>
<path d="M884.691 780.07C875.764 786.897 859.014 801.652 863.425 806.063C867.835 810.474 895.193 800.549 908.321 795.036C907.533 790.572 905.013 780.385 901.232 775.344L884.691 780.07Z" fill="white"/>
<path d="M738.187 555.246C732.674 558.248 721.489 564.725 720.859 566.616C720.229 568.506 725.848 567.929 728.736 567.404L723.222 581.581C725.322 582.894 730.783 584.889 735.824 582.369C740.865 579.848 745.801 568.99 747.639 563.876L738.187 555.246Z" fill="#FFE4C5"/>
<path d="M960.59 493.079C961.283 498.688 962.984 509.905 964.244 509.905C965.505 509.905 966.87 505.704 967.395 503.603C971.596 505.966 980.155 511.322 980.785 513.843C981.573 516.994 990.237 500.453 986.299 500.453C982.36 500.453 973.696 479.974 968.97 484.7L960.59 493.079Z" fill="#FFE4C5"/>
<path d="M826.405 421.687C835.227 429.249 844.258 421.687 847.671 416.961C846.036 417.749 836.644 390.969 838.22 392.544C839.48 393.804 842.42 388.343 843.733 385.455C843.733 384.142 843.103 381.517 840.583 381.517C838.062 381.517 835.332 384.142 834.281 385.455C833.476 383.04 832.517 381.155 831.495 379.698C829.608 377.058 826.861 374.855 823.254 375.216L820.891 370.49C816.953 373.903 808.919 380.572 808.289 379.942C807.659 379.311 808.026 374.428 808.289 372.065L794.482 387.844C795.834 392.35 796.129 393.876 797.646 397.27C806.734 417.605 818.079 419.211 823.254 416.961L826.405 421.687Z" fill="#FFE4C5"/>
<ellipse cx="804.351" cy="393.331" rx="1.57531" ry="2.36296" fill="#00398E"/>
<path d="M823.546 403.632C823.587 403.971 823.495 404.514 823.236 405.184C822.983 405.839 822.591 406.565 822.097 407.25C821.09 408.644 819.744 409.759 818.388 409.924C816.897 410.106 815.528 409.911 814.525 409.474C813.51 409.033 812.958 408.392 812.876 407.72C812.835 407.381 812.917 407.269 813.005 407.194C813.148 407.072 813.416 406.968 813.91 406.851C814.077 406.811 814.26 406.772 814.459 406.73C815.358 406.537 816.568 406.279 817.888 405.632C819.328 405.435 820.721 404.726 821.782 404.187C821.929 404.112 822.07 404.04 822.203 403.974C822.49 403.831 822.74 403.712 822.959 403.626C823.182 403.537 823.34 403.495 823.447 403.486C823.478 403.483 823.498 403.484 823.512 403.485C823.521 403.506 823.536 403.55 823.546 403.632ZM823.531 403.488C823.531 403.488 823.53 403.488 823.528 403.487C823.53 403.488 823.531 403.488 823.531 403.488ZM823.503 403.468C823.503 403.468 823.503 403.468 823.503 403.468L823.503 403.468Z" fill="white"/>
<path d="M823.546 403.632C823.587 403.971 823.495 404.514 823.236 405.184C822.983 405.839 822.591 406.565 822.097 407.25C821.09 408.644 819.744 409.759 818.388 409.924C816.897 410.106 815.528 409.911 814.525 409.474C813.51 409.033 812.958 408.392 812.876 407.72C812.835 407.381 812.917 407.269 813.005 407.194C813.148 407.072 813.416 406.968 813.91 406.851C814.077 406.811 814.26 406.772 814.459 406.73C815.358 406.537 816.568 406.279 817.888 405.632C819.328 405.435 820.721 404.726 821.782 404.187C821.929 404.112 822.07 404.04 822.203 403.974C822.49 403.831 822.74 403.712 822.959 403.626C823.182 403.537 823.34 403.495 823.447 403.486C823.478 403.483 823.498 403.484 823.512 403.485C823.521 403.506 823.536 403.55 823.546 403.632ZM823.531 403.488C823.531 403.488 823.53 403.488 823.528 403.487C823.53 403.488 823.531 403.488 823.531 403.488ZM823.503 403.468C823.503 403.468 823.503 403.468 823.503 403.468L823.503 403.468Z" fill="white"/>
<path d="M823.546 403.632C823.587 403.971 823.495 404.514 823.236 405.184C822.983 405.839 822.591 406.565 822.097 407.25C821.09 408.644 819.744 409.759 818.388 409.924C816.897 410.106 815.528 409.911 814.525 409.474C813.51 409.033 812.958 408.392 812.876 407.72C812.835 407.381 812.917 407.269 813.005 407.194C813.148 407.072 813.416 406.968 813.91 406.851C814.077 406.811 814.26 406.772 814.459 406.73C815.358 406.537 816.568 406.279 817.888 405.632C819.328 405.435 820.721 404.726 821.782 404.187C821.929 404.112 822.07 404.04 822.203 403.974C822.49 403.831 822.74 403.712 822.959 403.626C823.182 403.537 823.34 403.495 823.447 403.486C823.478 403.483 823.498 403.484 823.512 403.485C823.521 403.506 823.536 403.55 823.546 403.632ZM823.531 403.488C823.531 403.488 823.53 403.488 823.528 403.487C823.53 403.488 823.531 403.488 823.531 403.488ZM823.503 403.468C823.503 403.468 823.503 403.468 823.503 403.468L823.503 403.468Z" stroke="#F5F5F5"/>
<path d="M805.591 386.472C805.276 385.827 803.46 386.065 801.535 387.005C799.61 387.944 798.305 389.229 798.62 389.874C798.934 390.519 800.37 389.502 802.295 388.563C804.221 387.623 805.906 387.117 805.591 386.472Z" fill="white"/>
<path d="M805.591 386.472C805.276 385.827 803.46 386.065 801.535 387.005C799.61 387.944 798.305 389.229 798.62 389.874C798.934 390.519 800.37 389.502 802.295 388.563C804.221 387.623 805.906 387.117 805.591 386.472Z" fill="#867851"/>
<path d="M824.499 381.171C824.265 380.492 822.481 380.491 820.514 381.169C818.547 381.847 817.143 382.947 817.377 383.626C817.611 384.304 819.112 383.486 821.079 382.808C823.046 382.13 824.733 381.85 824.499 381.171Z" fill="white"/>
<path d="M824.499 381.171C824.265 380.492 822.481 380.491 820.514 381.169C818.547 381.847 817.143 382.947 817.377 383.626C817.611 384.304 819.112 383.486 821.079 382.808C823.046 382.13 824.733 381.85 824.499 381.171Z" fill="#867851"/>
<ellipse cx="823.255" cy="388.605" rx="1.57531" ry="2.36296" fill="#00398E"/>
<path d="M808.24 372.402C807.715 375.027 806.98 380.278 808.24 380.278C809.5 380.278 817.692 373.977 821.63 370.826L823.205 375.552C825.043 374.765 829.822 375.71 834.233 385.792C835.545 384.217 838.801 381.223 841.321 381.854C843.842 382.484 842.372 387.892 841.321 390.518L838.171 392.881L838.958 396.819L844.472 390.518C846.572 385.004 849.671 371.299 845.26 360.587C839.746 347.197 841.321 351.923 826.356 344.046C811.391 336.17 806.665 351.135 797.213 349.56C787.761 347.984 777.521 370.826 780.672 375.552C782.247 373.189 785.555 368.621 786.186 369.251C783.823 373.977 779.727 383.429 782.247 383.429C782.772 382.379 784.295 380.278 786.186 380.278C788.549 380.278 784.61 397.607 788.549 396.819C791.699 396.189 802.989 380.278 808.24 372.402Z" fill="#71655C"/>
<path d="M664.887 924.605V1057.72V1109.11H1374.56V633.173H1203.64V713.514H1115.43H1044.54V809.608H953.956H838.958V924.605H749.166H664.887Z" fill="#628DD2"/>
<path d="M1203.64 713.514V633.173H1115.43V713.514H1203.64Z" fill="#437DC3"/>
<path d="M1044.54 809.608V713.514H953.956V809.608H1044.54Z" fill="#437DC3"/>
<path d="M838.958 924.605V809.608H749.166V924.605H838.958Z" fill="#437DC3"/>
<path d="M664.887 924.605H572.731V1057.72L664.887 1109.11V1057.72V924.605Z" fill="#437DC3"/>
<path d="M1689.24 548.117C1545.05 620.631 1199.85 808.117 1372.79 1106.5L1689.24 548.117Z" fill="#719FF0"/>
<path d="M1372.79 1106.5C1495.28 1089.89 1716.83 977.765 1689.24 548.117L1372.79 1106.5Z" fill="#85B5FA"/>
<path d="M1686.38 548.799L1531.58 823.855M1445.61 977.32L1482.15 912.103M1482.15 912.103L1589.56 854.297M1482.15 912.103L1531.58 823.855M1531.58 823.855L1504.72 687.924" stroke="black"/>
<path d="M1283.96 705.939C1233.19 818.178 1118.29 1095.14 1364.15 1189.22L1283.96 705.939Z" fill="#719FF0"/>
<path d="M1364.15 1189.22C1428.88 1120.57 1506.55 947.696 1283.96 705.939L1364.15 1189.22Z" fill="#85B5FA"/>
<path d="M1282.59 707.717L1322.73 945.26M1345.37 1077.6L1335.75 1021.36M1335.75 1021.36L1371.75 935.5M1335.75 1021.36L1322.73 945.26M1322.73 945.26L1241.55 877.476" stroke="black"/>
<path d="M1745.7 804.422C1612.53 831.545 1290.66 907.757 1365.38 1188.38L1555.54 996.401L1745.7 804.422Z" fill="#354DCE"/>
<path d="M1365.38 1188.38C1468.58 1201.9 1673.35 1159.65 1745.7 804.422L1555.54 996.401L1365.38 1188.38Z" fill="#85B5FA"/>
<path d="M1365.38 1188.38C1468.58 1201.9 1673.35 1159.65 1745.7 804.422M1365.38 1188.38C1290.66 907.757 1612.53 831.545 1745.7 804.422M1365.38 1188.38L1555.54 996.401M1745.7 804.422L1555.54 996.401M1555.54 996.401L1643.15 984.468" stroke="#354DCE"/>
<path d="M1260.85 1009.77C1261.96 1007 1270.84 991.422 1274.69 1004.23C1278.54 1017.04 1259.75 1012.54 1260.85 1009.77Z" fill="#3649CF" stroke="#3249D5"/>
<path d="M1249.59 1026.29C1252.19 1024.83 1268.88 1018.28 1263.84 1030.67C1258.79 1043.05 1246.99 1027.75 1249.59 1026.29Z" fill="#3649CF"/>
<path d="M1241.54 1046.29C1245.22 1044.23 1268.81 1034.98 1261.68 1052.48C1254.55 1069.98 1237.87 1048.36 1241.54 1046.29Z" fill="#3649CF"/>
<path d="M1232.68 1071.54C1237.81 1068.66 1270.73 1055.75 1260.78 1080.18C1250.83 1104.6 1227.55 1074.42 1232.68 1071.54Z" fill="#3649CF"/>
<path d="M1228.54 1072.23C1228.19 1067.02 1220.92 1035.38 1204.62 1051.63C1188.33 1067.88 1228.89 1077.45 1228.54 1072.23Z" fill="#3649CF"/>
<path d="M1221.63 1097.39C1219.71 1091.75 1202.37 1059.04 1189.21 1081.74C1176.06 1104.44 1223.55 1103.02 1221.63 1097.39Z" fill="#3649CF"/>
<path d="M1213.9 1132.17C1211.27 1125.83 1188.91 1089.51 1175.47 1116.58C1162.03 1143.65 1216.52 1138.5 1213.9 1132.17Z" fill="#3649CF"/>
<path d="M1205.04 1166.49C1202.41 1160.15 1180.06 1123.84 1166.61 1150.9C1153.17 1177.97 1207.66 1172.83 1205.04 1166.49Z" fill="#3649CF"/>
<path d="M1209.5 1167.9C1214.32 1162.81 1249.61 1136.14 1254.8 1166.34C1259.99 1196.55 1204.67 1172.99 1209.5 1167.9Z" fill="#3649CF"/>
<path d="M1217.6 1133.24C1222.36 1128.32 1256.33 1102.86 1258.59 1132.94C1260.85 1163.03 1212.84 1138.15 1217.6 1133.24Z" fill="#3649CF"/>
<path d="M1223.6 1099.51C1228.12 1096.26 1259.12 1080.75 1256.94 1105.19C1254.76 1129.62 1219.08 1102.77 1223.6 1099.51Z" fill="#3649CF"/>
<path d="M1241.49 1011.22C1243.63 1013.88 1254.27 1030.92 1239.72 1025.76C1225.17 1020.59 1239.36 1008.57 1241.49 1011.22Z" fill="#3649CF"/>
<path d="M1231.01 1028.37C1233.72 1031.73 1247.2 1053.34 1228.76 1046.79C1210.33 1040.25 1228.3 1025 1231.01 1028.37Z" fill="#3649CF"/>
<path d="M1206.89 1172.84C1229.85 1049.85 1252.43 1013.25 1260.85 1010.32" stroke="#3645CF"/>
<path d="M1173.43 979.554C1173.66 976.031 1177.86 955.341 1186.48 968.678C1195.09 982.014 1173.19 983.077 1173.43 979.554Z" fill="#0E0857" stroke="#0F0759"/>
<path d="M1166.98 1002.11C1169.28 999.583 1185.07 986.612 1183.92 1002.4C1182.76 1018.19 1164.67 1004.63 1166.98 1002.11Z" fill="#0E0857"/>
<path d="M1165.23 1027.57C1168.48 1024 1190.79 1005.67 1189.16 1027.98C1187.53 1050.29 1161.97 1031.13 1165.23 1027.57Z" fill="#0E0857"/>
<path d="M1164.41 1059.28C1168.96 1054.31 1200.09 1028.73 1197.81 1059.86C1195.54 1090.99 1159.86 1064.26 1164.41 1059.28Z" fill="#0E0857"/>
<path d="M1160.18 1061.44C1157.99 1055.61 1139.11 1021.93 1127.13 1045.83C1115.15 1069.73 1162.37 1067.26 1160.18 1061.44Z" fill="#0E0857"/>
<path d="M1161.43 1092.4C1157.4 1086.6 1127.27 1055.03 1120.92 1085.25C1114.57 1115.47 1165.47 1098.19 1161.43 1092.4Z" fill="#0E0857"/>
<path d="M1165.16 1134.6C1160.11 1128.24 1123.3 1094.21 1118.16 1129.51C1113.02 1164.8 1170.2 1140.97 1165.16 1134.6Z" fill="#0E0857"/>
<path d="M1167.5 1176.66C1162.46 1170.3 1125.65 1136.27 1120.51 1171.56C1115.37 1206.86 1172.54 1183.02 1167.5 1176.66Z" fill="#0E0857"/>
<path d="M1172.81 1176.8C1176.26 1169.4 1205.19 1127.35 1221.3 1160.08C1237.41 1192.81 1169.36 1184.2 1172.81 1176.8Z" fill="#0E0857"/>
<path d="M1169.53 1134.6C1172.98 1127.43 1200.88 1087.19 1213.78 1120.75C1226.68 1154.31 1166.09 1141.78 1169.53 1134.6Z" fill="#0E0857"/>
<path d="M1164.31 1094.17C1168.07 1088.97 1196.22 1061.06 1202.36 1089.64C1208.49 1118.22 1160.55 1099.37 1164.31 1094.17Z" fill="#0E0857"/>
<path d="M1152.98 987.597C1156.22 989.92 1173.65 1005.85 1156.12 1004.76C1138.58 1003.67 1149.75 985.275 1152.98 987.597Z" fill="#0E0857"/>
<path d="M1147.6 1010.61C1151.7 1013.55 1173.79 1033.74 1151.57 1032.36C1129.35 1030.97 1143.5 1007.66 1147.6 1010.61Z" fill="#0E0857"/>
<path d="M1171.71 1183.29C1153.81 1035.48 1165.52 986.301 1173.62 980.187" stroke="#0B084D"/>
<path d="M511.147 953.056C510.161 950.287 502.242 934.711 498.812 947.52C495.383 960.329 512.133 955.826 511.147 953.056Z" fill="#2637B0" stroke="#3249D5"/>
<path d="M521.187 969.576C518.869 968.115 503.991 961.568 508.488 973.955C512.985 986.341 523.504 971.037 521.187 969.576Z" fill="#2637B0"/>
<path d="M528.356 989.581C525.081 987.516 504.057 978.265 510.411 995.768C516.766 1013.27 531.63 991.645 528.356 989.581Z" fill="#2637B0"/>
<path d="M536.255 1014.83C531.685 1011.95 502.346 999.039 511.213 1023.46C520.081 1047.89 540.824 1017.71 536.255 1014.83Z" fill="#2637B0"/>
<path d="M539.942 1015.52C540.253 1010.31 546.74 978.668 561.261 994.917C575.782 1011.17 539.631 1020.74 539.942 1015.52Z" fill="#2637B0"/>
<path d="M546.106 1040.68C547.817 1035.04 563.271 1002.33 574.996 1025.03C586.721 1047.73 544.395 1046.31 546.106 1040.68Z" fill="#2637B0"/>
<path d="M552.997 1075.46C555.336 1069.12 575.261 1032.8 587.242 1059.87C599.223 1086.94 550.657 1081.79 552.997 1075.46Z" fill="#2637B0"/>
<path d="M560.891 1109.78C563.23 1103.44 583.156 1067.13 595.136 1094.19C607.117 1121.26 558.551 1116.12 560.891 1109.78Z" fill="#2637B0"/>
<path d="M556.918 1111.19C552.619 1106.1 521.163 1079.43 516.538 1109.63C511.913 1139.84 561.218 1116.28 556.918 1111.19Z" fill="#2637B0"/>
<path d="M549.696 1076.53C545.454 1071.61 515.18 1046.15 513.166 1076.23C511.152 1106.32 553.937 1081.44 549.696 1076.53Z" fill="#2637B0"/>
<path d="M544.347 1042.8C540.316 1039.55 512.69 1024.04 514.632 1048.47C516.573 1072.91 548.377 1046.06 544.347 1042.8Z" fill="#2637B0"/>
<path d="M528.401 954.51C526.496 957.165 517.017 974.211 529.982 969.047C542.946 963.883 530.306 951.855 528.401 954.51Z" fill="#2637B0"/>
<path d="M537.744 971.657C535.329 975.022 523.316 996.626 539.747 990.081C556.178 983.536 540.158 968.291 537.744 971.657Z" fill="#2637B0"/>
<path d="M559.238 1116.13C538.779 993.137 518.652 956.537 511.146 953.611" stroke="#3645CF"/>
<defs>
<radialGradient id="paint0_radial_5_4" cx="0" cy="0" r="1" gradientUnits="userSpaceOnUse" gradientTransform="translate(856.5 1092) rotate(90) scale(127 856.5)">
<stop stop-color="#628DD2"/>
<stop offset="1" stop-color="#D9D9D9" stop-opacity="0"/>
</radialGradient>
</defs>
</svg>
