<svg width="105" height="105" viewBox="0 0 105 105" fill="none" xmlns="http://www.w3.org/2000/svg">
<path d="M65.625 4.92188H3.28125V67.2656H39.375V101.719H101.719V39.375H65.625V4.92188ZM30.4141 19.6875L20.1167 49.0752H27.0703L28.745 44.2969H39.375V60.7031H9.84375V11.4844H59.0625V39.375H45.3904L38.4932 19.6875H30.4141ZM37.8619 37.7344H31.0443L34.4531 28.0059L37.8619 37.7344ZM95.1562 45.9375V95.1562H45.9375V45.9375H95.1562Z" fill="black" fill-opacity="0.21"/>
<path d="M65.0984 75.5672C65.726 76.5753 66.4171 77.5424 67.1674 78.4629C64.7885 79.7459 62.0869 80.3884 59.0625 80.3906V86.9531C64.0133 86.9531 68.4366 85.639 72.1875 83.0927C75.9384 85.639 80.3617 86.9531 85.3125 86.9531V80.3906C82.2944 80.3906 79.5929 79.7476 77.2078 78.4615C77.9581 77.5415 78.6491 76.5748 79.2766 75.5672C81.1681 72.4923 82.559 69.1364 83.3975 65.625H86.9531V59.0625H75.4688V54.1406H68.9062V59.0625H57.4219V65.625H60.9775C61.816 69.1364 63.2069 72.4923 65.0984 75.5672ZM76.6028 65.625C75.9239 67.8962 74.9519 70.0692 73.7112 72.0891C73.2477 72.8338 72.7388 73.5494 72.1875 74.2317C71.6763 73.5997 71.2018 72.9389 70.7663 72.2525C69.4753 70.1877 68.4679 67.9585 67.7713 65.625H76.6028Z" fill="black" fill-opacity="0.21"/>
</svg>
