<svg width="28" height="28" viewBox="0 0 28 28" fill="none" xmlns="http://www.w3.org/2000/svg">
<path d="M4.66683 23.3333C4.02516 23.3333 3.47566 23.1046 3.01833 22.6473C2.561 22.19 2.33272 21.6409 2.3335 21V6.99996C2.3335 6.35829 2.56216 5.80879 3.0195 5.35146C3.47683 4.89413 4.02594 4.66585 4.66683 4.66663H23.3335C23.9752 4.66663 24.5247 4.89529 24.982 5.35263C25.4393 5.80996 25.6676 6.35907 25.6668 6.99996V21C25.6668 21.6416 25.4382 22.1911 24.9808 22.6485C24.5235 23.1058 23.9744 23.3341 23.3335 23.3333H4.66683ZM14.0002 15.1666L4.66683 9.3333V21H23.3335V9.3333L14.0002 15.1666ZM14.0002 12.8333L23.3335 6.99996H4.66683L14.0002 12.8333ZM4.66683 9.3333V6.99996V21V9.3333Z" fill="white"/>
</svg>
