<svg width="28" height="28" viewBox="0 0 28 28" fill="none" xmlns="http://www.w3.org/2000/svg">
<path d="M4.66671 23.3334C4.02504 23.3334 3.47554 23.1048 3.01821 22.6474C2.56088 22.1901 2.3326 21.641 2.33338 21.0001V7.00008C2.33338 6.35842 2.56204 5.80892 3.01938 5.35158C3.47671 4.89425 4.02582 4.66597 4.66671 4.66675H23.3334C23.975 4.66675 24.5245 4.89542 24.9819 5.35275C25.4392 5.81008 25.6675 6.35919 25.6667 7.00008V21.0001C25.6667 21.6418 25.438 22.1913 24.9807 22.6486C24.5234 23.1059 23.9743 23.3342 23.3334 23.3334H4.66671ZM14 15.1668L4.66671 9.33342V21.0001H23.3334V9.33342L14 15.1668ZM14 12.8334L23.3334 7.00008H4.66671L14 12.8334ZM4.66671 9.33342V7.00008V21.0001V9.33342Z" fill="black"/>
</svg>
