<svg width="25" height="22" viewBox="0 0 25 22" fill="none" xmlns="http://www.w3.org/2000/svg">
<path d="M0.895783 2.80728H23.1471C23.4019 2.80728 23.6188 2.67939 23.798 2.42361C23.9771 2.16781 24.0667 1.85389 24.0667 1.48184C24.0667 1.12141 23.9771 0.813299 23.798 0.557511C23.6188 0.301722 23.4019 0.173828 23.1471 0.173828H0.895783C0.648946 0.173828 0.437939 0.301722 0.262763 0.557511C0.0875878 0.813299 0 1.12141 0 1.48184C0 1.85389 0.0875878 2.16781 0.262763 2.42361C0.437939 2.67939 0.648946 2.80728 0.895783 2.80728ZM0.895783 11.9459H23.1471C23.4019 11.9459 23.6188 11.818 23.798 11.5622C23.9771 11.3064 24.0667 10.9925 24.0667 10.6204C24.0667 10.2484 23.9771 9.93738 23.798 9.6874C23.6188 9.43743 23.4019 9.31244 23.1471 9.31244H0.895783C0.648946 9.31244 0.437939 9.43743 0.262763 9.6874C0.0875878 9.93738 0 10.2484 0 10.6204C0 10.9925 0.0875878 11.3064 0.262763 11.5622C0.437939 11.818 0.648946 11.9459 0.895783 11.9459ZM0.895783 21.0845H17.0824C17.3372 21.0845 17.5542 20.9566 17.7333 20.7007C17.9125 20.445 18.002 20.1311 18.002 19.7591C18.002 19.387 17.9125 19.076 17.7333 18.8259C17.5542 18.576 17.3372 18.4511 17.0824 18.4511H0.895783C0.648946 18.4511 0.437939 18.576 0.262763 18.8259C0.0875878 19.076 0 19.387 0 19.7591C0 20.1311 0.0875878 20.445 0.262763 20.7007C0.437939 20.9566 0.648946 21.0845 0.895783 21.0845Z" fill="black" fill-opacity="0.3"/>
</svg>
