<svg width="25" height="25" viewBox="0 0 25 25" fill="none" xmlns="http://www.w3.org/2000/svg">
<g clip-path="url(#clip0_96_75)">
<path d="M0.491033 24.5125C0.704005 24.725 0.95456 24.8688 1.2427 24.9438C1.53084 25.0188 1.82211 25.0188 2.11651 24.9438C2.41091 24.8688 2.66459 24.725 2.87756 24.5125L12.4989 14.8913L22.139 24.5125C22.352 24.725 22.6025 24.8688 22.8906 24.9438C23.1788 25.0188 23.4669 25.0188 23.755 24.9438C24.0431 24.8688 24.2937 24.725 24.5066 24.5125C24.7321 24.2999 24.8793 24.0468 24.9482 23.7529C25.0173 23.4591 25.0173 23.1684 24.9482 22.8808C24.8793 22.5933 24.7321 22.3432 24.5066 22.1305L14.8854 12.5094L24.5066 2.90706C24.7321 2.69451 24.8793 2.44445 24.9482 2.15688C25.0173 1.8693 25.0173 1.57861 24.9482 1.28478C24.8793 0.990959 24.7321 0.737772 24.5066 0.52522C24.2937 0.312666 24.0431 0.16888 23.755 0.0938616C23.4669 0.018843 23.1788 0.018843 22.8906 0.0938616C22.6025 0.16888 22.352 0.312666 22.139 0.52522L12.4989 10.1464L2.87756 0.52522C2.66459 0.312666 2.41091 0.16888 2.11651 0.0938616C1.82211 0.018843 1.53084 0.018843 1.2427 0.0938616C0.95456 0.16888 0.704005 0.312666 0.491033 0.52522C0.265534 0.737772 0.118333 0.990959 0.04943 1.28478C-0.0194725 1.57861 -0.0163405 1.8693 0.058826 2.15688C0.133992 2.44445 0.278061 2.69451 0.491033 2.90706L10.1311 12.5094L0.491033 22.1305C0.278061 22.3432 0.133992 22.5933 0.058826 22.8808C-0.0163405 23.1684 -0.0194725 23.4591 0.04943 23.7529C0.118333 24.0468 0.265534 24.2999 0.491033 24.5125Z" fill="#B2B2B2"/>
</g>
<defs>
<clipPath id="clip0_96_75">
<rect width="25" height="25" fill="white"/>
</clipPath>
</defs>
</svg>
