<svg width="20" height="21" viewBox="0 0 20 21" fill="none" xmlns="http://www.w3.org/2000/svg">
<g clip-path="url(#clip0_7_4475)">
<path d="M5.48004 15.4261C6.51563 16.4712 7.60876 17.4147 8.75943 18.2566C9.91009 19.0985 11.0608 19.7662 12.2114 20.2597C13.3621 20.7532 14.4516 21 15.48 21C16.1776 21 16.8284 20.873 17.4325 20.619C18.0367 20.3649 18.5832 19.9658 19.0722 19.4215C19.3599 19.1021 19.5864 18.7592 19.7519 18.3926C19.9173 18.0262 20 17.6579 20 17.2877C20 17.0119 19.9461 16.7488 19.8382 16.4984C19.7303 16.248 19.5469 16.0321 19.288 15.8507L15.9763 13.4774C15.7245 13.3033 15.4908 13.1726 15.275 13.0855C15.0593 12.9984 14.8544 12.9549 14.6602 12.9549C14.4157 12.9549 14.1784 13.022 13.9482 13.1563C13.7181 13.2905 13.4808 13.4811 13.2362 13.7279L12.4704 14.4898C12.3625 14.606 12.2258 14.6641 12.0604 14.6641C11.9741 14.6641 11.8932 14.6495 11.8176 14.6205C11.7421 14.5915 11.6792 14.5661 11.6288 14.5443C11.2909 14.3628 10.8594 14.0489 10.3344 13.6026C9.80941 13.1563 9.28082 12.6646 8.74864 12.1275C8.22365 11.5904 7.73821 11.057 7.29233 10.5272C6.84644 9.99739 6.5372 9.56556 6.36461 9.23171C6.33584 9.17365 6.30888 9.10651 6.2837 9.03031C6.25853 8.95411 6.24595 8.87609 6.24595 8.79625C6.24595 8.63658 6.29988 8.50232 6.40775 8.39346L7.17367 7.59874C7.41099 7.35199 7.59798 7.11248 7.73461 6.88024C7.87125 6.64799 7.93958 6.40849 7.93958 6.16172C7.93958 5.96577 7.89463 5.75892 7.80473 5.54119C7.71484 5.32346 7.58 5.08759 7.40021 4.83358L5.0809 1.53498C4.89391 1.2737 4.67097 1.08319 4.41207 0.96344C4.15318 0.843689 3.87989 0.783813 3.59222 0.783813C2.85148 0.783813 2.15749 1.09952 1.51025 1.73093C0.985256 2.23897 0.6023 2.79962 0.36138 3.41289C0.12046 4.02617 0 4.68117 0 5.3779C0 6.423 0.24092 7.52072 0.722761 8.67106C1.2046 9.82139 1.85904 10.9735 2.68608 12.1275C3.51312 13.2814 4.44444 14.381 5.48004 15.4261Z" fill="white"/>
</g>
<defs>
<clipPath id="clip0_7_4475">
<rect width="20" height="21" fill="white"/>
</clipPath>
</defs>
</svg>
