<svg width="60" height="60" viewBox="0 0 60 60" fill="none" xmlns="http://www.w3.org/2000/svg">
<g clip-path="url(#clip0_246_137)">
<path d="M58.875 30C58.875 46.0182 45.9173 59 29.9375 59C13.9577 59 1 46.0182 1 30C1 13.9818 13.9577 1 29.9375 1C45.9173 1 58.875 13.9818 58.875 30Z" stroke="white" stroke-width="2"/>
<path d="M42.3613 23.5738L34.0488 15.2613C33.8819 15.0942 33.6556 15.0002 33.4194 15H19.1694C18.6183 15 18.0897 15.2189 17.7 15.6087C17.3103 15.9984 17.0913 16.527 17.0913 17.0781V43.2031C17.0913 43.7543 17.3103 44.2829 17.7 44.6726C18.0897 45.0623 18.6183 45.2812 19.1694 45.2812H40.5444C41.0956 45.2812 41.6242 45.0623 42.0139 44.6726C42.4036 44.2829 42.6226 43.7543 42.6226 43.2031V24.2031C42.6224 23.967 42.5284 23.7406 42.3613 23.5738ZM34.3101 18.04L39.5826 23.3125H34.3101V18.04ZM40.5444 43.5H19.1694C19.0907 43.5 19.0152 43.4687 18.9595 43.413C18.9038 43.3574 18.8726 43.2819 18.8726 43.2031V17.0781C18.8726 16.9994 18.9038 16.9239 18.9595 16.8682C19.0152 16.8125 19.0907 16.7812 19.1694 16.7812H32.5288V24.2031C32.5288 24.4393 32.6226 24.6659 32.7897 24.8329C32.9567 24.9999 33.1832 25.0938 33.4194 25.0938H40.8413V43.2031C40.8413 43.2819 40.81 43.3574 40.7544 43.413C40.6987 43.4687 40.6232 43.5 40.5444 43.5Z" fill="white"/>
</g>
<defs>
<clipPath id="clip0_246_137">
<rect width="60" height="60" fill="white"/>
</clipPath>
</defs>
</svg>
