<svg width="60" height="60" viewBox="0 0 60 60" fill="none" xmlns="http://www.w3.org/2000/svg">
<path d="M58.875 30C58.875 46.0182 45.9173 59 29.9375 59C13.9577 59 1 46.0182 1 30C1 13.9818 13.9577 1 29.9375 1C45.9173 1 58.875 13.9818 58.875 30Z" stroke="white" stroke-width="2"/>
<path d="M14.8438 27.875H16.5383M16.5383 27.875H42.3382M16.5383 27.875C16.5578 27.7905 16.5789 27.7093 16.6032 27.6264C16.69 27.3672 16.7929 27.1138 16.9113 26.8675L19.4199 21.2125C19.9145 20.0961 20.1626 19.5355 20.5551 19.126C20.9021 18.7636 21.327 18.4874 21.7972 18.3168C22.3307 18.125 22.9405 18.125 24.1615 18.125H34.715C35.9345 18.125 36.5474 18.125 37.0793 18.3168C37.5496 18.4874 37.9745 18.7636 38.3199 19.126C38.7123 19.5355 38.9604 20.0945 39.455 21.2109L41.9734 26.887C42.1339 27.2494 42.2166 27.4346 42.2734 27.6264C42.2977 27.7076 42.3188 27.7905 42.3382 27.875M16.5383 27.875C16.518 27.9685 16.5018 28.0628 16.4897 28.1577C16.4654 28.3625 16.4654 28.5673 16.4654 28.98V37.625M42.3382 27.875H44.0328M42.3382 27.875C42.3593 27.9692 42.3739 28.0635 42.3853 28.1577C42.4112 28.3592 42.4112 28.564 42.4112 28.9702V37.625M16.4654 37.625H22.9518M16.4654 37.625V39.25C16.4654 40.112 16.8071 40.9386 17.4153 41.5481C18.0235 42.1576 18.8484 42.5 19.7086 42.5C20.5688 42.5 21.3937 42.1576 22.0019 41.5481C22.6101 40.9386 22.9518 40.112 22.9518 39.25V37.625M42.4112 37.625H35.9247M42.4112 37.625V39.25C42.4112 40.112 42.0695 40.9386 41.4613 41.5481C40.8531 42.1576 40.0281 42.5 39.168 42.5C38.3078 42.5 37.4829 42.1576 36.8747 41.5481C36.2664 40.9386 35.9247 40.112 35.9247 39.25V37.625M35.9247 37.625H22.9518" stroke="white" stroke-width="2" stroke-linecap="round" stroke-linejoin="round"/>
</svg>
