<svg width="60" height="60" viewBox="0 0 60 60" fill="none" xmlns="http://www.w3.org/2000/svg">
<circle cx="30" cy="30" r="29" stroke="#8C8C8C" stroke-width="2"/>
<path d="M43.27 22.5738L34.9575 14.2613C34.7906 14.0942 34.5643 14.0002 34.3281 14H20.0781C19.527 14 18.9984 14.2189 18.6087 14.6087C18.2189 14.9984 18 15.527 18 16.0781V42.2031C18 42.7543 18.2189 43.2829 18.6087 43.6726C18.9984 44.0623 19.527 44.2812 20.0781 44.2812H41.4531C42.0043 44.2812 42.5329 44.0623 42.9226 43.6726C43.3123 43.2829 43.5312 42.7543 43.5312 42.2031V23.2031C43.531 22.967 43.4371 22.7406 43.27 22.5738ZM35.2188 17.04L40.4913 22.3125H35.2188V17.04ZM41.4531 42.5H20.0781C19.9994 42.5 19.9239 42.4687 19.8682 42.413C19.8125 42.3574 19.7812 42.2819 19.7812 42.2031V16.0781C19.7812 15.9994 19.8125 15.9239 19.8682 15.8682C19.9239 15.8125 19.9994 15.7812 20.0781 15.7812H33.4375V23.2031C33.4375 23.4393 33.5313 23.6659 33.6984 23.8329C33.8654 23.9999 34.0919 24.0938 34.3281 24.0938H41.75V42.2031C41.75 42.2819 41.7187 42.3574 41.663 42.413C41.6074 42.4687 41.5319 42.5 41.4531 42.5Z" fill="black" fill-opacity="0.45" stroke="#8C8C8C" stroke-width="0.5"/>
</svg>
