<svg width="60" height="60" viewBox="0 0 60 60" fill="none" xmlns="http://www.w3.org/2000/svg">
<path d="M58.875 30C58.875 46.0182 45.9173 59 29.9375 59C13.9577 59 1 46.0182 1 30C1 13.9818 13.9577 1 29.9375 1C45.9173 1 58.875 13.9818 58.875 30Z" stroke="white" stroke-width="2"/>
<path d="M43.7193 21.8086C43.6681 21.6821 43.587 21.5699 43.483 21.4816C43.3789 21.3933 43.255 21.3316 43.1218 21.3017C42.9887 21.2719 42.8503 21.2748 42.7185 21.3101C42.5867 21.3455 42.4654 21.4123 42.3651 21.5048L36.5896 26.8345L33.846 26.2453L33.2568 23.5017L38.5865 17.7262C38.679 17.6259 38.7458 17.5047 38.7812 17.3729C38.8166 17.2411 38.8195 17.1027 38.7896 16.9695C38.7597 16.8364 38.698 16.7124 38.6097 16.6084C38.5215 16.5043 38.4093 16.4232 38.2828 16.372C36.4512 15.6296 34.4386 15.4556 32.5069 15.8727C30.5751 16.2899 28.8136 17.2788 27.4517 18.7109C26.0897 20.1429 25.1903 21.9518 24.8706 23.902C24.5508 25.8523 24.8255 27.8536 25.6589 29.6456L17.0259 37.0987C17.0104 37.1114 16.9964 37.1255 16.9809 37.1409C16.1893 37.9322 15.7444 39.0055 15.7441 40.1247C15.7439 41.2439 16.1882 42.3174 16.9795 43.1091C17.7707 43.9007 18.844 44.3455 19.9632 44.3458C21.0825 44.3461 22.156 43.9017 22.9476 43.1105C22.9631 43.095 22.9771 43.0809 22.9898 43.0655L30.4429 34.4325C32.2349 35.2659 34.2362 35.5405 36.1865 35.2208C38.1368 34.901 39.9456 34.0016 41.3777 32.6397C42.8097 31.2777 43.7987 29.5162 44.2158 27.5845C44.6329 25.6527 44.459 23.6401 43.7165 21.8086H43.7193ZM34.5914 33.6562C33.2142 33.6556 31.8596 33.3064 30.6539 32.6409C30.4843 32.547 30.2876 32.5144 30.0968 32.5484C29.906 32.5825 29.7328 32.6812 29.6062 32.828L21.734 41.9362C21.256 42.3942 20.6177 42.6466 19.9558 42.6395C19.2939 42.6325 18.6611 42.3664 18.193 41.8983C17.725 41.4302 17.4589 40.7975 17.4518 40.1356C17.4447 39.4737 17.6972 38.8353 18.1551 38.3573L27.262 30.4908C27.4099 30.3637 27.5091 30.1893 27.543 29.9973C27.5768 29.8053 27.5431 29.6075 27.4476 29.4375C26.6839 28.0561 26.3375 26.4829 26.4503 24.9085C26.5631 23.3342 27.1302 21.8264 28.083 20.568C29.0358 19.3096 30.3332 18.3547 31.8179 17.8191C33.3027 17.2835 34.9109 17.1901 36.4476 17.5505L31.7198 22.6776C31.6282 22.7771 31.5619 22.8971 31.5265 23.0276C31.491 23.158 31.4873 23.295 31.5159 23.4272L32.3104 27.1326C32.3445 27.2917 32.4238 27.4375 32.5388 27.5525C32.6538 27.6675 32.7996 27.7469 32.9587 27.7809L36.6642 28.5755C36.7963 28.604 36.9334 28.6004 37.0638 28.5649C37.1942 28.5294 37.3142 28.4631 37.4137 28.3716L42.5353 23.6437C42.8133 24.8404 42.8177 26.0843 42.5482 27.2829C42.2786 28.4815 41.7421 29.6038 40.9785 30.5662C40.2149 31.5286 39.244 32.3063 38.1381 32.8413C37.0322 33.3763 35.8199 33.6549 34.5914 33.6562Z" fill="white"/>
</svg>
