<svg width="60" height="60" viewBox="0 0 60 60" fill="none" xmlns="http://www.w3.org/2000/svg">
<circle cx="30" cy="30" r="29" stroke="#8C8C8C" stroke-width="2"/>
<path d="M15 27.75H16.6981M16.6981 27.75H42.5519M16.6981 27.75C16.7176 27.6655 16.7388 27.5843 16.7631 27.5014C16.8501 27.2422 16.9533 26.9888 17.0719 26.7425L19.5858 21.0875C20.0814 19.9711 20.33 19.4105 20.7232 19.001C21.071 18.6386 21.4968 18.3624 21.968 18.1918C22.5026 18 23.1136 18 24.3373 18H34.9127C36.1347 18 36.749 18 37.282 18.1918C37.7532 18.3624 38.179 18.6386 38.5251 19.001C38.9184 19.4105 39.167 19.9695 39.6626 21.0859L42.1862 26.762C42.3471 27.1244 42.43 27.3096 42.4869 27.5014C42.5113 27.5826 42.5324 27.6655 42.5519 27.75M16.6981 27.75C16.6778 27.8435 16.6615 27.9378 16.6494 28.0327C16.625 28.2375 16.625 28.4423 16.625 28.855V37.5M42.5519 27.75H44.25M42.5519 27.75C42.573 27.8442 42.5876 27.9385 42.599 28.0327C42.625 28.2342 42.625 28.439 42.625 28.8452V37.5M16.625 37.5H23.125M16.625 37.5V39.125C16.625 39.987 16.9674 40.8136 17.5769 41.4231C18.1864 42.0326 19.013 42.375 19.875 42.375C20.737 42.375 21.5636 42.0326 22.1731 41.4231C22.7826 40.8136 23.125 39.987 23.125 39.125V37.5M42.625 37.5H36.125M42.625 37.5V39.125C42.625 39.987 42.2826 40.8136 41.6731 41.4231C41.0636 42.0326 40.237 42.375 39.375 42.375C38.513 42.375 37.6864 42.0326 37.0769 41.4231C36.4674 40.8136 36.125 39.987 36.125 39.125V37.5M36.125 37.5H23.125" stroke="black" stroke-opacity="0.45" stroke-width="2" stroke-linecap="round" stroke-linejoin="round"/>
</svg>
