<svg width="60" height="60" viewBox="0 0 60 60" fill="none" xmlns="http://www.w3.org/2000/svg">
<circle cx="30" cy="30" r="29" stroke="#8C8C8C" stroke-width="2"/>
<path d="M34.7812 14H14V34.7812H26.0312V46.2656H46.8125V25.4844H34.7812V14ZM23.0443 18.9219L19.6118 28.7178H21.9297L22.4879 27.125H26.0312V32.5938H16.1875V16.1875H32.5938V25.4844H28.0364L25.7373 18.9219H23.0443ZM25.5269 24.9375H23.2544L24.3906 21.6947L25.5269 24.9375ZM44.625 27.6719V44.0781H28.2188V27.6719H44.625Z" fill="black" fill-opacity="0.45"/>
<path d="M34.3395 37.53C34.5308 37.8372 34.7414 38.132 34.9701 38.4125C34.2451 38.8035 33.4217 38.9993 32.5 39V41C34.0088 41 35.3569 40.5995 36.5 39.8235C37.6431 40.5995 38.9912 41 40.5 41V39C39.5802 39 38.7569 38.804 38.03 38.4121C38.2586 38.1317 38.4692 37.8371 38.6605 37.53C39.2369 36.5929 39.6608 35.5701 39.9164 34.5H41V32.5H37.5V31H35.5V32.5H32V34.5H33.0836C33.3392 35.5701 33.7631 36.5929 34.3395 37.53ZM37.8456 34.5C37.6387 35.1922 37.3425 35.8544 36.9644 36.47C36.8231 36.697 36.668 36.9151 36.5 37.123C36.3442 36.9304 36.1996 36.729 36.0669 36.5198C35.6734 35.8905 35.3664 35.2112 35.1541 34.5H37.8456Z" fill="black" fill-opacity="0.45"/>
</svg>
