<svg width="29" height="29" viewBox="0 0 29 29" fill="none" xmlns="http://www.w3.org/2000/svg">
<path d="M15.0921 12.412V11.8683H16.7197V19.5074H15.7893C15.6051 19.5077 15.4283 19.435 15.2976 19.3052C15.167 19.1755 15.093 18.9992 15.0921 18.815C14.4127 19.3123 13.5923 19.5811 12.7503 19.5799C11.6983 19.5799 10.6894 19.1621 9.94527 18.4185C9.20116 17.6748 8.78281 16.6661 8.78217 15.6141C8.78281 14.5621 9.20116 13.5534 9.94527 12.8098C10.6894 12.0661 11.6983 11.6484 12.7503 11.6484C13.5919 11.6474 14.413 11.915 15.0921 12.412ZM8.36046 9.41296V9.66067C8.36046 10.1223 8.29883 10.4993 7.99796 10.9415L7.96171 10.9826C7.86147 11.095 7.76397 11.2098 7.66929 11.327L2.44567 17.8834H8.36046V18.8114C8.36046 18.9029 8.34242 18.9935 8.30736 19.078C8.27231 19.1625 8.22093 19.2393 8.15618 19.304C8.09142 19.3686 8.01455 19.4198 7.92997 19.4547C7.84539 19.4897 7.75475 19.5075 7.66325 19.5074H0V19.07C0 18.5347 0.132917 18.2954 0.302083 18.0465L5.86888 11.153H0.232V9.41296H8.36046ZM18.6929 19.5074C18.5391 19.5074 18.3916 19.4463 18.2828 19.3375C18.174 19.2287 18.1129 19.0812 18.1129 18.9274V9.41296H19.8541V19.5074H18.6929ZM25.004 11.6C25.5286 11.5999 26.0481 11.7031 26.5329 11.9037C27.0176 12.1043 27.4581 12.3984 27.8291 12.7692C28.2002 13.1401 28.4946 13.5804 28.6955 14.065C28.8964 14.5496 28.9998 15.069 29 15.5936C29.0002 16.1182 28.897 16.6377 28.6964 17.1224C28.4958 17.6071 28.2017 18.0476 27.8308 18.4187C27.46 18.7897 27.0197 19.0841 26.5351 19.285C26.0505 19.4859 25.5311 19.5894 25.0065 19.5895C23.947 19.5899 22.9308 19.1693 22.1814 18.4204C21.432 17.6714 21.0108 16.6555 21.0105 15.596C21.0102 14.5365 21.4307 13.5203 22.1797 12.7709C22.9286 12.0215 23.9446 11.6004 25.004 11.6ZM12.7515 17.9474C13.0625 17.9545 13.3717 17.8994 13.6611 17.7853C13.9504 17.6711 14.2141 17.5004 14.4365 17.2829C14.6589 17.0655 14.8357 16.8058 14.9563 16.5192C15.077 16.2325 15.1392 15.9246 15.1392 15.6135C15.1392 15.3025 15.077 14.9946 14.9563 14.7079C14.8357 14.4212 14.6589 14.1615 14.4365 13.9441C14.2141 13.7267 13.9504 13.5559 13.6611 13.4418C13.3717 13.3277 13.0625 13.2726 12.7515 13.2796C12.1417 13.2935 11.5616 13.5455 11.1352 13.9817C10.7089 14.4178 10.4701 15.0036 10.4701 15.6135C10.4701 16.2235 10.7089 16.8092 11.1352 17.2454C11.5616 17.6816 12.1417 17.9335 12.7515 17.9474ZM25.004 17.9438C25.6274 17.9438 26.2251 17.6962 26.6659 17.2554C27.1066 16.8147 27.3543 16.2169 27.3543 15.5936C27.3543 14.9703 27.1066 14.3725 26.6659 13.9317C26.2251 13.491 25.6274 13.2434 25.004 13.2434C24.3807 13.2434 23.7829 13.491 23.3422 13.9317C22.9014 14.3725 22.6538 14.9703 22.6538 15.5936C22.6538 16.2169 22.9014 16.8147 23.3422 17.2554C23.7829 17.6962 24.3807 17.9438 25.004 17.9438Z" fill="white"/>
</svg>
